%TF.GenerationSoftware,KiCad,Pcbnew,(5.1.10)-1*%
%TF.CreationDate,2021-05-06T00:31:15+08:00*%
%TF.ProjectId,wifivfd,77696669-7666-4642-9e6b-696361645f70,rev?*%
%TF.SameCoordinates,Original*%
%TF.FileFunction,Legend,Top*%
%TF.FilePolarity,Positive*%
%FSLAX46Y46*%
G04 Gerber Fmt 4.6, Leading zero omitted, Abs format (unit mm)*
G04 Created by KiCad (PCBNEW (5.1.10)-1) date 2021-05-06 00:31:15*
%MOMM*%
%LPD*%
G01*
G04 APERTURE LIST*
%ADD10C,0.120000*%
%ADD11C,0.177800*%
%ADD12C,0.150000*%
G04 APERTURE END LIST*
D10*
%TO.C,Flash*%
X166850000Y-80150000D02*
X165925000Y-80150000D01*
X166850000Y-83850000D02*
X162150000Y-83850000D01*
X162050000Y-82275000D02*
X162050000Y-81725000D01*
X166950000Y-82275000D02*
X166950000Y-81725000D01*
X163075000Y-80150000D02*
X162150000Y-80150000D01*
%TO.C,RST*%
X181350000Y-80150000D02*
X180425000Y-80150000D01*
X181350000Y-83850000D02*
X176650000Y-83850000D01*
X176550000Y-82275000D02*
X176550000Y-81725000D01*
X181450000Y-82275000D02*
X181450000Y-81725000D01*
X177575000Y-80150000D02*
X176650000Y-80150000D01*
%TO.C,VFD*%
X187700000Y-98880000D02*
X186370000Y-98880000D01*
X186370000Y-98880000D02*
X186370000Y-97550000D01*
X186370000Y-96280000D02*
X186370000Y-80980000D01*
X189030000Y-80980000D02*
X186370000Y-80980000D01*
X189030000Y-96280000D02*
X189030000Y-80980000D01*
X189030000Y-96280000D02*
X186370000Y-96280000D01*
D11*
%TO.C,U1*%
X130573000Y-81823000D02*
X138444000Y-81823000D01*
X130573000Y-98077000D02*
X130573000Y-81823000D01*
X138444000Y-98077000D02*
X130573000Y-98077000D01*
X153941000Y-81823000D02*
X154827000Y-81823000D01*
X154827000Y-98077000D02*
X153941000Y-98077000D01*
X154827000Y-81823000D02*
X154827000Y-98077000D01*
D10*
%TO.C,Type-C*%
X100015000Y-94580000D02*
X100015000Y-85420000D01*
X100015000Y-85420000D02*
X101720000Y-85420000D01*
X101720000Y-94580000D02*
X100015000Y-94580000D01*
X103730000Y-94580000D02*
X105650000Y-94580000D01*
X105650000Y-85420000D02*
X103730000Y-85420000D01*
%TO.C,U4*%
X119800000Y-88160000D02*
X121750000Y-88160000D01*
X119800000Y-88160000D02*
X117850000Y-88160000D01*
X119800000Y-83040000D02*
X121750000Y-83040000D01*
X119800000Y-83040000D02*
X116350000Y-83040000D01*
%TO.C,U2*%
X123210000Y-92390000D02*
X121950000Y-92390000D01*
X116390000Y-92390000D02*
X117650000Y-92390000D01*
X123210000Y-96150000D02*
X123210000Y-92390000D01*
X116390000Y-98400000D02*
X116390000Y-92390000D01*
%TO.C,R5*%
X161222500Y-91662742D02*
X161222500Y-92137258D01*
X160177500Y-91662742D02*
X160177500Y-92137258D01*
%TO.C,R4*%
X158262742Y-81027500D02*
X158737258Y-81027500D01*
X158262742Y-82072500D02*
X158737258Y-82072500D01*
%TO.C,R3*%
X172662742Y-80977500D02*
X173137258Y-80977500D01*
X172662742Y-82022500D02*
X173137258Y-82022500D01*
%TO.C,R2*%
X107237258Y-97822500D02*
X106762742Y-97822500D01*
X107237258Y-96777500D02*
X106762742Y-96777500D01*
%TO.C,R1*%
X126512258Y-89572500D02*
X126037742Y-89572500D01*
X126512258Y-88527500D02*
X126037742Y-88527500D01*
%TO.C,I/O*%
X163510000Y-96170000D02*
X163510000Y-98830000D01*
X173730000Y-96170000D02*
X163510000Y-96170000D01*
X173730000Y-98830000D02*
X163510000Y-98830000D01*
X173730000Y-96170000D02*
X173730000Y-98830000D01*
X175000000Y-96170000D02*
X176330000Y-96170000D01*
X176330000Y-96170000D02*
X176330000Y-97500000D01*
%TO.C,C4*%
X122140580Y-82310000D02*
X121859420Y-82310000D01*
X122140580Y-81290000D02*
X121859420Y-81290000D01*
%TO.C,C3*%
X182810000Y-98312500D02*
X182810000Y-94102500D01*
X182810000Y-94102500D02*
X179790000Y-94102500D01*
X179790000Y-94102500D02*
X179790000Y-98312500D01*
%TO.C,C2*%
X111990000Y-92550000D02*
X111990000Y-96760000D01*
X111990000Y-96760000D02*
X115010000Y-96760000D01*
X115010000Y-96760000D02*
X115010000Y-92550000D01*
%TO.C,C1*%
X124590000Y-92550000D02*
X124590000Y-96760000D01*
X124590000Y-96760000D02*
X127610000Y-96760000D01*
X127610000Y-96760000D02*
X127610000Y-92550000D01*
%TO.C,Flash*%
D12*
X160421428Y-84928571D02*
X160088095Y-84928571D01*
X160088095Y-85452380D02*
X160088095Y-84452380D01*
X160564285Y-84452380D01*
X161088095Y-85452380D02*
X160992857Y-85404761D01*
X160945238Y-85309523D01*
X160945238Y-84452380D01*
X161897619Y-85452380D02*
X161897619Y-84928571D01*
X161850000Y-84833333D01*
X161754761Y-84785714D01*
X161564285Y-84785714D01*
X161469047Y-84833333D01*
X161897619Y-85404761D02*
X161802380Y-85452380D01*
X161564285Y-85452380D01*
X161469047Y-85404761D01*
X161421428Y-85309523D01*
X161421428Y-85214285D01*
X161469047Y-85119047D01*
X161564285Y-85071428D01*
X161802380Y-85071428D01*
X161897619Y-85023809D01*
X162326190Y-85404761D02*
X162421428Y-85452380D01*
X162611904Y-85452380D01*
X162707142Y-85404761D01*
X162754761Y-85309523D01*
X162754761Y-85261904D01*
X162707142Y-85166666D01*
X162611904Y-85119047D01*
X162469047Y-85119047D01*
X162373809Y-85071428D01*
X162326190Y-84976190D01*
X162326190Y-84928571D01*
X162373809Y-84833333D01*
X162469047Y-84785714D01*
X162611904Y-84785714D01*
X162707142Y-84833333D01*
X163183333Y-85452380D02*
X163183333Y-84452380D01*
X163611904Y-85452380D02*
X163611904Y-84928571D01*
X163564285Y-84833333D01*
X163469047Y-84785714D01*
X163326190Y-84785714D01*
X163230952Y-84833333D01*
X163183333Y-84880952D01*
%TO.C,RST*%
X178452380Y-85452380D02*
X178119047Y-84976190D01*
X177880952Y-85452380D02*
X177880952Y-84452380D01*
X178261904Y-84452380D01*
X178357142Y-84500000D01*
X178404761Y-84547619D01*
X178452380Y-84642857D01*
X178452380Y-84785714D01*
X178404761Y-84880952D01*
X178357142Y-84928571D01*
X178261904Y-84976190D01*
X177880952Y-84976190D01*
X178833333Y-85404761D02*
X178976190Y-85452380D01*
X179214285Y-85452380D01*
X179309523Y-85404761D01*
X179357142Y-85357142D01*
X179404761Y-85261904D01*
X179404761Y-85166666D01*
X179357142Y-85071428D01*
X179309523Y-85023809D01*
X179214285Y-84976190D01*
X179023809Y-84928571D01*
X178928571Y-84880952D01*
X178880952Y-84833333D01*
X178833333Y-84738095D01*
X178833333Y-84642857D01*
X178880952Y-84547619D01*
X178928571Y-84500000D01*
X179023809Y-84452380D01*
X179261904Y-84452380D01*
X179404761Y-84500000D01*
X179690476Y-84452380D02*
X180261904Y-84452380D01*
X179976190Y-85452380D02*
X179976190Y-84452380D01*
%TO.C,VFD*%
X184252380Y-91161904D02*
X185252380Y-90828571D01*
X184252380Y-90495238D01*
X184728571Y-89828571D02*
X184728571Y-90161904D01*
X185252380Y-90161904D02*
X184252380Y-90161904D01*
X184252380Y-89685714D01*
X185252380Y-89304761D02*
X184252380Y-89304761D01*
X184252380Y-89066666D01*
X184300000Y-88923809D01*
X184395238Y-88828571D01*
X184490476Y-88780952D01*
X184680952Y-88733333D01*
X184823809Y-88733333D01*
X185014285Y-88780952D01*
X185109523Y-88828571D01*
X185204761Y-88923809D01*
X185252380Y-89066666D01*
X185252380Y-89304761D01*
%TO.C,Type-C*%
X101002380Y-92616666D02*
X101002380Y-92045238D01*
X102002380Y-92330952D02*
X101002380Y-92330952D01*
X101335714Y-91807142D02*
X102002380Y-91569047D01*
X101335714Y-91330952D02*
X102002380Y-91569047D01*
X102240476Y-91664285D01*
X102288095Y-91711904D01*
X102335714Y-91807142D01*
X101335714Y-90950000D02*
X102335714Y-90950000D01*
X101383333Y-90950000D02*
X101335714Y-90854761D01*
X101335714Y-90664285D01*
X101383333Y-90569047D01*
X101430952Y-90521428D01*
X101526190Y-90473809D01*
X101811904Y-90473809D01*
X101907142Y-90521428D01*
X101954761Y-90569047D01*
X102002380Y-90664285D01*
X102002380Y-90854761D01*
X101954761Y-90950000D01*
X101954761Y-89664285D02*
X102002380Y-89759523D01*
X102002380Y-89950000D01*
X101954761Y-90045238D01*
X101859523Y-90092857D01*
X101478571Y-90092857D01*
X101383333Y-90045238D01*
X101335714Y-89950000D01*
X101335714Y-89759523D01*
X101383333Y-89664285D01*
X101478571Y-89616666D01*
X101573809Y-89616666D01*
X101669047Y-90092857D01*
X101621428Y-89188095D02*
X101621428Y-88426190D01*
X101907142Y-87378571D02*
X101954761Y-87426190D01*
X102002380Y-87569047D01*
X102002380Y-87664285D01*
X101954761Y-87807142D01*
X101859523Y-87902380D01*
X101764285Y-87950000D01*
X101573809Y-87997619D01*
X101430952Y-87997619D01*
X101240476Y-87950000D01*
X101145238Y-87902380D01*
X101050000Y-87807142D01*
X101002380Y-87664285D01*
X101002380Y-87569047D01*
X101050000Y-87426190D01*
X101097619Y-87378571D01*
%TO.C,U4*%
X119038095Y-85052380D02*
X119038095Y-85861904D01*
X119085714Y-85957142D01*
X119133333Y-86004761D01*
X119228571Y-86052380D01*
X119419047Y-86052380D01*
X119514285Y-86004761D01*
X119561904Y-85957142D01*
X119609523Y-85861904D01*
X119609523Y-85052380D01*
X120514285Y-85385714D02*
X120514285Y-86052380D01*
X120276190Y-85004761D02*
X120038095Y-85719047D01*
X120657142Y-85719047D01*
%TO.C,U2*%
X119038095Y-93852380D02*
X119038095Y-94661904D01*
X119085714Y-94757142D01*
X119133333Y-94804761D01*
X119228571Y-94852380D01*
X119419047Y-94852380D01*
X119514285Y-94804761D01*
X119561904Y-94757142D01*
X119609523Y-94661904D01*
X119609523Y-93852380D01*
X120038095Y-93947619D02*
X120085714Y-93900000D01*
X120180952Y-93852380D01*
X120419047Y-93852380D01*
X120514285Y-93900000D01*
X120561904Y-93947619D01*
X120609523Y-94042857D01*
X120609523Y-94138095D01*
X120561904Y-94280952D01*
X119990476Y-94852380D01*
X120609523Y-94852380D01*
%TO.C,R5*%
X161102380Y-89466666D02*
X160626190Y-89800000D01*
X161102380Y-90038095D02*
X160102380Y-90038095D01*
X160102380Y-89657142D01*
X160150000Y-89561904D01*
X160197619Y-89514285D01*
X160292857Y-89466666D01*
X160435714Y-89466666D01*
X160530952Y-89514285D01*
X160578571Y-89561904D01*
X160626190Y-89657142D01*
X160626190Y-90038095D01*
X160102380Y-88561904D02*
X160102380Y-89038095D01*
X160578571Y-89085714D01*
X160530952Y-89038095D01*
X160483333Y-88942857D01*
X160483333Y-88704761D01*
X160530952Y-88609523D01*
X160578571Y-88561904D01*
X160673809Y-88514285D01*
X160911904Y-88514285D01*
X161007142Y-88561904D01*
X161054761Y-88609523D01*
X161102380Y-88704761D01*
X161102380Y-88942857D01*
X161054761Y-89038095D01*
X161007142Y-89085714D01*
%TO.C,R4*%
X158333333Y-83652380D02*
X158000000Y-83176190D01*
X157761904Y-83652380D02*
X157761904Y-82652380D01*
X158142857Y-82652380D01*
X158238095Y-82700000D01*
X158285714Y-82747619D01*
X158333333Y-82842857D01*
X158333333Y-82985714D01*
X158285714Y-83080952D01*
X158238095Y-83128571D01*
X158142857Y-83176190D01*
X157761904Y-83176190D01*
X159190476Y-82985714D02*
X159190476Y-83652380D01*
X158952380Y-82604761D02*
X158714285Y-83319047D01*
X159333333Y-83319047D01*
%TO.C,R3*%
X172733333Y-83652380D02*
X172400000Y-83176190D01*
X172161904Y-83652380D02*
X172161904Y-82652380D01*
X172542857Y-82652380D01*
X172638095Y-82700000D01*
X172685714Y-82747619D01*
X172733333Y-82842857D01*
X172733333Y-82985714D01*
X172685714Y-83080952D01*
X172638095Y-83128571D01*
X172542857Y-83176190D01*
X172161904Y-83176190D01*
X173066666Y-82652380D02*
X173685714Y-82652380D01*
X173352380Y-83033333D01*
X173495238Y-83033333D01*
X173590476Y-83080952D01*
X173638095Y-83128571D01*
X173685714Y-83223809D01*
X173685714Y-83461904D01*
X173638095Y-83557142D01*
X173590476Y-83604761D01*
X173495238Y-83652380D01*
X173209523Y-83652380D01*
X173114285Y-83604761D01*
X173066666Y-83557142D01*
%TO.C,R2*%
X110133333Y-97752380D02*
X109800000Y-97276190D01*
X109561904Y-97752380D02*
X109561904Y-96752380D01*
X109942857Y-96752380D01*
X110038095Y-96800000D01*
X110085714Y-96847619D01*
X110133333Y-96942857D01*
X110133333Y-97085714D01*
X110085714Y-97180952D01*
X110038095Y-97228571D01*
X109942857Y-97276190D01*
X109561904Y-97276190D01*
X110514285Y-96847619D02*
X110561904Y-96800000D01*
X110657142Y-96752380D01*
X110895238Y-96752380D01*
X110990476Y-96800000D01*
X111038095Y-96847619D01*
X111085714Y-96942857D01*
X111085714Y-97038095D01*
X111038095Y-97180952D01*
X110466666Y-97752380D01*
X111085714Y-97752380D01*
%TO.C,R1*%
X126108333Y-88052380D02*
X125775000Y-87576190D01*
X125536904Y-88052380D02*
X125536904Y-87052380D01*
X125917857Y-87052380D01*
X126013095Y-87100000D01*
X126060714Y-87147619D01*
X126108333Y-87242857D01*
X126108333Y-87385714D01*
X126060714Y-87480952D01*
X126013095Y-87528571D01*
X125917857Y-87576190D01*
X125536904Y-87576190D01*
X127060714Y-88052380D02*
X126489285Y-88052380D01*
X126775000Y-88052380D02*
X126775000Y-87052380D01*
X126679761Y-87195238D01*
X126584523Y-87290476D01*
X126489285Y-87338095D01*
%TO.C,I/O*%
X177782380Y-98547619D02*
X176782380Y-98547619D01*
X176734761Y-97357142D02*
X178020476Y-98214285D01*
X176782380Y-96833333D02*
X176782380Y-96642857D01*
X176830000Y-96547619D01*
X176925238Y-96452380D01*
X177115714Y-96404761D01*
X177449047Y-96404761D01*
X177639523Y-96452380D01*
X177734761Y-96547619D01*
X177782380Y-96642857D01*
X177782380Y-96833333D01*
X177734761Y-96928571D01*
X177639523Y-97023809D01*
X177449047Y-97071428D01*
X177115714Y-97071428D01*
X176925238Y-97023809D01*
X176830000Y-96928571D01*
X176782380Y-96833333D01*
%TO.C,C4*%
X124433333Y-82157142D02*
X124385714Y-82204761D01*
X124242857Y-82252380D01*
X124147619Y-82252380D01*
X124004761Y-82204761D01*
X123909523Y-82109523D01*
X123861904Y-82014285D01*
X123814285Y-81823809D01*
X123814285Y-81680952D01*
X123861904Y-81490476D01*
X123909523Y-81395238D01*
X124004761Y-81300000D01*
X124147619Y-81252380D01*
X124242857Y-81252380D01*
X124385714Y-81300000D01*
X124433333Y-81347619D01*
X125290476Y-81585714D02*
X125290476Y-82252380D01*
X125052380Y-81204761D02*
X124814285Y-81919047D01*
X125433333Y-81919047D01*
%TO.C,C3*%
X184007142Y-96729166D02*
X184054761Y-96776785D01*
X184102380Y-96919642D01*
X184102380Y-97014880D01*
X184054761Y-97157738D01*
X183959523Y-97252976D01*
X183864285Y-97300595D01*
X183673809Y-97348214D01*
X183530952Y-97348214D01*
X183340476Y-97300595D01*
X183245238Y-97252976D01*
X183150000Y-97157738D01*
X183102380Y-97014880D01*
X183102380Y-96919642D01*
X183150000Y-96776785D01*
X183197619Y-96729166D01*
X183102380Y-96395833D02*
X183102380Y-95776785D01*
X183483333Y-96110119D01*
X183483333Y-95967261D01*
X183530952Y-95872023D01*
X183578571Y-95824404D01*
X183673809Y-95776785D01*
X183911904Y-95776785D01*
X184007142Y-95824404D01*
X184054761Y-95872023D01*
X184102380Y-95967261D01*
X184102380Y-96252976D01*
X184054761Y-96348214D01*
X184007142Y-96395833D01*
%TO.C,C2*%
X111507142Y-94466666D02*
X111554761Y-94514285D01*
X111602380Y-94657142D01*
X111602380Y-94752380D01*
X111554761Y-94895238D01*
X111459523Y-94990476D01*
X111364285Y-95038095D01*
X111173809Y-95085714D01*
X111030952Y-95085714D01*
X110840476Y-95038095D01*
X110745238Y-94990476D01*
X110650000Y-94895238D01*
X110602380Y-94752380D01*
X110602380Y-94657142D01*
X110650000Y-94514285D01*
X110697619Y-94466666D01*
X110697619Y-94085714D02*
X110650000Y-94038095D01*
X110602380Y-93942857D01*
X110602380Y-93704761D01*
X110650000Y-93609523D01*
X110697619Y-93561904D01*
X110792857Y-93514285D01*
X110888095Y-93514285D01*
X111030952Y-93561904D01*
X111602380Y-94133333D01*
X111602380Y-93514285D01*
%TO.C,C1*%
X128957142Y-94466666D02*
X129004761Y-94514285D01*
X129052380Y-94657142D01*
X129052380Y-94752380D01*
X129004761Y-94895238D01*
X128909523Y-94990476D01*
X128814285Y-95038095D01*
X128623809Y-95085714D01*
X128480952Y-95085714D01*
X128290476Y-95038095D01*
X128195238Y-94990476D01*
X128100000Y-94895238D01*
X128052380Y-94752380D01*
X128052380Y-94657142D01*
X128100000Y-94514285D01*
X128147619Y-94466666D01*
X129052380Y-93514285D02*
X129052380Y-94085714D01*
X129052380Y-93800000D02*
X128052380Y-93800000D01*
X128195238Y-93895238D01*
X128290476Y-93990476D01*
X128338095Y-94085714D01*
%TD*%
M02*
