%TF.GenerationSoftware,KiCad,Pcbnew,(5.1.10)-1*%
%TF.CreationDate,2021-05-06T00:31:15+08:00*%
%TF.ProjectId,wifivfd,77696669-7666-4642-9e6b-696361645f70,rev?*%
%TF.SameCoordinates,Original*%
%TF.FileFunction,Copper,L1,Top*%
%TF.FilePolarity,Positive*%
%FSLAX46Y46*%
G04 Gerber Fmt 4.6, Leading zero omitted, Abs format (unit mm)*
G04 Created by KiCad (PCBNEW (5.1.10)-1) date 2021-05-06 00:31:15*
%MOMM*%
%LPD*%
G01*
G04 APERTURE LIST*
%TA.AperFunction,ComponentPad*%
%ADD10R,1.500000X1.500000*%
%TD*%
%TA.AperFunction,ComponentPad*%
%ADD11C,1.500000*%
%TD*%
%TA.AperFunction,SMDPad,CuDef*%
%ADD12R,1.550000X1.000000*%
%TD*%
%TA.AperFunction,ComponentPad*%
%ADD13O,1.700000X1.700000*%
%TD*%
%TA.AperFunction,ComponentPad*%
%ADD14R,1.700000X1.700000*%
%TD*%
%TA.AperFunction,SMDPad,CuDef*%
%ADD15R,1.100000X2.600000*%
%TD*%
%TA.AperFunction,SMDPad,CuDef*%
%ADD16R,3.200000X3.200000*%
%TD*%
%TA.AperFunction,ComponentPad*%
%ADD17O,2.100000X1.000000*%
%TD*%
%TA.AperFunction,ComponentPad*%
%ADD18O,1.600000X1.000000*%
%TD*%
%TA.AperFunction,SMDPad,CuDef*%
%ADD19R,1.150000X0.300000*%
%TD*%
%TA.AperFunction,SMDPad,CuDef*%
%ADD20R,3.800000X2.000000*%
%TD*%
%TA.AperFunction,SMDPad,CuDef*%
%ADD21R,1.500000X2.000000*%
%TD*%
%TA.AperFunction,ViaPad*%
%ADD22C,0.700000*%
%TD*%
%TA.AperFunction,Conductor*%
%ADD23C,0.500000*%
%TD*%
%TA.AperFunction,Conductor*%
%ADD24C,0.600000*%
%TD*%
%TA.AperFunction,Conductor*%
%ADD25C,0.250000*%
%TD*%
%TA.AperFunction,Conductor*%
%ADD26C,0.200000*%
%TD*%
%TA.AperFunction,Conductor*%
%ADD27C,0.254000*%
%TD*%
%TA.AperFunction,Conductor*%
%ADD28C,0.350000*%
%TD*%
%ADD29C,0.350000*%
%ADD30O,1.700000X0.600000*%
%ADD31O,1.200000X0.600000*%
G04 APERTURE END LIST*
D10*
%TO.P,DHT11,1*%
%TO.N,+3V3*%
X165600000Y-93200000D03*
D11*
%TO.P,DHT11,2*%
%TO.N,/PIN_D6*%
X165600000Y-90660000D03*
%TO.P,DHT11,3*%
%TO.N,Net-(U3-Pad3)*%
X165600000Y-88120000D03*
%TO.P,DHT11,4*%
%TO.N,GND*%
X165600000Y-85580000D03*
%TD*%
D12*
%TO.P,Flash,1*%
%TO.N,Net-(R4-Pad2)*%
X167125000Y-81150000D03*
X161875000Y-81150000D03*
%TO.P,Flash,2*%
%TO.N,GND*%
X161875000Y-82850000D03*
X167125000Y-82850000D03*
%TD*%
%TO.P,RST,1*%
%TO.N,Net-(R3-Pad2)*%
X181625000Y-81150000D03*
X176375000Y-81150000D03*
%TO.P,RST,2*%
%TO.N,GND*%
X176375000Y-82850000D03*
X181625000Y-82850000D03*
%TD*%
D13*
%TO.P,VFD,7*%
%TO.N,/PIN_D4*%
X187700000Y-82310000D03*
%TO.P,VFD,6*%
%TO.N,/PIN_D5*%
X187700000Y-84850000D03*
%TO.P,VFD,5*%
%TO.N,/PIN_D2*%
X187700000Y-87390000D03*
%TO.P,VFD,4*%
%TO.N,/PIN_D1*%
X187700000Y-89930000D03*
%TO.P,VFD,3*%
%TO.N,/PIN_D0*%
X187700000Y-92470000D03*
%TO.P,VFD,2*%
%TO.N,+5V*%
X187700000Y-95010000D03*
D14*
%TO.P,VFD,1*%
%TO.N,GND*%
X187700000Y-97550000D03*
%TD*%
D15*
%TO.P,U1,1*%
%TO.N,/nRST*%
X139200000Y-97950000D03*
%TO.P,U1,2*%
%TO.N,/ADC*%
X141200000Y-97950000D03*
%TO.P,U1,3*%
%TO.N,Net-(R1-Pad1)*%
X143200000Y-97950000D03*
%TO.P,U1,4*%
%TO.N,/PIN_D0*%
X145200000Y-97950000D03*
%TO.P,U1,5*%
%TO.N,/PIN_D5*%
X147200000Y-97950000D03*
%TO.P,U1,6*%
%TO.N,/PIN_D6*%
X149200000Y-97950000D03*
%TO.P,U1,7*%
%TO.N,/PIN_D7*%
X151200000Y-97950000D03*
%TO.P,U1,8*%
%TO.N,+3V3*%
X153200000Y-97950000D03*
%TO.P,U1,9*%
%TO.N,GND*%
X153200000Y-81950000D03*
%TO.P,U1,10*%
%TO.N,/PIN_D8*%
X151200000Y-81950000D03*
%TO.P,U1,11*%
%TO.N,/PIN_D4*%
X149200000Y-81950000D03*
%TO.P,U1,12*%
%TO.N,/GPIO0*%
X147200000Y-81950000D03*
%TO.P,U1,13*%
%TO.N,/PIN_D2*%
X145200000Y-81950000D03*
%TO.P,U1,14*%
%TO.N,/PIN_D1*%
X143200000Y-81950000D03*
%TO.P,U1,15*%
%TO.N,/RXD0*%
X141200000Y-81950000D03*
%TO.P,U1,16*%
%TO.N,/TXD0*%
X139200000Y-81950000D03*
D16*
%TO.P,U1,P$1*%
%TO.N,GND*%
X143900000Y-89950000D03*
%TD*%
D17*
%TO.P,Type-C,S1*%
%TO.N,GND*%
X106905000Y-85680000D03*
X106905000Y-94320000D03*
D18*
X102725000Y-85680000D03*
X102725000Y-94320000D03*
D19*
%TO.P,Type-C,B1*%
X107470000Y-93050000D03*
%TO.P,Type-C,B4*%
%TO.N,+5V*%
X107470000Y-92250000D03*
%TO.P,Type-C,B5*%
%TO.N,Net-(J1-PadA5)*%
X107470000Y-91750000D03*
%TO.P,Type-C,A8*%
%TO.N,Net-(J1-PadA8)*%
X107470000Y-91250000D03*
%TO.P,Type-C,B6*%
%TO.N,/D_P*%
X107470000Y-90750000D03*
%TO.P,Type-C,A7*%
%TO.N,/D_N*%
X107470000Y-90250000D03*
%TO.P,Type-C,A6*%
%TO.N,/D_P*%
X107470000Y-89750000D03*
%TO.P,Type-C,B7*%
%TO.N,/D_N*%
X107470000Y-89250000D03*
%TO.P,Type-C,A5*%
%TO.N,Net-(J1-PadA5)*%
X107470000Y-88750000D03*
%TO.P,Type-C,B8*%
%TO.N,Net-(J1-PadB8)*%
X107470000Y-88250000D03*
%TO.P,Type-C,A4*%
%TO.N,+5V*%
X107470000Y-87450000D03*
%TO.P,Type-C,A1*%
%TO.N,GND*%
X107470000Y-86650000D03*
%TO.P,Type-C,B12*%
X107470000Y-86950000D03*
%TO.P,Type-C,B9*%
%TO.N,+5V*%
X107470000Y-87750000D03*
%TO.P,Type-C,A9*%
X107470000Y-92550000D03*
%TO.P,Type-C,A12*%
%TO.N,GND*%
X107470000Y-93350000D03*
%TD*%
%TO.P,U4,1*%
%TO.N,/D_P*%
%TA.AperFunction,SMDPad,CuDef*%
G36*
G01*
X116350000Y-83845000D02*
X116350000Y-83545000D01*
G75*
G02*
X116500000Y-83395000I150000J0D01*
G01*
X118150000Y-83395000D01*
G75*
G02*
X118300000Y-83545000I0J-150000D01*
G01*
X118300000Y-83845000D01*
G75*
G02*
X118150000Y-83995000I-150000J0D01*
G01*
X116500000Y-83995000D01*
G75*
G02*
X116350000Y-83845000I0J150000D01*
G01*
G37*
%TD.AperFunction*%
%TO.P,U4,2*%
%TO.N,/D_N*%
%TA.AperFunction,SMDPad,CuDef*%
G36*
G01*
X116350000Y-85115000D02*
X116350000Y-84815000D01*
G75*
G02*
X116500000Y-84665000I150000J0D01*
G01*
X118150000Y-84665000D01*
G75*
G02*
X118300000Y-84815000I0J-150000D01*
G01*
X118300000Y-85115000D01*
G75*
G02*
X118150000Y-85265000I-150000J0D01*
G01*
X116500000Y-85265000D01*
G75*
G02*
X116350000Y-85115000I0J150000D01*
G01*
G37*
%TD.AperFunction*%
%TO.P,U4,3*%
%TO.N,GND*%
%TA.AperFunction,SMDPad,CuDef*%
G36*
G01*
X116350000Y-86385000D02*
X116350000Y-86085000D01*
G75*
G02*
X116500000Y-85935000I150000J0D01*
G01*
X118150000Y-85935000D01*
G75*
G02*
X118300000Y-86085000I0J-150000D01*
G01*
X118300000Y-86385000D01*
G75*
G02*
X118150000Y-86535000I-150000J0D01*
G01*
X116500000Y-86535000D01*
G75*
G02*
X116350000Y-86385000I0J150000D01*
G01*
G37*
%TD.AperFunction*%
%TO.P,U4,4*%
%TO.N,Net-(U4-Pad4)*%
%TA.AperFunction,SMDPad,CuDef*%
G36*
G01*
X116350000Y-87655000D02*
X116350000Y-87355000D01*
G75*
G02*
X116500000Y-87205000I150000J0D01*
G01*
X118150000Y-87205000D01*
G75*
G02*
X118300000Y-87355000I0J-150000D01*
G01*
X118300000Y-87655000D01*
G75*
G02*
X118150000Y-87805000I-150000J0D01*
G01*
X116500000Y-87805000D01*
G75*
G02*
X116350000Y-87655000I0J150000D01*
G01*
G37*
%TD.AperFunction*%
%TO.P,U4,5*%
%TO.N,+3V3*%
%TA.AperFunction,SMDPad,CuDef*%
G36*
G01*
X121300000Y-87655000D02*
X121300000Y-87355000D01*
G75*
G02*
X121450000Y-87205000I150000J0D01*
G01*
X123100000Y-87205000D01*
G75*
G02*
X123250000Y-87355000I0J-150000D01*
G01*
X123250000Y-87655000D01*
G75*
G02*
X123100000Y-87805000I-150000J0D01*
G01*
X121450000Y-87805000D01*
G75*
G02*
X121300000Y-87655000I0J150000D01*
G01*
G37*
%TD.AperFunction*%
%TO.P,U4,6*%
%TO.N,/RXD0*%
%TA.AperFunction,SMDPad,CuDef*%
G36*
G01*
X121300000Y-86385000D02*
X121300000Y-86085000D01*
G75*
G02*
X121450000Y-85935000I150000J0D01*
G01*
X123100000Y-85935000D01*
G75*
G02*
X123250000Y-86085000I0J-150000D01*
G01*
X123250000Y-86385000D01*
G75*
G02*
X123100000Y-86535000I-150000J0D01*
G01*
X121450000Y-86535000D01*
G75*
G02*
X121300000Y-86385000I0J150000D01*
G01*
G37*
%TD.AperFunction*%
%TO.P,U4,7*%
%TO.N,/TXD0*%
%TA.AperFunction,SMDPad,CuDef*%
G36*
G01*
X121300000Y-85115000D02*
X121300000Y-84815000D01*
G75*
G02*
X121450000Y-84665000I150000J0D01*
G01*
X123100000Y-84665000D01*
G75*
G02*
X123250000Y-84815000I0J-150000D01*
G01*
X123250000Y-85115000D01*
G75*
G02*
X123100000Y-85265000I-150000J0D01*
G01*
X121450000Y-85265000D01*
G75*
G02*
X121300000Y-85115000I0J150000D01*
G01*
G37*
%TD.AperFunction*%
%TO.P,U4,8*%
%TO.N,Net-(C4-Pad1)*%
%TA.AperFunction,SMDPad,CuDef*%
G36*
G01*
X121300000Y-83845000D02*
X121300000Y-83545000D01*
G75*
G02*
X121450000Y-83395000I150000J0D01*
G01*
X123100000Y-83395000D01*
G75*
G02*
X123250000Y-83545000I0J-150000D01*
G01*
X123250000Y-83845000D01*
G75*
G02*
X123100000Y-83995000I-150000J0D01*
G01*
X121450000Y-83995000D01*
G75*
G02*
X121300000Y-83845000I0J150000D01*
G01*
G37*
%TD.AperFunction*%
%TD*%
D20*
%TO.P,U2,2*%
%TO.N,+3V3*%
X119800000Y-91150000D03*
D21*
X119800000Y-97450000D03*
%TO.P,U2,3*%
%TO.N,+5V*%
X122100000Y-97450000D03*
%TO.P,U2,1*%
%TO.N,GND*%
X117500000Y-97450000D03*
%TD*%
%TO.P,R5,1*%
%TO.N,/PIN_D6*%
%TA.AperFunction,SMDPad,CuDef*%
G36*
G01*
X160425000Y-90675000D02*
X160975000Y-90675000D01*
G75*
G02*
X161175000Y-90875000I0J-200000D01*
G01*
X161175000Y-91275000D01*
G75*
G02*
X160975000Y-91475000I-200000J0D01*
G01*
X160425000Y-91475000D01*
G75*
G02*
X160225000Y-91275000I0J200000D01*
G01*
X160225000Y-90875000D01*
G75*
G02*
X160425000Y-90675000I200000J0D01*
G01*
G37*
%TD.AperFunction*%
%TO.P,R5,2*%
%TO.N,+3V3*%
%TA.AperFunction,SMDPad,CuDef*%
G36*
G01*
X160425000Y-92325000D02*
X160975000Y-92325000D01*
G75*
G02*
X161175000Y-92525000I0J-200000D01*
G01*
X161175000Y-92925000D01*
G75*
G02*
X160975000Y-93125000I-200000J0D01*
G01*
X160425000Y-93125000D01*
G75*
G02*
X160225000Y-92925000I0J200000D01*
G01*
X160225000Y-92525000D01*
G75*
G02*
X160425000Y-92325000I200000J0D01*
G01*
G37*
%TD.AperFunction*%
%TD*%
%TO.P,R4,1*%
%TO.N,/GPIO0*%
%TA.AperFunction,SMDPad,CuDef*%
G36*
G01*
X157275000Y-81825000D02*
X157275000Y-81275000D01*
G75*
G02*
X157475000Y-81075000I200000J0D01*
G01*
X157875000Y-81075000D01*
G75*
G02*
X158075000Y-81275000I0J-200000D01*
G01*
X158075000Y-81825000D01*
G75*
G02*
X157875000Y-82025000I-200000J0D01*
G01*
X157475000Y-82025000D01*
G75*
G02*
X157275000Y-81825000I0J200000D01*
G01*
G37*
%TD.AperFunction*%
%TO.P,R4,2*%
%TO.N,Net-(R4-Pad2)*%
%TA.AperFunction,SMDPad,CuDef*%
G36*
G01*
X158925000Y-81825000D02*
X158925000Y-81275000D01*
G75*
G02*
X159125000Y-81075000I200000J0D01*
G01*
X159525000Y-81075000D01*
G75*
G02*
X159725000Y-81275000I0J-200000D01*
G01*
X159725000Y-81825000D01*
G75*
G02*
X159525000Y-82025000I-200000J0D01*
G01*
X159125000Y-82025000D01*
G75*
G02*
X158925000Y-81825000I0J200000D01*
G01*
G37*
%TD.AperFunction*%
%TD*%
%TO.P,R3,1*%
%TO.N,/nRST*%
%TA.AperFunction,SMDPad,CuDef*%
G36*
G01*
X171675000Y-81775000D02*
X171675000Y-81225000D01*
G75*
G02*
X171875000Y-81025000I200000J0D01*
G01*
X172275000Y-81025000D01*
G75*
G02*
X172475000Y-81225000I0J-200000D01*
G01*
X172475000Y-81775000D01*
G75*
G02*
X172275000Y-81975000I-200000J0D01*
G01*
X171875000Y-81975000D01*
G75*
G02*
X171675000Y-81775000I0J200000D01*
G01*
G37*
%TD.AperFunction*%
%TO.P,R3,2*%
%TO.N,Net-(R3-Pad2)*%
%TA.AperFunction,SMDPad,CuDef*%
G36*
G01*
X173325000Y-81775000D02*
X173325000Y-81225000D01*
G75*
G02*
X173525000Y-81025000I200000J0D01*
G01*
X173925000Y-81025000D01*
G75*
G02*
X174125000Y-81225000I0J-200000D01*
G01*
X174125000Y-81775000D01*
G75*
G02*
X173925000Y-81975000I-200000J0D01*
G01*
X173525000Y-81975000D01*
G75*
G02*
X173325000Y-81775000I0J200000D01*
G01*
G37*
%TD.AperFunction*%
%TD*%
%TO.P,R2,1*%
%TO.N,GND*%
%TA.AperFunction,SMDPad,CuDef*%
G36*
G01*
X108225000Y-97025000D02*
X108225000Y-97575000D01*
G75*
G02*
X108025000Y-97775000I-200000J0D01*
G01*
X107625000Y-97775000D01*
G75*
G02*
X107425000Y-97575000I0J200000D01*
G01*
X107425000Y-97025000D01*
G75*
G02*
X107625000Y-96825000I200000J0D01*
G01*
X108025000Y-96825000D01*
G75*
G02*
X108225000Y-97025000I0J-200000D01*
G01*
G37*
%TD.AperFunction*%
%TO.P,R2,2*%
%TO.N,Net-(J1-PadA5)*%
%TA.AperFunction,SMDPad,CuDef*%
G36*
G01*
X106575000Y-97025000D02*
X106575000Y-97575000D01*
G75*
G02*
X106375000Y-97775000I-200000J0D01*
G01*
X105975000Y-97775000D01*
G75*
G02*
X105775000Y-97575000I0J200000D01*
G01*
X105775000Y-97025000D01*
G75*
G02*
X105975000Y-96825000I200000J0D01*
G01*
X106375000Y-96825000D01*
G75*
G02*
X106575000Y-97025000I0J-200000D01*
G01*
G37*
%TD.AperFunction*%
%TD*%
%TO.P,R1,1*%
%TO.N,Net-(R1-Pad1)*%
%TA.AperFunction,SMDPad,CuDef*%
G36*
G01*
X127500000Y-88775000D02*
X127500000Y-89325000D01*
G75*
G02*
X127300000Y-89525000I-200000J0D01*
G01*
X126900000Y-89525000D01*
G75*
G02*
X126700000Y-89325000I0J200000D01*
G01*
X126700000Y-88775000D01*
G75*
G02*
X126900000Y-88575000I200000J0D01*
G01*
X127300000Y-88575000D01*
G75*
G02*
X127500000Y-88775000I0J-200000D01*
G01*
G37*
%TD.AperFunction*%
%TO.P,R1,2*%
%TO.N,+3V3*%
%TA.AperFunction,SMDPad,CuDef*%
G36*
G01*
X125850000Y-88775000D02*
X125850000Y-89325000D01*
G75*
G02*
X125650000Y-89525000I-200000J0D01*
G01*
X125250000Y-89525000D01*
G75*
G02*
X125050000Y-89325000I0J200000D01*
G01*
X125050000Y-88775000D01*
G75*
G02*
X125250000Y-88575000I200000J0D01*
G01*
X125650000Y-88575000D01*
G75*
G02*
X125850000Y-88775000I0J-200000D01*
G01*
G37*
%TD.AperFunction*%
%TD*%
D14*
%TO.P,I/O,1*%
%TO.N,GND*%
X175000000Y-97500000D03*
D13*
%TO.P,I/O,2*%
%TO.N,+5V*%
X172460000Y-97500000D03*
%TO.P,I/O,3*%
%TO.N,/ADC*%
X169920000Y-97500000D03*
%TO.P,I/O,4*%
%TO.N,/PIN_D8*%
X167380000Y-97500000D03*
%TO.P,I/O,5*%
%TO.N,/PIN_D7*%
X164840000Y-97500000D03*
%TD*%
%TO.P,C4,1*%
%TO.N,Net-(C4-Pad1)*%
%TA.AperFunction,SMDPad,CuDef*%
G36*
G01*
X123225000Y-81550000D02*
X123225000Y-82050000D01*
G75*
G02*
X123000000Y-82275000I-225000J0D01*
G01*
X122550000Y-82275000D01*
G75*
G02*
X122325000Y-82050000I0J225000D01*
G01*
X122325000Y-81550000D01*
G75*
G02*
X122550000Y-81325000I225000J0D01*
G01*
X123000000Y-81325000D01*
G75*
G02*
X123225000Y-81550000I0J-225000D01*
G01*
G37*
%TD.AperFunction*%
%TO.P,C4,2*%
%TO.N,GND*%
%TA.AperFunction,SMDPad,CuDef*%
G36*
G01*
X121675000Y-81550000D02*
X121675000Y-82050000D01*
G75*
G02*
X121450000Y-82275000I-225000J0D01*
G01*
X121000000Y-82275000D01*
G75*
G02*
X120775000Y-82050000I0J225000D01*
G01*
X120775000Y-81550000D01*
G75*
G02*
X121000000Y-81325000I225000J0D01*
G01*
X121450000Y-81325000D01*
G75*
G02*
X121675000Y-81550000I0J-225000D01*
G01*
G37*
%TD.AperFunction*%
%TD*%
%TO.P,C3,1*%
%TO.N,+5V*%
%TA.AperFunction,SMDPad,CuDef*%
G36*
G01*
X180374998Y-94362500D02*
X182225002Y-94362500D01*
G75*
G02*
X182475000Y-94612498I0J-249998D01*
G01*
X182475000Y-95437502D01*
G75*
G02*
X182225002Y-95687500I-249998J0D01*
G01*
X180374998Y-95687500D01*
G75*
G02*
X180125000Y-95437502I0J249998D01*
G01*
X180125000Y-94612498D01*
G75*
G02*
X180374998Y-94362500I249998J0D01*
G01*
G37*
%TD.AperFunction*%
%TO.P,C3,2*%
%TO.N,GND*%
%TA.AperFunction,SMDPad,CuDef*%
G36*
G01*
X180374998Y-97437500D02*
X182225002Y-97437500D01*
G75*
G02*
X182475000Y-97687498I0J-249998D01*
G01*
X182475000Y-98512502D01*
G75*
G02*
X182225002Y-98762500I-249998J0D01*
G01*
X180374998Y-98762500D01*
G75*
G02*
X180125000Y-98512502I0J249998D01*
G01*
X180125000Y-97687498D01*
G75*
G02*
X180374998Y-97437500I249998J0D01*
G01*
G37*
%TD.AperFunction*%
%TD*%
%TO.P,C2,1*%
%TO.N,+3V3*%
%TA.AperFunction,SMDPad,CuDef*%
G36*
G01*
X114425002Y-96500000D02*
X112574998Y-96500000D01*
G75*
G02*
X112325000Y-96250002I0J249998D01*
G01*
X112325000Y-95424998D01*
G75*
G02*
X112574998Y-95175000I249998J0D01*
G01*
X114425002Y-95175000D01*
G75*
G02*
X114675000Y-95424998I0J-249998D01*
G01*
X114675000Y-96250002D01*
G75*
G02*
X114425002Y-96500000I-249998J0D01*
G01*
G37*
%TD.AperFunction*%
%TO.P,C2,2*%
%TO.N,GND*%
%TA.AperFunction,SMDPad,CuDef*%
G36*
G01*
X114425002Y-93425000D02*
X112574998Y-93425000D01*
G75*
G02*
X112325000Y-93175002I0J249998D01*
G01*
X112325000Y-92349998D01*
G75*
G02*
X112574998Y-92100000I249998J0D01*
G01*
X114425002Y-92100000D01*
G75*
G02*
X114675000Y-92349998I0J-249998D01*
G01*
X114675000Y-93175002D01*
G75*
G02*
X114425002Y-93425000I-249998J0D01*
G01*
G37*
%TD.AperFunction*%
%TD*%
%TO.P,C1,1*%
%TO.N,+5V*%
%TA.AperFunction,SMDPad,CuDef*%
G36*
G01*
X127025002Y-96500000D02*
X125174998Y-96500000D01*
G75*
G02*
X124925000Y-96250002I0J249998D01*
G01*
X124925000Y-95424998D01*
G75*
G02*
X125174998Y-95175000I249998J0D01*
G01*
X127025002Y-95175000D01*
G75*
G02*
X127275000Y-95424998I0J-249998D01*
G01*
X127275000Y-96250002D01*
G75*
G02*
X127025002Y-96500000I-249998J0D01*
G01*
G37*
%TD.AperFunction*%
%TO.P,C1,2*%
%TO.N,GND*%
%TA.AperFunction,SMDPad,CuDef*%
G36*
G01*
X127025002Y-93425000D02*
X125174998Y-93425000D01*
G75*
G02*
X124925000Y-93175002I0J249998D01*
G01*
X124925000Y-92349998D01*
G75*
G02*
X125174998Y-92100000I249998J0D01*
G01*
X127025002Y-92100000D01*
G75*
G02*
X127275000Y-92349998I0J-249998D01*
G01*
X127275000Y-93175002D01*
G75*
G02*
X127025002Y-93425000I-249998J0D01*
G01*
G37*
%TD.AperFunction*%
%TD*%
D22*
%TO.N,GND*%
X172500000Y-85000000D03*
X174500000Y-85000000D03*
X173500000Y-85000000D03*
X167150000Y-85550000D03*
X115550000Y-86600000D03*
X108950000Y-97300000D03*
X112600000Y-91500000D03*
X154400000Y-81050000D03*
X183400000Y-98300000D03*
X186250000Y-98300000D03*
X176300000Y-98700000D03*
X128250000Y-92750000D03*
X115700000Y-98100000D03*
X120000000Y-81800000D03*
X143100000Y-90700000D03*
X144800000Y-90700000D03*
X144800000Y-89150000D03*
X143100000Y-89150000D03*
X191000000Y-88000000D03*
X191000000Y-89000000D03*
X191000000Y-90000000D03*
X191000000Y-91000000D03*
X131500000Y-87500000D03*
X132500000Y-87500000D03*
X133500000Y-87500000D03*
X134500000Y-87500000D03*
X122500000Y-94000000D03*
X114500000Y-89500000D03*
X115500000Y-89500000D03*
X133000000Y-95500000D03*
X134000000Y-95500000D03*
X135000000Y-95500000D03*
X178500000Y-97000000D03*
X178500000Y-98000000D03*
X168750000Y-82500000D03*
X183250000Y-82450000D03*
X160000000Y-83000000D03*
X174500000Y-83000000D03*
%TO.N,+5V*%
X126100000Y-97150000D03*
X109500000Y-92450000D03*
X109500000Y-87600000D03*
%TO.N,+3V3*%
X154600000Y-93700000D03*
X156600000Y-93100000D03*
%TO.N,/D_N*%
X115982929Y-85232927D03*
X114150000Y-85250000D03*
%TO.N,/PIN_D4*%
X149300000Y-85150000D03*
X153100000Y-85200000D03*
X154310349Y-86410349D03*
%TO.N,/PIN_D5*%
X150450000Y-92899998D03*
X147250000Y-95300004D03*
%TO.N,/PIN_D2*%
X151250000Y-87450000D03*
X154100000Y-90200000D03*
%TO.N,/PIN_D1*%
X153300000Y-91200000D03*
X150500000Y-88350000D03*
%TO.N,/PIN_D0*%
X152300000Y-95100000D03*
X145350000Y-96050000D03*
%TO.N,/PIN_D7*%
X154900000Y-98950000D03*
X152149998Y-98950000D03*
%TO.N,/PIN_D8*%
X151200000Y-84100000D03*
X156850000Y-96150000D03*
%TO.N,/ADC*%
X141200000Y-95950000D03*
X153900000Y-95525010D03*
%TO.N,Net-(R1-Pad1)*%
X141100000Y-92200000D03*
X143100000Y-94700000D03*
%TO.N,/nRST*%
X139150000Y-94650000D03*
X139149996Y-92850000D03*
%TO.N,/PIN_D6*%
X148700000Y-94600000D03*
X148700000Y-92900000D03*
X159100000Y-88700000D03*
X159200000Y-90100000D03*
%TD*%
D23*
%TO.N,GND*%
X107470000Y-86245000D02*
X106905000Y-85680000D01*
X107470000Y-86650000D02*
X107470000Y-86245000D01*
X107470000Y-93755000D02*
X106905000Y-94320000D01*
X107470000Y-93350000D02*
X107470000Y-93755000D01*
D24*
X121225000Y-81800000D02*
X120000000Y-81800000D01*
X113500000Y-92400000D02*
X112600000Y-91500000D01*
X113500000Y-92762500D02*
X113500000Y-92400000D01*
X116350000Y-97450000D02*
X115700000Y-98100000D01*
X117500000Y-97450000D02*
X116350000Y-97450000D01*
X107825000Y-97300000D02*
X108950000Y-97300000D01*
X128237500Y-92762500D02*
X128250000Y-92750000D01*
X126100000Y-92762500D02*
X128237500Y-92762500D01*
X115915000Y-86235000D02*
X115550000Y-86600000D01*
X117325000Y-86235000D02*
X115915000Y-86235000D01*
X153500000Y-81950000D02*
X154400000Y-81050000D01*
X153200000Y-81950000D02*
X153500000Y-81950000D01*
X175100000Y-97500000D02*
X176300000Y-98700000D01*
X175000000Y-97500000D02*
X175100000Y-97500000D01*
X183200000Y-98100000D02*
X183400000Y-98300000D01*
X181300000Y-98100000D02*
X183200000Y-98100000D01*
X187000000Y-97550000D02*
X186250000Y-98300000D01*
X187700000Y-97550000D02*
X187000000Y-97550000D01*
D23*
X107470000Y-93350000D02*
X107470000Y-93150009D01*
X107470000Y-86650000D02*
X107470000Y-86849991D01*
D24*
X182850000Y-82850000D02*
X183250000Y-82450000D01*
X181625000Y-82850000D02*
X182850000Y-82850000D01*
X168400000Y-82850000D02*
X168750000Y-82500000D01*
X167125000Y-82850000D02*
X168400000Y-82850000D01*
D25*
X166775000Y-82500000D02*
X167125000Y-82850000D01*
X162225000Y-82500000D02*
X166775000Y-82500000D01*
X161875000Y-82850000D02*
X162225000Y-82500000D01*
X176725000Y-82500000D02*
X181275000Y-82500000D01*
X181275000Y-82500000D02*
X181625000Y-82850000D01*
X176375000Y-82850000D02*
X176725000Y-82500000D01*
D24*
X167120000Y-85580000D02*
X167150000Y-85550000D01*
X165600000Y-85580000D02*
X167120000Y-85580000D01*
%TO.N,+5V*%
X123712500Y-95837500D02*
X122100000Y-97450000D01*
X126100000Y-95837500D02*
X123712500Y-95837500D01*
X126100000Y-95837500D02*
X126100000Y-97150000D01*
X109005026Y-92450000D02*
X109500000Y-92450000D01*
X107470000Y-92449999D02*
X109005026Y-92450000D01*
X109450001Y-87550001D02*
X109500000Y-87600000D01*
X107470000Y-87550001D02*
X109450001Y-87550001D01*
X187685000Y-95025000D02*
X187700000Y-95010000D01*
X181300000Y-95025000D02*
X187685000Y-95025000D01*
X172460000Y-96415000D02*
X172460000Y-97500000D01*
X173375000Y-95500000D02*
X172460000Y-96415000D01*
X180825000Y-95500000D02*
X173375000Y-95500000D01*
X181300000Y-95025000D02*
X180825000Y-95500000D01*
%TO.N,+3V3*%
X119800000Y-95850000D02*
X119800000Y-97450000D01*
X119000000Y-95050000D02*
X119800000Y-95850000D01*
X114287500Y-95050000D02*
X119000000Y-95050000D01*
X113500000Y-95837500D02*
X114287500Y-95050000D01*
X119800000Y-89980000D02*
X122275000Y-87505000D01*
X119800000Y-91150000D02*
X119800000Y-89980000D01*
X119000000Y-91950000D02*
X119800000Y-91150000D01*
X119000000Y-95050000D02*
X119000000Y-91950000D01*
X131900000Y-91000000D02*
X134700000Y-93800000D01*
X119950000Y-91000000D02*
X131900000Y-91000000D01*
X119800000Y-91150000D02*
X119950000Y-91000000D01*
X122275000Y-87505000D02*
X123905000Y-87505000D01*
X123905000Y-87505000D02*
X125450000Y-89050000D01*
X134700000Y-93800000D02*
X146850000Y-93800000D01*
X153200000Y-97200000D02*
X153200000Y-97950000D01*
X146850000Y-93800000D02*
X147200000Y-93800000D01*
X146850000Y-93800000D02*
X149800000Y-93800000D01*
X152300000Y-93700000D02*
X154600000Y-93700000D01*
X151000000Y-95000000D02*
X152300000Y-93700000D01*
X149800000Y-93800000D02*
X151000000Y-95000000D01*
X151000000Y-95000000D02*
X153200000Y-97200000D01*
X165125000Y-92725000D02*
X165600000Y-93200000D01*
X160700000Y-92725000D02*
X165125000Y-92725000D01*
X160675000Y-92750000D02*
X160700000Y-92725000D01*
X156950000Y-92750000D02*
X160675000Y-92750000D01*
X156600000Y-93100000D02*
X156950000Y-92750000D01*
%TO.N,Net-(C4-Pad1)*%
X122775000Y-83195000D02*
X122275000Y-83695000D01*
X122775000Y-81800000D02*
X122775000Y-83195000D01*
D25*
%TO.N,Net-(J1-PadA5)*%
X104500000Y-92500000D02*
X105250000Y-91750000D01*
X104500000Y-95625000D02*
X104500000Y-92500000D01*
X105250000Y-91750000D02*
X107470000Y-91750000D01*
X106175000Y-97300000D02*
X104500000Y-95625000D01*
X104500000Y-89400000D02*
X104500000Y-92500000D01*
X105150000Y-88750000D02*
X104500000Y-89400000D01*
X107470000Y-88750000D02*
X105150000Y-88750000D01*
%TO.N,/D_N*%
X106447500Y-90250000D02*
X107470000Y-90250000D01*
X106200000Y-90002500D02*
X106447500Y-90250000D01*
X106200000Y-89500000D02*
X106200000Y-90002500D01*
X106450000Y-89250000D02*
X106200000Y-89500000D01*
X107470000Y-89250000D02*
X106450000Y-89250000D01*
X116250856Y-84965000D02*
X117325000Y-84965000D01*
X115982929Y-85232927D02*
X116250856Y-84965000D01*
X114150000Y-85600000D02*
X114150000Y-85250000D01*
X110450000Y-89300000D02*
X114150000Y-85600000D01*
X107520000Y-89300000D02*
X110450000Y-89300000D01*
X107470000Y-89250000D02*
X107520000Y-89300000D01*
%TO.N,/D_P*%
X108250000Y-90750000D02*
X107470000Y-90750000D01*
X108500000Y-90500000D02*
X108250000Y-90750000D01*
X108500000Y-89955000D02*
X108500000Y-90500000D01*
X108295000Y-89750000D02*
X108500000Y-89955000D01*
X107470000Y-89750000D02*
X108295000Y-89750000D01*
X110581971Y-89750000D02*
X116636971Y-83695000D01*
X107470000Y-89750000D02*
X110581971Y-89750000D01*
X116636971Y-83695000D02*
X117325000Y-83695000D01*
%TO.N,/PIN_D4*%
X149200000Y-85050000D02*
X149300000Y-85150000D01*
X149200000Y-81950000D02*
X149200000Y-85050000D01*
X153050000Y-85150000D02*
X153100000Y-85200000D01*
X149300000Y-85150000D02*
X153050000Y-85150000D01*
X187590000Y-82310000D02*
X187700000Y-82310000D01*
X183139652Y-86760348D02*
X187590000Y-82310000D01*
X154660348Y-86760348D02*
X183139652Y-86760348D01*
X154310349Y-86410349D02*
X154660348Y-86760348D01*
%TO.N,/PIN_D5*%
X147200000Y-97950000D02*
X147200000Y-95350004D01*
X147200000Y-95350004D02*
X147250000Y-95300004D01*
X153949998Y-89400000D02*
X150450000Y-92899998D01*
X183150000Y-89400000D02*
X153949998Y-89400000D01*
X187700000Y-84850000D02*
X183150000Y-89400000D01*
%TO.N,/PIN_D2*%
X145200000Y-83500000D02*
X145200000Y-81950000D01*
X149150000Y-87450000D02*
X145200000Y-83500000D01*
X151250000Y-87450000D02*
X149150000Y-87450000D01*
X155800000Y-91900000D02*
X154100000Y-90200000D01*
X183190000Y-91900000D02*
X155800000Y-91900000D01*
X187700000Y-87390000D02*
X183190000Y-91900000D01*
%TO.N,/PIN_D1*%
X143200000Y-82750000D02*
X143200000Y-81950000D01*
X148800000Y-88350000D02*
X143200000Y-82750000D01*
X150500000Y-88350000D02*
X148800000Y-88350000D01*
X156045001Y-93945001D02*
X153300000Y-91200000D01*
X177962500Y-94500000D02*
X156600000Y-94500000D01*
X184630000Y-93000000D02*
X179462500Y-93000000D01*
X179462500Y-93000000D02*
X177962500Y-94500000D01*
X156600000Y-94500000D02*
X156045001Y-93945001D01*
X187700000Y-89930000D02*
X184630000Y-93000000D01*
%TO.N,/PIN_D0*%
X145200000Y-97950000D02*
X145200000Y-96200000D01*
X145200000Y-96200000D02*
X145350000Y-96050000D01*
X152500000Y-94900000D02*
X152300000Y-95100000D01*
X178128200Y-94900000D02*
X152500000Y-94900000D01*
X179628200Y-93400000D02*
X178128200Y-94900000D01*
X186770000Y-93400000D02*
X179628200Y-93400000D01*
X187700000Y-92470000D02*
X186770000Y-93400000D01*
%TO.N,/PIN_D7*%
X164840000Y-97500000D02*
X156350000Y-97500000D01*
X156350000Y-97500000D02*
X154900000Y-98950000D01*
X152149998Y-98899998D02*
X151200000Y-97950000D01*
X152149998Y-98950000D02*
X152149998Y-98899998D01*
%TO.N,/PIN_D8*%
X151200000Y-84100000D02*
X151200000Y-81950000D01*
X165780000Y-95900000D02*
X167380000Y-97500000D01*
X157100000Y-95900000D02*
X165780000Y-95900000D01*
X156850000Y-96150000D02*
X157100000Y-95900000D01*
%TO.N,/ADC*%
X141200000Y-95950000D02*
X141200000Y-97950000D01*
X154025010Y-95400000D02*
X153900000Y-95525010D01*
X167820000Y-95400000D02*
X154025010Y-95400000D01*
X169920000Y-97500000D02*
X167820000Y-95400000D01*
D26*
%TO.N,Net-(R1-Pad1)*%
X143150000Y-97900000D02*
X143200000Y-97950000D01*
D25*
X137950000Y-89050000D02*
X141100000Y-92200000D01*
X127100000Y-89050000D02*
X137950000Y-89050000D01*
X143100000Y-97850000D02*
X143200000Y-97950000D01*
X143100000Y-94700000D02*
X143100000Y-97850000D01*
%TO.N,Net-(R3-Pad2)*%
X176025000Y-81500000D02*
X176375000Y-81150000D01*
X173725000Y-81500000D02*
X176025000Y-81500000D01*
X181275000Y-81500000D02*
X181625000Y-81150000D01*
X176725000Y-81500000D02*
X181275000Y-81500000D01*
X176375000Y-81150000D02*
X176725000Y-81500000D01*
%TO.N,/nRST*%
X139150000Y-97900000D02*
X139200000Y-97950000D01*
X139150000Y-94650000D02*
X139150000Y-97900000D01*
X146986814Y-92850000D02*
X139149996Y-92850000D01*
X155586814Y-84250000D02*
X146986814Y-92850000D01*
X168662500Y-84250000D02*
X155586814Y-84250000D01*
X171412500Y-81500000D02*
X168662500Y-84250000D01*
X172075000Y-81500000D02*
X171412500Y-81500000D01*
%TO.N,Net-(R4-Pad2)*%
X161475000Y-81550000D02*
X161875000Y-81150000D01*
X159325000Y-81550000D02*
X161475000Y-81550000D01*
X167000002Y-81550000D02*
X167275001Y-81275001D01*
X162275000Y-81550000D02*
X167000002Y-81550000D01*
X161875000Y-81150000D02*
X162275000Y-81550000D01*
%TO.N,/GPIO0*%
X147200000Y-84250000D02*
X147200000Y-81950000D01*
X149000000Y-86050000D02*
X147200000Y-84250000D01*
X153175000Y-86050000D02*
X149000000Y-86050000D01*
X157675000Y-81550000D02*
X153175000Y-86050000D01*
%TO.N,/PIN_D6*%
X149200000Y-95100000D02*
X148700000Y-94600000D01*
X149200000Y-97950000D02*
X149200000Y-95100000D01*
X152800000Y-88700000D02*
X159100000Y-88700000D01*
X148700000Y-92800000D02*
X152800000Y-88700000D01*
X148700000Y-92900000D02*
X148700000Y-92800000D01*
X159725000Y-90100000D02*
X160700000Y-91075000D01*
X159200000Y-90100000D02*
X159725000Y-90100000D01*
X165185000Y-91075000D02*
X165600000Y-90660000D01*
X160700000Y-91075000D02*
X165185000Y-91075000D01*
%TO.N,/TXD0*%
X137600000Y-85400000D02*
X122710000Y-85400000D01*
X139200000Y-83800000D02*
X137600000Y-85400000D01*
X139200000Y-81950000D02*
X139200000Y-83800000D01*
X122710000Y-85400000D02*
X122275000Y-84965000D01*
%TO.N,/RXD0*%
X141200000Y-82400000D02*
X141200000Y-81950000D01*
X137800000Y-85800000D02*
X141200000Y-82400000D01*
X122710000Y-85800000D02*
X137800000Y-85800000D01*
X122275000Y-86235000D02*
X122710000Y-85800000D01*
%TD*%
D27*
%TO.N,GND*%
X189506772Y-80951853D02*
X189379754Y-81258504D01*
X189315000Y-81584042D01*
X189315000Y-81915958D01*
X189379754Y-82241496D01*
X189506772Y-82548147D01*
X189691175Y-82824125D01*
X189925875Y-83058825D01*
X190201853Y-83243228D01*
X190508504Y-83370246D01*
X190834042Y-83435000D01*
X191165958Y-83435000D01*
X191491496Y-83370246D01*
X191798147Y-83243228D01*
X192074125Y-83058825D01*
X192290001Y-82842949D01*
X192290000Y-97157050D01*
X192074125Y-96941175D01*
X191798147Y-96756772D01*
X191491496Y-96629754D01*
X191165958Y-96565000D01*
X190834042Y-96565000D01*
X190508504Y-96629754D01*
X190201853Y-96756772D01*
X189925875Y-96941175D01*
X189691175Y-97175875D01*
X189506772Y-97451853D01*
X189379754Y-97758504D01*
X189315000Y-98084042D01*
X189315000Y-98415958D01*
X189379754Y-98741496D01*
X189506772Y-99048147D01*
X189668373Y-99290000D01*
X182833195Y-99290000D01*
X182926185Y-99213685D01*
X183005537Y-99116994D01*
X183064502Y-99006680D01*
X183100812Y-98886982D01*
X183113072Y-98762500D01*
X183110117Y-98400000D01*
X186211928Y-98400000D01*
X186224188Y-98524482D01*
X186260498Y-98644180D01*
X186319463Y-98754494D01*
X186398815Y-98851185D01*
X186495506Y-98930537D01*
X186605820Y-98989502D01*
X186725518Y-99025812D01*
X186850000Y-99038072D01*
X187414250Y-99035000D01*
X187573000Y-98876250D01*
X187573000Y-97677000D01*
X187827000Y-97677000D01*
X187827000Y-98876250D01*
X187985750Y-99035000D01*
X188550000Y-99038072D01*
X188674482Y-99025812D01*
X188794180Y-98989502D01*
X188904494Y-98930537D01*
X189001185Y-98851185D01*
X189080537Y-98754494D01*
X189139502Y-98644180D01*
X189175812Y-98524482D01*
X189188072Y-98400000D01*
X189185000Y-97835750D01*
X189026250Y-97677000D01*
X187827000Y-97677000D01*
X187573000Y-97677000D01*
X186373750Y-97677000D01*
X186215000Y-97835750D01*
X186211928Y-98400000D01*
X183110117Y-98400000D01*
X183110000Y-98385750D01*
X182951250Y-98227000D01*
X181427000Y-98227000D01*
X181427000Y-98247000D01*
X181173000Y-98247000D01*
X181173000Y-98227000D01*
X179648750Y-98227000D01*
X179490000Y-98385750D01*
X179486928Y-98762500D01*
X179499188Y-98886982D01*
X179535498Y-99006680D01*
X179594463Y-99116994D01*
X179673815Y-99213685D01*
X179766805Y-99290000D01*
X155825324Y-99290000D01*
X155847147Y-99237314D01*
X155885000Y-99047014D01*
X155885000Y-99039801D01*
X156664802Y-98260000D01*
X163561822Y-98260000D01*
X163686525Y-98446632D01*
X163893368Y-98653475D01*
X164136589Y-98815990D01*
X164406842Y-98927932D01*
X164693740Y-98985000D01*
X164986260Y-98985000D01*
X165273158Y-98927932D01*
X165543411Y-98815990D01*
X165786632Y-98653475D01*
X165993475Y-98446632D01*
X166110000Y-98272240D01*
X166226525Y-98446632D01*
X166433368Y-98653475D01*
X166676589Y-98815990D01*
X166946842Y-98927932D01*
X167233740Y-98985000D01*
X167526260Y-98985000D01*
X167813158Y-98927932D01*
X168083411Y-98815990D01*
X168326632Y-98653475D01*
X168533475Y-98446632D01*
X168650000Y-98272240D01*
X168766525Y-98446632D01*
X168973368Y-98653475D01*
X169216589Y-98815990D01*
X169486842Y-98927932D01*
X169773740Y-98985000D01*
X170066260Y-98985000D01*
X170353158Y-98927932D01*
X170623411Y-98815990D01*
X170866632Y-98653475D01*
X171073475Y-98446632D01*
X171190000Y-98272240D01*
X171306525Y-98446632D01*
X171513368Y-98653475D01*
X171756589Y-98815990D01*
X172026842Y-98927932D01*
X172313740Y-98985000D01*
X172606260Y-98985000D01*
X172893158Y-98927932D01*
X173163411Y-98815990D01*
X173406632Y-98653475D01*
X173538487Y-98521620D01*
X173560498Y-98594180D01*
X173619463Y-98704494D01*
X173698815Y-98801185D01*
X173795506Y-98880537D01*
X173905820Y-98939502D01*
X174025518Y-98975812D01*
X174150000Y-98988072D01*
X174714250Y-98985000D01*
X174873000Y-98826250D01*
X174873000Y-97627000D01*
X175127000Y-97627000D01*
X175127000Y-98826250D01*
X175285750Y-98985000D01*
X175850000Y-98988072D01*
X175974482Y-98975812D01*
X176094180Y-98939502D01*
X176204494Y-98880537D01*
X176301185Y-98801185D01*
X176380537Y-98704494D01*
X176439502Y-98594180D01*
X176475812Y-98474482D01*
X176488072Y-98350000D01*
X176485000Y-97785750D01*
X176326250Y-97627000D01*
X175127000Y-97627000D01*
X174873000Y-97627000D01*
X174853000Y-97627000D01*
X174853000Y-97437500D01*
X179486928Y-97437500D01*
X179490000Y-97814250D01*
X179648750Y-97973000D01*
X181173000Y-97973000D01*
X181173000Y-96961250D01*
X181427000Y-96961250D01*
X181427000Y-97973000D01*
X182951250Y-97973000D01*
X183110000Y-97814250D01*
X183113072Y-97437500D01*
X183100812Y-97313018D01*
X183064502Y-97193320D01*
X183005537Y-97083006D01*
X182926185Y-96986315D01*
X182829494Y-96906963D01*
X182719180Y-96847998D01*
X182599482Y-96811688D01*
X182475000Y-96799428D01*
X181585750Y-96802500D01*
X181427000Y-96961250D01*
X181173000Y-96961250D01*
X181014250Y-96802500D01*
X180125000Y-96799428D01*
X180000518Y-96811688D01*
X179880820Y-96847998D01*
X179770506Y-96906963D01*
X179673815Y-96986315D01*
X179594463Y-97083006D01*
X179535498Y-97193320D01*
X179499188Y-97313018D01*
X179486928Y-97437500D01*
X174853000Y-97437500D01*
X174853000Y-97373000D01*
X174873000Y-97373000D01*
X174873000Y-97353000D01*
X175127000Y-97353000D01*
X175127000Y-97373000D01*
X176326250Y-97373000D01*
X176485000Y-97214250D01*
X176488072Y-96650000D01*
X176475812Y-96525518D01*
X176448354Y-96435000D01*
X180779068Y-96435000D01*
X180825000Y-96439524D01*
X180870932Y-96435000D01*
X181008292Y-96421471D01*
X181184540Y-96368007D01*
X181263931Y-96325572D01*
X182225002Y-96325572D01*
X182398256Y-96308508D01*
X182564852Y-96257972D01*
X182718387Y-96175905D01*
X182852962Y-96065462D01*
X182939513Y-95960000D01*
X186549893Y-95960000D01*
X186678380Y-96088487D01*
X186605820Y-96110498D01*
X186495506Y-96169463D01*
X186398815Y-96248815D01*
X186319463Y-96345506D01*
X186260498Y-96455820D01*
X186224188Y-96575518D01*
X186211928Y-96700000D01*
X186215000Y-97264250D01*
X186373750Y-97423000D01*
X187573000Y-97423000D01*
X187573000Y-97403000D01*
X187827000Y-97403000D01*
X187827000Y-97423000D01*
X189026250Y-97423000D01*
X189185000Y-97264250D01*
X189188072Y-96700000D01*
X189175812Y-96575518D01*
X189139502Y-96455820D01*
X189080537Y-96345506D01*
X189001185Y-96248815D01*
X188904494Y-96169463D01*
X188794180Y-96110498D01*
X188721620Y-96088487D01*
X188853475Y-95956632D01*
X189015990Y-95713411D01*
X189127932Y-95443158D01*
X189185000Y-95156260D01*
X189185000Y-94863740D01*
X189127932Y-94576842D01*
X189015990Y-94306589D01*
X188853475Y-94063368D01*
X188646632Y-93856525D01*
X188472240Y-93740000D01*
X188646632Y-93623475D01*
X188853475Y-93416632D01*
X189015990Y-93173411D01*
X189127932Y-92903158D01*
X189185000Y-92616260D01*
X189185000Y-92323740D01*
X189127932Y-92036842D01*
X189015990Y-91766589D01*
X188853475Y-91523368D01*
X188646632Y-91316525D01*
X188472240Y-91200000D01*
X188646632Y-91083475D01*
X188853475Y-90876632D01*
X189015990Y-90633411D01*
X189127932Y-90363158D01*
X189185000Y-90076260D01*
X189185000Y-89783740D01*
X189127932Y-89496842D01*
X189015990Y-89226589D01*
X188853475Y-88983368D01*
X188646632Y-88776525D01*
X188472240Y-88660000D01*
X188646632Y-88543475D01*
X188853475Y-88336632D01*
X189015990Y-88093411D01*
X189127932Y-87823158D01*
X189185000Y-87536260D01*
X189185000Y-87243740D01*
X189127932Y-86956842D01*
X189015990Y-86686589D01*
X188853475Y-86443368D01*
X188646632Y-86236525D01*
X188472240Y-86120000D01*
X188646632Y-86003475D01*
X188853475Y-85796632D01*
X189015990Y-85553411D01*
X189127932Y-85283158D01*
X189185000Y-84996260D01*
X189185000Y-84703740D01*
X189127932Y-84416842D01*
X189015990Y-84146589D01*
X188853475Y-83903368D01*
X188646632Y-83696525D01*
X188472240Y-83580000D01*
X188646632Y-83463475D01*
X188853475Y-83256632D01*
X189015990Y-83013411D01*
X189127932Y-82743158D01*
X189185000Y-82456260D01*
X189185000Y-82163740D01*
X189127932Y-81876842D01*
X189015990Y-81606589D01*
X188853475Y-81363368D01*
X188646632Y-81156525D01*
X188403411Y-80994010D01*
X188133158Y-80882068D01*
X187846260Y-80825000D01*
X187553740Y-80825000D01*
X187266842Y-80882068D01*
X186996589Y-80994010D01*
X186753368Y-81156525D01*
X186546525Y-81363368D01*
X186384010Y-81606589D01*
X186272068Y-81876842D01*
X186215000Y-82163740D01*
X186215000Y-82456260D01*
X186240540Y-82584657D01*
X182824851Y-86000348D01*
X166922773Y-86000348D01*
X166977250Y-85780040D01*
X166989812Y-85507508D01*
X166948965Y-85237762D01*
X166866692Y-85010000D01*
X168625178Y-85010000D01*
X168662500Y-85013676D01*
X168699822Y-85010000D01*
X168699833Y-85010000D01*
X168811486Y-84999003D01*
X168954747Y-84955546D01*
X169086776Y-84884974D01*
X169202501Y-84790001D01*
X169226304Y-84760997D01*
X170637301Y-83350000D01*
X174961928Y-83350000D01*
X174974188Y-83474482D01*
X175010498Y-83594180D01*
X175069463Y-83704494D01*
X175148815Y-83801185D01*
X175245506Y-83880537D01*
X175355820Y-83939502D01*
X175475518Y-83975812D01*
X175600000Y-83988072D01*
X176089250Y-83985000D01*
X176248000Y-83826250D01*
X176248000Y-82977000D01*
X176502000Y-82977000D01*
X176502000Y-83826250D01*
X176660750Y-83985000D01*
X177150000Y-83988072D01*
X177274482Y-83975812D01*
X177394180Y-83939502D01*
X177504494Y-83880537D01*
X177601185Y-83801185D01*
X177680537Y-83704494D01*
X177739502Y-83594180D01*
X177775812Y-83474482D01*
X177788072Y-83350000D01*
X177787005Y-83275524D01*
X177990000Y-83275524D01*
X177990000Y-83474476D01*
X178028814Y-83669606D01*
X178104950Y-83853414D01*
X178215482Y-84018837D01*
X178356163Y-84159518D01*
X178521586Y-84270050D01*
X178705394Y-84346186D01*
X178900524Y-84385000D01*
X179099476Y-84385000D01*
X179294606Y-84346186D01*
X179478414Y-84270050D01*
X179643837Y-84159518D01*
X179784518Y-84018837D01*
X179895050Y-83853414D01*
X179971186Y-83669606D01*
X180010000Y-83474476D01*
X180010000Y-83350000D01*
X180211928Y-83350000D01*
X180224188Y-83474482D01*
X180260498Y-83594180D01*
X180319463Y-83704494D01*
X180398815Y-83801185D01*
X180495506Y-83880537D01*
X180605820Y-83939502D01*
X180725518Y-83975812D01*
X180850000Y-83988072D01*
X181339250Y-83985000D01*
X181498000Y-83826250D01*
X181498000Y-82977000D01*
X181752000Y-82977000D01*
X181752000Y-83826250D01*
X181910750Y-83985000D01*
X182400000Y-83988072D01*
X182524482Y-83975812D01*
X182644180Y-83939502D01*
X182754494Y-83880537D01*
X182851185Y-83801185D01*
X182930537Y-83704494D01*
X182989502Y-83594180D01*
X183025812Y-83474482D01*
X183038072Y-83350000D01*
X183035000Y-83135750D01*
X182876250Y-82977000D01*
X181752000Y-82977000D01*
X181498000Y-82977000D01*
X180373750Y-82977000D01*
X180215000Y-83135750D01*
X180211928Y-83350000D01*
X180010000Y-83350000D01*
X180010000Y-83275524D01*
X179971186Y-83080394D01*
X179895050Y-82896586D01*
X179784518Y-82731163D01*
X179643837Y-82590482D01*
X179478414Y-82479950D01*
X179294606Y-82403814D01*
X179099476Y-82365000D01*
X178900524Y-82365000D01*
X178705394Y-82403814D01*
X178521586Y-82479950D01*
X178356163Y-82590482D01*
X178215482Y-82731163D01*
X178104950Y-82896586D01*
X178028814Y-83080394D01*
X177990000Y-83275524D01*
X177787005Y-83275524D01*
X177785000Y-83135750D01*
X177626250Y-82977000D01*
X176502000Y-82977000D01*
X176248000Y-82977000D01*
X175123750Y-82977000D01*
X174965000Y-83135750D01*
X174961928Y-83350000D01*
X170637301Y-83350000D01*
X171478521Y-82508781D01*
X171554284Y-82549278D01*
X171711500Y-82596969D01*
X171875000Y-82613072D01*
X172275000Y-82613072D01*
X172438500Y-82596969D01*
X172595716Y-82549278D01*
X172740608Y-82471831D01*
X172867606Y-82367606D01*
X172900000Y-82328134D01*
X172932394Y-82367606D01*
X173059392Y-82471831D01*
X173204284Y-82549278D01*
X173361500Y-82596969D01*
X173525000Y-82613072D01*
X173925000Y-82613072D01*
X174088500Y-82596969D01*
X174245716Y-82549278D01*
X174390608Y-82471831D01*
X174517606Y-82367606D01*
X174605916Y-82260000D01*
X174970792Y-82260000D01*
X174961928Y-82350000D01*
X174965000Y-82564250D01*
X175123750Y-82723000D01*
X176248000Y-82723000D01*
X176248000Y-82703000D01*
X176502000Y-82703000D01*
X176502000Y-82723000D01*
X177626250Y-82723000D01*
X177785000Y-82564250D01*
X177788072Y-82350000D01*
X177779208Y-82260000D01*
X180220792Y-82260000D01*
X180211928Y-82350000D01*
X180215000Y-82564250D01*
X180373750Y-82723000D01*
X181498000Y-82723000D01*
X181498000Y-82703000D01*
X181752000Y-82703000D01*
X181752000Y-82723000D01*
X182876250Y-82723000D01*
X183035000Y-82564250D01*
X183038072Y-82350000D01*
X183025812Y-82225518D01*
X182989502Y-82105820D01*
X182932939Y-82000000D01*
X182989502Y-81894180D01*
X183025812Y-81774482D01*
X183038072Y-81650000D01*
X183038072Y-80710000D01*
X189668373Y-80710000D01*
X189506772Y-80951853D01*
%TA.AperFunction,Conductor*%
D28*
G36*
X189506772Y-80951853D02*
G01*
X189379754Y-81258504D01*
X189315000Y-81584042D01*
X189315000Y-81915958D01*
X189379754Y-82241496D01*
X189506772Y-82548147D01*
X189691175Y-82824125D01*
X189925875Y-83058825D01*
X190201853Y-83243228D01*
X190508504Y-83370246D01*
X190834042Y-83435000D01*
X191165958Y-83435000D01*
X191491496Y-83370246D01*
X191798147Y-83243228D01*
X192074125Y-83058825D01*
X192290001Y-82842949D01*
X192290000Y-97157050D01*
X192074125Y-96941175D01*
X191798147Y-96756772D01*
X191491496Y-96629754D01*
X191165958Y-96565000D01*
X190834042Y-96565000D01*
X190508504Y-96629754D01*
X190201853Y-96756772D01*
X189925875Y-96941175D01*
X189691175Y-97175875D01*
X189506772Y-97451853D01*
X189379754Y-97758504D01*
X189315000Y-98084042D01*
X189315000Y-98415958D01*
X189379754Y-98741496D01*
X189506772Y-99048147D01*
X189668373Y-99290000D01*
X182833195Y-99290000D01*
X182926185Y-99213685D01*
X183005537Y-99116994D01*
X183064502Y-99006680D01*
X183100812Y-98886982D01*
X183113072Y-98762500D01*
X183110117Y-98400000D01*
X186211928Y-98400000D01*
X186224188Y-98524482D01*
X186260498Y-98644180D01*
X186319463Y-98754494D01*
X186398815Y-98851185D01*
X186495506Y-98930537D01*
X186605820Y-98989502D01*
X186725518Y-99025812D01*
X186850000Y-99038072D01*
X187414250Y-99035000D01*
X187573000Y-98876250D01*
X187573000Y-97677000D01*
X187827000Y-97677000D01*
X187827000Y-98876250D01*
X187985750Y-99035000D01*
X188550000Y-99038072D01*
X188674482Y-99025812D01*
X188794180Y-98989502D01*
X188904494Y-98930537D01*
X189001185Y-98851185D01*
X189080537Y-98754494D01*
X189139502Y-98644180D01*
X189175812Y-98524482D01*
X189188072Y-98400000D01*
X189185000Y-97835750D01*
X189026250Y-97677000D01*
X187827000Y-97677000D01*
X187573000Y-97677000D01*
X186373750Y-97677000D01*
X186215000Y-97835750D01*
X186211928Y-98400000D01*
X183110117Y-98400000D01*
X183110000Y-98385750D01*
X182951250Y-98227000D01*
X181427000Y-98227000D01*
X181427000Y-98247000D01*
X181173000Y-98247000D01*
X181173000Y-98227000D01*
X179648750Y-98227000D01*
X179490000Y-98385750D01*
X179486928Y-98762500D01*
X179499188Y-98886982D01*
X179535498Y-99006680D01*
X179594463Y-99116994D01*
X179673815Y-99213685D01*
X179766805Y-99290000D01*
X155825324Y-99290000D01*
X155847147Y-99237314D01*
X155885000Y-99047014D01*
X155885000Y-99039801D01*
X156664802Y-98260000D01*
X163561822Y-98260000D01*
X163686525Y-98446632D01*
X163893368Y-98653475D01*
X164136589Y-98815990D01*
X164406842Y-98927932D01*
X164693740Y-98985000D01*
X164986260Y-98985000D01*
X165273158Y-98927932D01*
X165543411Y-98815990D01*
X165786632Y-98653475D01*
X165993475Y-98446632D01*
X166110000Y-98272240D01*
X166226525Y-98446632D01*
X166433368Y-98653475D01*
X166676589Y-98815990D01*
X166946842Y-98927932D01*
X167233740Y-98985000D01*
X167526260Y-98985000D01*
X167813158Y-98927932D01*
X168083411Y-98815990D01*
X168326632Y-98653475D01*
X168533475Y-98446632D01*
X168650000Y-98272240D01*
X168766525Y-98446632D01*
X168973368Y-98653475D01*
X169216589Y-98815990D01*
X169486842Y-98927932D01*
X169773740Y-98985000D01*
X170066260Y-98985000D01*
X170353158Y-98927932D01*
X170623411Y-98815990D01*
X170866632Y-98653475D01*
X171073475Y-98446632D01*
X171190000Y-98272240D01*
X171306525Y-98446632D01*
X171513368Y-98653475D01*
X171756589Y-98815990D01*
X172026842Y-98927932D01*
X172313740Y-98985000D01*
X172606260Y-98985000D01*
X172893158Y-98927932D01*
X173163411Y-98815990D01*
X173406632Y-98653475D01*
X173538487Y-98521620D01*
X173560498Y-98594180D01*
X173619463Y-98704494D01*
X173698815Y-98801185D01*
X173795506Y-98880537D01*
X173905820Y-98939502D01*
X174025518Y-98975812D01*
X174150000Y-98988072D01*
X174714250Y-98985000D01*
X174873000Y-98826250D01*
X174873000Y-97627000D01*
X175127000Y-97627000D01*
X175127000Y-98826250D01*
X175285750Y-98985000D01*
X175850000Y-98988072D01*
X175974482Y-98975812D01*
X176094180Y-98939502D01*
X176204494Y-98880537D01*
X176301185Y-98801185D01*
X176380537Y-98704494D01*
X176439502Y-98594180D01*
X176475812Y-98474482D01*
X176488072Y-98350000D01*
X176485000Y-97785750D01*
X176326250Y-97627000D01*
X175127000Y-97627000D01*
X174873000Y-97627000D01*
X174853000Y-97627000D01*
X174853000Y-97437500D01*
X179486928Y-97437500D01*
X179490000Y-97814250D01*
X179648750Y-97973000D01*
X181173000Y-97973000D01*
X181173000Y-96961250D01*
X181427000Y-96961250D01*
X181427000Y-97973000D01*
X182951250Y-97973000D01*
X183110000Y-97814250D01*
X183113072Y-97437500D01*
X183100812Y-97313018D01*
X183064502Y-97193320D01*
X183005537Y-97083006D01*
X182926185Y-96986315D01*
X182829494Y-96906963D01*
X182719180Y-96847998D01*
X182599482Y-96811688D01*
X182475000Y-96799428D01*
X181585750Y-96802500D01*
X181427000Y-96961250D01*
X181173000Y-96961250D01*
X181014250Y-96802500D01*
X180125000Y-96799428D01*
X180000518Y-96811688D01*
X179880820Y-96847998D01*
X179770506Y-96906963D01*
X179673815Y-96986315D01*
X179594463Y-97083006D01*
X179535498Y-97193320D01*
X179499188Y-97313018D01*
X179486928Y-97437500D01*
X174853000Y-97437500D01*
X174853000Y-97373000D01*
X174873000Y-97373000D01*
X174873000Y-97353000D01*
X175127000Y-97353000D01*
X175127000Y-97373000D01*
X176326250Y-97373000D01*
X176485000Y-97214250D01*
X176488072Y-96650000D01*
X176475812Y-96525518D01*
X176448354Y-96435000D01*
X180779068Y-96435000D01*
X180825000Y-96439524D01*
X180870932Y-96435000D01*
X181008292Y-96421471D01*
X181184540Y-96368007D01*
X181263931Y-96325572D01*
X182225002Y-96325572D01*
X182398256Y-96308508D01*
X182564852Y-96257972D01*
X182718387Y-96175905D01*
X182852962Y-96065462D01*
X182939513Y-95960000D01*
X186549893Y-95960000D01*
X186678380Y-96088487D01*
X186605820Y-96110498D01*
X186495506Y-96169463D01*
X186398815Y-96248815D01*
X186319463Y-96345506D01*
X186260498Y-96455820D01*
X186224188Y-96575518D01*
X186211928Y-96700000D01*
X186215000Y-97264250D01*
X186373750Y-97423000D01*
X187573000Y-97423000D01*
X187573000Y-97403000D01*
X187827000Y-97403000D01*
X187827000Y-97423000D01*
X189026250Y-97423000D01*
X189185000Y-97264250D01*
X189188072Y-96700000D01*
X189175812Y-96575518D01*
X189139502Y-96455820D01*
X189080537Y-96345506D01*
X189001185Y-96248815D01*
X188904494Y-96169463D01*
X188794180Y-96110498D01*
X188721620Y-96088487D01*
X188853475Y-95956632D01*
X189015990Y-95713411D01*
X189127932Y-95443158D01*
X189185000Y-95156260D01*
X189185000Y-94863740D01*
X189127932Y-94576842D01*
X189015990Y-94306589D01*
X188853475Y-94063368D01*
X188646632Y-93856525D01*
X188472240Y-93740000D01*
X188646632Y-93623475D01*
X188853475Y-93416632D01*
X189015990Y-93173411D01*
X189127932Y-92903158D01*
X189185000Y-92616260D01*
X189185000Y-92323740D01*
X189127932Y-92036842D01*
X189015990Y-91766589D01*
X188853475Y-91523368D01*
X188646632Y-91316525D01*
X188472240Y-91200000D01*
X188646632Y-91083475D01*
X188853475Y-90876632D01*
X189015990Y-90633411D01*
X189127932Y-90363158D01*
X189185000Y-90076260D01*
X189185000Y-89783740D01*
X189127932Y-89496842D01*
X189015990Y-89226589D01*
X188853475Y-88983368D01*
X188646632Y-88776525D01*
X188472240Y-88660000D01*
X188646632Y-88543475D01*
X188853475Y-88336632D01*
X189015990Y-88093411D01*
X189127932Y-87823158D01*
X189185000Y-87536260D01*
X189185000Y-87243740D01*
X189127932Y-86956842D01*
X189015990Y-86686589D01*
X188853475Y-86443368D01*
X188646632Y-86236525D01*
X188472240Y-86120000D01*
X188646632Y-86003475D01*
X188853475Y-85796632D01*
X189015990Y-85553411D01*
X189127932Y-85283158D01*
X189185000Y-84996260D01*
X189185000Y-84703740D01*
X189127932Y-84416842D01*
X189015990Y-84146589D01*
X188853475Y-83903368D01*
X188646632Y-83696525D01*
X188472240Y-83580000D01*
X188646632Y-83463475D01*
X188853475Y-83256632D01*
X189015990Y-83013411D01*
X189127932Y-82743158D01*
X189185000Y-82456260D01*
X189185000Y-82163740D01*
X189127932Y-81876842D01*
X189015990Y-81606589D01*
X188853475Y-81363368D01*
X188646632Y-81156525D01*
X188403411Y-80994010D01*
X188133158Y-80882068D01*
X187846260Y-80825000D01*
X187553740Y-80825000D01*
X187266842Y-80882068D01*
X186996589Y-80994010D01*
X186753368Y-81156525D01*
X186546525Y-81363368D01*
X186384010Y-81606589D01*
X186272068Y-81876842D01*
X186215000Y-82163740D01*
X186215000Y-82456260D01*
X186240540Y-82584657D01*
X182824851Y-86000348D01*
X166922773Y-86000348D01*
X166977250Y-85780040D01*
X166989812Y-85507508D01*
X166948965Y-85237762D01*
X166866692Y-85010000D01*
X168625178Y-85010000D01*
X168662500Y-85013676D01*
X168699822Y-85010000D01*
X168699833Y-85010000D01*
X168811486Y-84999003D01*
X168954747Y-84955546D01*
X169086776Y-84884974D01*
X169202501Y-84790001D01*
X169226304Y-84760997D01*
X170637301Y-83350000D01*
X174961928Y-83350000D01*
X174974188Y-83474482D01*
X175010498Y-83594180D01*
X175069463Y-83704494D01*
X175148815Y-83801185D01*
X175245506Y-83880537D01*
X175355820Y-83939502D01*
X175475518Y-83975812D01*
X175600000Y-83988072D01*
X176089250Y-83985000D01*
X176248000Y-83826250D01*
X176248000Y-82977000D01*
X176502000Y-82977000D01*
X176502000Y-83826250D01*
X176660750Y-83985000D01*
X177150000Y-83988072D01*
X177274482Y-83975812D01*
X177394180Y-83939502D01*
X177504494Y-83880537D01*
X177601185Y-83801185D01*
X177680537Y-83704494D01*
X177739502Y-83594180D01*
X177775812Y-83474482D01*
X177788072Y-83350000D01*
X177787005Y-83275524D01*
X177990000Y-83275524D01*
X177990000Y-83474476D01*
X178028814Y-83669606D01*
X178104950Y-83853414D01*
X178215482Y-84018837D01*
X178356163Y-84159518D01*
X178521586Y-84270050D01*
X178705394Y-84346186D01*
X178900524Y-84385000D01*
X179099476Y-84385000D01*
X179294606Y-84346186D01*
X179478414Y-84270050D01*
X179643837Y-84159518D01*
X179784518Y-84018837D01*
X179895050Y-83853414D01*
X179971186Y-83669606D01*
X180010000Y-83474476D01*
X180010000Y-83350000D01*
X180211928Y-83350000D01*
X180224188Y-83474482D01*
X180260498Y-83594180D01*
X180319463Y-83704494D01*
X180398815Y-83801185D01*
X180495506Y-83880537D01*
X180605820Y-83939502D01*
X180725518Y-83975812D01*
X180850000Y-83988072D01*
X181339250Y-83985000D01*
X181498000Y-83826250D01*
X181498000Y-82977000D01*
X181752000Y-82977000D01*
X181752000Y-83826250D01*
X181910750Y-83985000D01*
X182400000Y-83988072D01*
X182524482Y-83975812D01*
X182644180Y-83939502D01*
X182754494Y-83880537D01*
X182851185Y-83801185D01*
X182930537Y-83704494D01*
X182989502Y-83594180D01*
X183025812Y-83474482D01*
X183038072Y-83350000D01*
X183035000Y-83135750D01*
X182876250Y-82977000D01*
X181752000Y-82977000D01*
X181498000Y-82977000D01*
X180373750Y-82977000D01*
X180215000Y-83135750D01*
X180211928Y-83350000D01*
X180010000Y-83350000D01*
X180010000Y-83275524D01*
X179971186Y-83080394D01*
X179895050Y-82896586D01*
X179784518Y-82731163D01*
X179643837Y-82590482D01*
X179478414Y-82479950D01*
X179294606Y-82403814D01*
X179099476Y-82365000D01*
X178900524Y-82365000D01*
X178705394Y-82403814D01*
X178521586Y-82479950D01*
X178356163Y-82590482D01*
X178215482Y-82731163D01*
X178104950Y-82896586D01*
X178028814Y-83080394D01*
X177990000Y-83275524D01*
X177787005Y-83275524D01*
X177785000Y-83135750D01*
X177626250Y-82977000D01*
X176502000Y-82977000D01*
X176248000Y-82977000D01*
X175123750Y-82977000D01*
X174965000Y-83135750D01*
X174961928Y-83350000D01*
X170637301Y-83350000D01*
X171478521Y-82508781D01*
X171554284Y-82549278D01*
X171711500Y-82596969D01*
X171875000Y-82613072D01*
X172275000Y-82613072D01*
X172438500Y-82596969D01*
X172595716Y-82549278D01*
X172740608Y-82471831D01*
X172867606Y-82367606D01*
X172900000Y-82328134D01*
X172932394Y-82367606D01*
X173059392Y-82471831D01*
X173204284Y-82549278D01*
X173361500Y-82596969D01*
X173525000Y-82613072D01*
X173925000Y-82613072D01*
X174088500Y-82596969D01*
X174245716Y-82549278D01*
X174390608Y-82471831D01*
X174517606Y-82367606D01*
X174605916Y-82260000D01*
X174970792Y-82260000D01*
X174961928Y-82350000D01*
X174965000Y-82564250D01*
X175123750Y-82723000D01*
X176248000Y-82723000D01*
X176248000Y-82703000D01*
X176502000Y-82703000D01*
X176502000Y-82723000D01*
X177626250Y-82723000D01*
X177785000Y-82564250D01*
X177788072Y-82350000D01*
X177779208Y-82260000D01*
X180220792Y-82260000D01*
X180211928Y-82350000D01*
X180215000Y-82564250D01*
X180373750Y-82723000D01*
X181498000Y-82723000D01*
X181498000Y-82703000D01*
X181752000Y-82703000D01*
X181752000Y-82723000D01*
X182876250Y-82723000D01*
X183035000Y-82564250D01*
X183038072Y-82350000D01*
X183025812Y-82225518D01*
X182989502Y-82105820D01*
X182932939Y-82000000D01*
X182989502Y-81894180D01*
X183025812Y-81774482D01*
X183038072Y-81650000D01*
X183038072Y-80710000D01*
X189668373Y-80710000D01*
X189506772Y-80951853D01*
G37*
%TD.AperFunction*%
D27*
X120530820Y-80735498D02*
X120420506Y-80794463D01*
X120323815Y-80873815D01*
X120244463Y-80970506D01*
X120185498Y-81080820D01*
X120149188Y-81200518D01*
X120136928Y-81325000D01*
X120140000Y-81514250D01*
X120298750Y-81673000D01*
X121098000Y-81673000D01*
X121098000Y-81653000D01*
X121352000Y-81653000D01*
X121352000Y-81673000D01*
X121372000Y-81673000D01*
X121372000Y-81927000D01*
X121352000Y-81927000D01*
X121352000Y-81947000D01*
X121098000Y-81947000D01*
X121098000Y-81927000D01*
X120298750Y-81927000D01*
X120140000Y-82085750D01*
X120136928Y-82275000D01*
X120149188Y-82399482D01*
X120185498Y-82519180D01*
X120244463Y-82629494D01*
X120323815Y-82726185D01*
X120420506Y-82805537D01*
X120530820Y-82864502D01*
X120650518Y-82900812D01*
X120775000Y-82913072D01*
X120939250Y-82910000D01*
X121097998Y-82751252D01*
X121097998Y-82843866D01*
X121012171Y-82889742D01*
X120892749Y-82987749D01*
X120794742Y-83107171D01*
X120721916Y-83243418D01*
X120677071Y-83391255D01*
X120661928Y-83545000D01*
X120661928Y-83845000D01*
X120677071Y-83998745D01*
X120721916Y-84146582D01*
X120794742Y-84282829D01*
X120833454Y-84330000D01*
X120794742Y-84377171D01*
X120721916Y-84513418D01*
X120677071Y-84661255D01*
X120661928Y-84815000D01*
X120661928Y-85115000D01*
X120677071Y-85268745D01*
X120721916Y-85416582D01*
X120794742Y-85552829D01*
X120833454Y-85600000D01*
X120794742Y-85647171D01*
X120721916Y-85783418D01*
X120677071Y-85931255D01*
X120661928Y-86085000D01*
X120661928Y-86385000D01*
X120677071Y-86538745D01*
X120721916Y-86686582D01*
X120794742Y-86822829D01*
X120833454Y-86870000D01*
X120794742Y-86917171D01*
X120721916Y-87053418D01*
X120677071Y-87201255D01*
X120661928Y-87355000D01*
X120661928Y-87655000D01*
X120674551Y-87783160D01*
X119171336Y-89286375D01*
X119135657Y-89315656D01*
X119018815Y-89458028D01*
X118990005Y-89511928D01*
X117900000Y-89511928D01*
X117775518Y-89524188D01*
X117655820Y-89560498D01*
X117545506Y-89619463D01*
X117448815Y-89698815D01*
X117369463Y-89795506D01*
X117310498Y-89905820D01*
X117274188Y-90025518D01*
X117261928Y-90150000D01*
X117261928Y-92150000D01*
X117274188Y-92274482D01*
X117310498Y-92394180D01*
X117369463Y-92504494D01*
X117448815Y-92601185D01*
X117545506Y-92680537D01*
X117655820Y-92739502D01*
X117775518Y-92775812D01*
X117900000Y-92788072D01*
X118065001Y-92788072D01*
X118065000Y-94115000D01*
X114333431Y-94115000D01*
X114287499Y-94110476D01*
X114104207Y-94128529D01*
X114050743Y-94144747D01*
X113927960Y-94181993D01*
X113765528Y-94268814D01*
X113623156Y-94385656D01*
X113593874Y-94421336D01*
X113478282Y-94536928D01*
X112574998Y-94536928D01*
X112401744Y-94553992D01*
X112235148Y-94604528D01*
X112081613Y-94686595D01*
X111947038Y-94797038D01*
X111836595Y-94931613D01*
X111754528Y-95085148D01*
X111703992Y-95251744D01*
X111686928Y-95424998D01*
X111686928Y-96250002D01*
X111703992Y-96423256D01*
X111754528Y-96589852D01*
X111836595Y-96743387D01*
X111947038Y-96877962D01*
X112081613Y-96988405D01*
X112235148Y-97070472D01*
X112401744Y-97121008D01*
X112574998Y-97138072D01*
X114425002Y-97138072D01*
X114598256Y-97121008D01*
X114764852Y-97070472D01*
X114918387Y-96988405D01*
X115052962Y-96877962D01*
X115163405Y-96743387D01*
X115245472Y-96589852D01*
X115296008Y-96423256D01*
X115313072Y-96250002D01*
X115313072Y-95985000D01*
X116315649Y-95985000D01*
X116298815Y-95998815D01*
X116219463Y-96095506D01*
X116160498Y-96205820D01*
X116124188Y-96325518D01*
X116111928Y-96450000D01*
X116115000Y-97164250D01*
X116273750Y-97323000D01*
X117373000Y-97323000D01*
X117373000Y-97303000D01*
X117627000Y-97303000D01*
X117627000Y-97323000D01*
X117647000Y-97323000D01*
X117647000Y-97577000D01*
X117627000Y-97577000D01*
X117627000Y-98926250D01*
X117785750Y-99085000D01*
X118250000Y-99088072D01*
X118374482Y-99075812D01*
X118494180Y-99039502D01*
X118604494Y-98980537D01*
X118650000Y-98943191D01*
X118695506Y-98980537D01*
X118805820Y-99039502D01*
X118925518Y-99075812D01*
X119050000Y-99088072D01*
X120550000Y-99088072D01*
X120674482Y-99075812D01*
X120794180Y-99039502D01*
X120904494Y-98980537D01*
X120950000Y-98943191D01*
X120995506Y-98980537D01*
X121105820Y-99039502D01*
X121225518Y-99075812D01*
X121350000Y-99088072D01*
X122850000Y-99088072D01*
X122974482Y-99075812D01*
X123094180Y-99039502D01*
X123204494Y-98980537D01*
X123301185Y-98901185D01*
X123380537Y-98804494D01*
X123439502Y-98694180D01*
X123475812Y-98574482D01*
X123488072Y-98450000D01*
X123488072Y-97384217D01*
X124099790Y-96772500D01*
X124460487Y-96772500D01*
X124547038Y-96877962D01*
X124681613Y-96988405D01*
X124835148Y-97070472D01*
X125001744Y-97121008D01*
X125115000Y-97132163D01*
X125115000Y-97247014D01*
X125152853Y-97437314D01*
X125227104Y-97616572D01*
X125334901Y-97777901D01*
X125472099Y-97915099D01*
X125633428Y-98022896D01*
X125812686Y-98097147D01*
X126002986Y-98135000D01*
X126197014Y-98135000D01*
X126387314Y-98097147D01*
X126566572Y-98022896D01*
X126727901Y-97915099D01*
X126865099Y-97777901D01*
X126972896Y-97616572D01*
X127047147Y-97437314D01*
X127085000Y-97247014D01*
X127085000Y-97132163D01*
X127198256Y-97121008D01*
X127364852Y-97070472D01*
X127518387Y-96988405D01*
X127652962Y-96877962D01*
X127763405Y-96743387D01*
X127845472Y-96589852D01*
X127896008Y-96423256D01*
X127913072Y-96250002D01*
X127913072Y-95424998D01*
X127896008Y-95251744D01*
X127845472Y-95085148D01*
X127763405Y-94931613D01*
X127652962Y-94797038D01*
X127518387Y-94686595D01*
X127364852Y-94604528D01*
X127198256Y-94553992D01*
X127025002Y-94536928D01*
X125174998Y-94536928D01*
X125001744Y-94553992D01*
X124835148Y-94604528D01*
X124681613Y-94686595D01*
X124547038Y-94797038D01*
X124460487Y-94902500D01*
X123758431Y-94902500D01*
X123712499Y-94897976D01*
X123529207Y-94916029D01*
X123488001Y-94928529D01*
X123352960Y-94969493D01*
X123190528Y-95056314D01*
X123048156Y-95173156D01*
X123018876Y-95208834D01*
X122415782Y-95811928D01*
X121350000Y-95811928D01*
X121225518Y-95824188D01*
X121105820Y-95860498D01*
X120995506Y-95919463D01*
X120950000Y-95956809D01*
X120904494Y-95919463D01*
X120794180Y-95860498D01*
X120738907Y-95843731D01*
X120721471Y-95666708D01*
X120714052Y-95642250D01*
X120668007Y-95490460D01*
X120581186Y-95328028D01*
X120464344Y-95185656D01*
X120428660Y-95156371D01*
X119935000Y-94662711D01*
X119935000Y-93425000D01*
X124286928Y-93425000D01*
X124299188Y-93549482D01*
X124335498Y-93669180D01*
X124394463Y-93779494D01*
X124473815Y-93876185D01*
X124570506Y-93955537D01*
X124680820Y-94014502D01*
X124800518Y-94050812D01*
X124925000Y-94063072D01*
X125814250Y-94060000D01*
X125973000Y-93901250D01*
X125973000Y-92889500D01*
X126227000Y-92889500D01*
X126227000Y-93901250D01*
X126385750Y-94060000D01*
X127275000Y-94063072D01*
X127399482Y-94050812D01*
X127519180Y-94014502D01*
X127629494Y-93955537D01*
X127726185Y-93876185D01*
X127805537Y-93779494D01*
X127864502Y-93669180D01*
X127900812Y-93549482D01*
X127913072Y-93425000D01*
X127910000Y-93048250D01*
X127751250Y-92889500D01*
X126227000Y-92889500D01*
X125973000Y-92889500D01*
X124448750Y-92889500D01*
X124290000Y-93048250D01*
X124286928Y-93425000D01*
X119935000Y-93425000D01*
X119935000Y-92788072D01*
X121700000Y-92788072D01*
X121824482Y-92775812D01*
X121944180Y-92739502D01*
X122054494Y-92680537D01*
X122151185Y-92601185D01*
X122230537Y-92504494D01*
X122289502Y-92394180D01*
X122325812Y-92274482D01*
X122338072Y-92150000D01*
X122338072Y-91935000D01*
X124311479Y-91935000D01*
X124299188Y-91975518D01*
X124286928Y-92100000D01*
X124290000Y-92476750D01*
X124448750Y-92635500D01*
X125973000Y-92635500D01*
X125973000Y-92615500D01*
X126227000Y-92615500D01*
X126227000Y-92635500D01*
X127751250Y-92635500D01*
X127910000Y-92476750D01*
X127913072Y-92100000D01*
X127900812Y-91975518D01*
X127888521Y-91935000D01*
X131512711Y-91935000D01*
X134006370Y-94428659D01*
X134035656Y-94464344D01*
X134178028Y-94581186D01*
X134340460Y-94668007D01*
X134474532Y-94708677D01*
X134516708Y-94721471D01*
X134700000Y-94739524D01*
X134745932Y-94735000D01*
X138165000Y-94735000D01*
X138165000Y-94747014D01*
X138202853Y-94937314D01*
X138277104Y-95116572D01*
X138384901Y-95277901D01*
X138390000Y-95283000D01*
X138390000Y-96068954D01*
X138295506Y-96119463D01*
X138198815Y-96198815D01*
X138119463Y-96295506D01*
X138060498Y-96405820D01*
X138024188Y-96525518D01*
X138011928Y-96650000D01*
X138011928Y-99250000D01*
X138015868Y-99290000D01*
X103331627Y-99290000D01*
X103493228Y-99048147D01*
X103620246Y-98741496D01*
X103678228Y-98450000D01*
X116111928Y-98450000D01*
X116124188Y-98574482D01*
X116160498Y-98694180D01*
X116219463Y-98804494D01*
X116298815Y-98901185D01*
X116395506Y-98980537D01*
X116505820Y-99039502D01*
X116625518Y-99075812D01*
X116750000Y-99088072D01*
X117214250Y-99085000D01*
X117373000Y-98926250D01*
X117373000Y-97577000D01*
X116273750Y-97577000D01*
X116115000Y-97735750D01*
X116111928Y-98450000D01*
X103678228Y-98450000D01*
X103685000Y-98415958D01*
X103685000Y-98084042D01*
X103620246Y-97758504D01*
X103493228Y-97451853D01*
X103308825Y-97175875D01*
X103074125Y-96941175D01*
X102798147Y-96756772D01*
X102491496Y-96629754D01*
X102165958Y-96565000D01*
X101834042Y-96565000D01*
X101508504Y-96629754D01*
X101201853Y-96756772D01*
X100925875Y-96941175D01*
X100710000Y-97157050D01*
X100710000Y-94621874D01*
X101330881Y-94621874D01*
X101410724Y-94844976D01*
X101532631Y-95032764D01*
X101688831Y-95193161D01*
X101873322Y-95320003D01*
X102079013Y-95408415D01*
X102298000Y-95455000D01*
X102598000Y-95455000D01*
X102598000Y-94447000D01*
X101457046Y-94447000D01*
X101330881Y-94621874D01*
X100710000Y-94621874D01*
X100710000Y-94018126D01*
X101330881Y-94018126D01*
X101457046Y-94193000D01*
X102598000Y-94193000D01*
X102598000Y-93185000D01*
X102852000Y-93185000D01*
X102852000Y-94193000D01*
X102872000Y-94193000D01*
X102872000Y-94447000D01*
X102852000Y-94447000D01*
X102852000Y-95455000D01*
X103152000Y-95455000D01*
X103370987Y-95408415D01*
X103576678Y-95320003D01*
X103740000Y-95207715D01*
X103740000Y-95587677D01*
X103736324Y-95625000D01*
X103740000Y-95662322D01*
X103740000Y-95662332D01*
X103750997Y-95773985D01*
X103791574Y-95907753D01*
X103794454Y-95917246D01*
X103865026Y-96049276D01*
X103885471Y-96074188D01*
X103959999Y-96165001D01*
X103989003Y-96188804D01*
X105136928Y-97336730D01*
X105136928Y-97575000D01*
X105153031Y-97738500D01*
X105200722Y-97895716D01*
X105278169Y-98040608D01*
X105382394Y-98167606D01*
X105509392Y-98271831D01*
X105654284Y-98349278D01*
X105811500Y-98396969D01*
X105975000Y-98413072D01*
X106375000Y-98413072D01*
X106538500Y-98396969D01*
X106695716Y-98349278D01*
X106840608Y-98271831D01*
X106942590Y-98188137D01*
X106973815Y-98226185D01*
X107070506Y-98305537D01*
X107180820Y-98364502D01*
X107300518Y-98400812D01*
X107425000Y-98413072D01*
X107539250Y-98410000D01*
X107698000Y-98251250D01*
X107698000Y-97427000D01*
X107952000Y-97427000D01*
X107952000Y-98251250D01*
X108110750Y-98410000D01*
X108225000Y-98413072D01*
X108349482Y-98400812D01*
X108469180Y-98364502D01*
X108579494Y-98305537D01*
X108676185Y-98226185D01*
X108755537Y-98129494D01*
X108814502Y-98019180D01*
X108850812Y-97899482D01*
X108863072Y-97775000D01*
X108860000Y-97585750D01*
X108701250Y-97427000D01*
X107952000Y-97427000D01*
X107698000Y-97427000D01*
X107678000Y-97427000D01*
X107678000Y-97173000D01*
X107698000Y-97173000D01*
X107698000Y-96348750D01*
X107952000Y-96348750D01*
X107952000Y-97173000D01*
X108701250Y-97173000D01*
X108860000Y-97014250D01*
X108863072Y-96825000D01*
X108850812Y-96700518D01*
X108814502Y-96580820D01*
X108755537Y-96470506D01*
X108676185Y-96373815D01*
X108579494Y-96294463D01*
X108469180Y-96235498D01*
X108349482Y-96199188D01*
X108225000Y-96186928D01*
X108110750Y-96190000D01*
X107952000Y-96348750D01*
X107698000Y-96348750D01*
X107539250Y-96190000D01*
X107425000Y-96186928D01*
X107300518Y-96199188D01*
X107180820Y-96235498D01*
X107070506Y-96294463D01*
X106973815Y-96373815D01*
X106942590Y-96411863D01*
X106840608Y-96328169D01*
X106695716Y-96250722D01*
X106538500Y-96203031D01*
X106375000Y-96186928D01*
X106136730Y-96186928D01*
X105260000Y-95310199D01*
X105260000Y-94447002D01*
X105387045Y-94447002D01*
X105260881Y-94621874D01*
X105340724Y-94844976D01*
X105462631Y-95032764D01*
X105618831Y-95193161D01*
X105803322Y-95320003D01*
X106009013Y-95408415D01*
X106228000Y-95455000D01*
X106778000Y-95455000D01*
X106778000Y-94447000D01*
X107032000Y-94447000D01*
X107032000Y-95455000D01*
X107582000Y-95455000D01*
X107800987Y-95408415D01*
X108006678Y-95320003D01*
X108191169Y-95193161D01*
X108347369Y-95032764D01*
X108469276Y-94844976D01*
X108549119Y-94621874D01*
X108422954Y-94447000D01*
X107032000Y-94447000D01*
X106778000Y-94447000D01*
X106758000Y-94447000D01*
X106758000Y-94193000D01*
X106778000Y-94193000D01*
X106778000Y-94173000D01*
X107032000Y-94173000D01*
X107032000Y-94193000D01*
X108422954Y-94193000D01*
X108549119Y-94018126D01*
X108516190Y-93926113D01*
X108569149Y-93863873D01*
X108630066Y-93754625D01*
X108668499Y-93635592D01*
X108680000Y-93531750D01*
X108625252Y-93477002D01*
X108680000Y-93477002D01*
X108680000Y-93385000D01*
X109183361Y-93385000D01*
X109212686Y-93397147D01*
X109402986Y-93435000D01*
X109597014Y-93435000D01*
X109647287Y-93425000D01*
X111686928Y-93425000D01*
X111699188Y-93549482D01*
X111735498Y-93669180D01*
X111794463Y-93779494D01*
X111873815Y-93876185D01*
X111970506Y-93955537D01*
X112080820Y-94014502D01*
X112200518Y-94050812D01*
X112325000Y-94063072D01*
X113214250Y-94060000D01*
X113373000Y-93901250D01*
X113373000Y-92889500D01*
X113627000Y-92889500D01*
X113627000Y-93901250D01*
X113785750Y-94060000D01*
X114675000Y-94063072D01*
X114799482Y-94050812D01*
X114919180Y-94014502D01*
X115029494Y-93955537D01*
X115126185Y-93876185D01*
X115205537Y-93779494D01*
X115264502Y-93669180D01*
X115300812Y-93549482D01*
X115313072Y-93425000D01*
X115310000Y-93048250D01*
X115151250Y-92889500D01*
X113627000Y-92889500D01*
X113373000Y-92889500D01*
X111848750Y-92889500D01*
X111690000Y-93048250D01*
X111686928Y-93425000D01*
X109647287Y-93425000D01*
X109787314Y-93397147D01*
X109966572Y-93322896D01*
X110127901Y-93215099D01*
X110265099Y-93077901D01*
X110372896Y-92916572D01*
X110447147Y-92737314D01*
X110485000Y-92547014D01*
X110485000Y-92352986D01*
X110447147Y-92162686D01*
X110421182Y-92100000D01*
X111686928Y-92100000D01*
X111690000Y-92476750D01*
X111848750Y-92635500D01*
X113373000Y-92635500D01*
X113373000Y-91623750D01*
X113627000Y-91623750D01*
X113627000Y-92635500D01*
X115151250Y-92635500D01*
X115310000Y-92476750D01*
X115313072Y-92100000D01*
X115300812Y-91975518D01*
X115264502Y-91855820D01*
X115205537Y-91745506D01*
X115126185Y-91648815D01*
X115029494Y-91569463D01*
X114919180Y-91510498D01*
X114799482Y-91474188D01*
X114675000Y-91461928D01*
X113785750Y-91465000D01*
X113627000Y-91623750D01*
X113373000Y-91623750D01*
X113214250Y-91465000D01*
X112325000Y-91461928D01*
X112200518Y-91474188D01*
X112080820Y-91510498D01*
X111970506Y-91569463D01*
X111873815Y-91648815D01*
X111794463Y-91745506D01*
X111735498Y-91855820D01*
X111699188Y-91975518D01*
X111686928Y-92100000D01*
X110421182Y-92100000D01*
X110372896Y-91983428D01*
X110265099Y-91822099D01*
X110127901Y-91684901D01*
X109966572Y-91577104D01*
X109787314Y-91502853D01*
X109597014Y-91465000D01*
X109402986Y-91465000D01*
X109212686Y-91502853D01*
X109183361Y-91515000D01*
X108959094Y-91515000D01*
X108959085Y-91515001D01*
X108674701Y-91515001D01*
X108673223Y-91500000D01*
X108683072Y-91400000D01*
X108683072Y-91377755D01*
X108790001Y-91290001D01*
X108813803Y-91260998D01*
X109011002Y-91063800D01*
X109040001Y-91040001D01*
X109134974Y-90924276D01*
X109205546Y-90792247D01*
X109249003Y-90648986D01*
X109260000Y-90537333D01*
X109260000Y-90537324D01*
X109262691Y-90510000D01*
X110544649Y-90510000D01*
X110581971Y-90513676D01*
X110619293Y-90510000D01*
X110619304Y-90510000D01*
X110730957Y-90499003D01*
X110874218Y-90455546D01*
X111006247Y-90384974D01*
X111121972Y-90290001D01*
X111145775Y-90260997D01*
X114871772Y-86535000D01*
X115711928Y-86535000D01*
X115724188Y-86659482D01*
X115760498Y-86779180D01*
X115819463Y-86889494D01*
X115843730Y-86919064D01*
X115771916Y-87053418D01*
X115727071Y-87201255D01*
X115711928Y-87355000D01*
X115711928Y-87655000D01*
X115727071Y-87808745D01*
X115771916Y-87956582D01*
X115844742Y-88092829D01*
X115942749Y-88212251D01*
X116062171Y-88310258D01*
X116198418Y-88383084D01*
X116346255Y-88427929D01*
X116500000Y-88443072D01*
X118150000Y-88443072D01*
X118303745Y-88427929D01*
X118451582Y-88383084D01*
X118587829Y-88310258D01*
X118707251Y-88212251D01*
X118805258Y-88092829D01*
X118878084Y-87956582D01*
X118922929Y-87808745D01*
X118938072Y-87655000D01*
X118938072Y-87355000D01*
X118922929Y-87201255D01*
X118878084Y-87053418D01*
X118806270Y-86919064D01*
X118830537Y-86889494D01*
X118889502Y-86779180D01*
X118925812Y-86659482D01*
X118938072Y-86535000D01*
X118935000Y-86520750D01*
X118776250Y-86362000D01*
X117452000Y-86362000D01*
X117452000Y-86382000D01*
X117198000Y-86382000D01*
X117198000Y-86362000D01*
X115873750Y-86362000D01*
X115715000Y-86520750D01*
X115711928Y-86535000D01*
X114871772Y-86535000D01*
X115387230Y-86019543D01*
X115516357Y-86105823D01*
X115695615Y-86180074D01*
X115885915Y-86217927D01*
X116079943Y-86217927D01*
X116270243Y-86180074D01*
X116444245Y-86108000D01*
X117198000Y-86108000D01*
X117198000Y-86088000D01*
X117452000Y-86088000D01*
X117452000Y-86108000D01*
X118776250Y-86108000D01*
X118935000Y-85949250D01*
X118938072Y-85935000D01*
X118925812Y-85810518D01*
X118889502Y-85690820D01*
X118830537Y-85580506D01*
X118806270Y-85550936D01*
X118878084Y-85416582D01*
X118922929Y-85268745D01*
X118938072Y-85115000D01*
X118938072Y-84815000D01*
X118922929Y-84661255D01*
X118878084Y-84513418D01*
X118805258Y-84377171D01*
X118766546Y-84330000D01*
X118805258Y-84282829D01*
X118878084Y-84146582D01*
X118922929Y-83998745D01*
X118938072Y-83845000D01*
X118938072Y-83545000D01*
X118922929Y-83391255D01*
X118878084Y-83243418D01*
X118805258Y-83107171D01*
X118707251Y-82987749D01*
X118587829Y-82889742D01*
X118451582Y-82816916D01*
X118303745Y-82772071D01*
X118150000Y-82756928D01*
X116500000Y-82756928D01*
X116346255Y-82772071D01*
X116198418Y-82816916D01*
X116062171Y-82889742D01*
X115942749Y-82987749D01*
X115844742Y-83107171D01*
X115771916Y-83243418D01*
X115727071Y-83391255D01*
X115711928Y-83545000D01*
X115711928Y-83545241D01*
X114774524Y-84482645D01*
X114616572Y-84377104D01*
X114437314Y-84302853D01*
X114247014Y-84265000D01*
X114052986Y-84265000D01*
X113862686Y-84302853D01*
X113683428Y-84377104D01*
X113522099Y-84484901D01*
X113384901Y-84622099D01*
X113277104Y-84783428D01*
X113202853Y-84962686D01*
X113165000Y-85152986D01*
X113165000Y-85347014D01*
X113192074Y-85483124D01*
X110135199Y-88540000D01*
X109804568Y-88540000D01*
X109966572Y-88472896D01*
X110127901Y-88365099D01*
X110265099Y-88227901D01*
X110372896Y-88066572D01*
X110447147Y-87887314D01*
X110485000Y-87697014D01*
X110485000Y-87502986D01*
X110447147Y-87312686D01*
X110372896Y-87133428D01*
X110265099Y-86972099D01*
X110127901Y-86834901D01*
X109966572Y-86727104D01*
X109787314Y-86652853D01*
X109597014Y-86615000D01*
X109495923Y-86615000D01*
X109450001Y-86610477D01*
X109404079Y-86615000D01*
X109402986Y-86615000D01*
X109402981Y-86615001D01*
X108680000Y-86615001D01*
X108680000Y-86522998D01*
X108625252Y-86522998D01*
X108680000Y-86468250D01*
X108668499Y-86364408D01*
X108630066Y-86245375D01*
X108569149Y-86136127D01*
X108516190Y-86073887D01*
X108549119Y-85981874D01*
X108422954Y-85807000D01*
X107032000Y-85807000D01*
X107032000Y-85827000D01*
X106778000Y-85827000D01*
X106778000Y-85807000D01*
X105387046Y-85807000D01*
X105260881Y-85981874D01*
X105340724Y-86204976D01*
X105462631Y-86392764D01*
X105618831Y-86553161D01*
X105621335Y-86554883D01*
X105554259Y-86655269D01*
X105481892Y-86829978D01*
X105445000Y-87015448D01*
X105445000Y-87204552D01*
X105481892Y-87390022D01*
X105554259Y-87564731D01*
X105659319Y-87721964D01*
X105793036Y-87855681D01*
X105950269Y-87960741D01*
X106020906Y-87990000D01*
X105187323Y-87990000D01*
X105150000Y-87986324D01*
X105112677Y-87990000D01*
X105112667Y-87990000D01*
X105001014Y-88000997D01*
X104857753Y-88044454D01*
X104725724Y-88115026D01*
X104609999Y-88209999D01*
X104586200Y-88238998D01*
X103989002Y-88836197D01*
X103959999Y-88859999D01*
X103915847Y-88913799D01*
X103865026Y-88975724D01*
X103814921Y-89069463D01*
X103794454Y-89107754D01*
X103750997Y-89251015D01*
X103740000Y-89362668D01*
X103740000Y-89362678D01*
X103736324Y-89400000D01*
X103740000Y-89437323D01*
X103740001Y-92462667D01*
X103736324Y-92500000D01*
X103740001Y-92537332D01*
X103740001Y-93432285D01*
X103576678Y-93319997D01*
X103370987Y-93231585D01*
X103152000Y-93185000D01*
X102852000Y-93185000D01*
X102598000Y-93185000D01*
X102298000Y-93185000D01*
X102079013Y-93231585D01*
X101873322Y-93319997D01*
X101688831Y-93446839D01*
X101532631Y-93607236D01*
X101410724Y-93795024D01*
X101330881Y-94018126D01*
X100710000Y-94018126D01*
X100710000Y-85981874D01*
X101330881Y-85981874D01*
X101410724Y-86204976D01*
X101532631Y-86392764D01*
X101688831Y-86553161D01*
X101873322Y-86680003D01*
X102079013Y-86768415D01*
X102298000Y-86815000D01*
X102598000Y-86815000D01*
X102598000Y-85807000D01*
X102852000Y-85807000D01*
X102852000Y-86815000D01*
X103152000Y-86815000D01*
X103370987Y-86768415D01*
X103576678Y-86680003D01*
X103761169Y-86553161D01*
X103917369Y-86392764D01*
X104039276Y-86204976D01*
X104119119Y-85981874D01*
X103992954Y-85807000D01*
X102852000Y-85807000D01*
X102598000Y-85807000D01*
X101457046Y-85807000D01*
X101330881Y-85981874D01*
X100710000Y-85981874D01*
X100710000Y-85378126D01*
X101330881Y-85378126D01*
X101457046Y-85553000D01*
X102598000Y-85553000D01*
X102598000Y-84545000D01*
X102852000Y-84545000D01*
X102852000Y-85553000D01*
X103992954Y-85553000D01*
X104119119Y-85378126D01*
X105260881Y-85378126D01*
X105387046Y-85553000D01*
X106778000Y-85553000D01*
X106778000Y-84545000D01*
X107032000Y-84545000D01*
X107032000Y-85553000D01*
X108422954Y-85553000D01*
X108549119Y-85378126D01*
X108469276Y-85155024D01*
X108347369Y-84967236D01*
X108191169Y-84806839D01*
X108006678Y-84679997D01*
X107800987Y-84591585D01*
X107582000Y-84545000D01*
X107032000Y-84545000D01*
X106778000Y-84545000D01*
X106228000Y-84545000D01*
X106009013Y-84591585D01*
X105803322Y-84679997D01*
X105618831Y-84806839D01*
X105462631Y-84967236D01*
X105340724Y-85155024D01*
X105260881Y-85378126D01*
X104119119Y-85378126D01*
X104039276Y-85155024D01*
X103917369Y-84967236D01*
X103761169Y-84806839D01*
X103576678Y-84679997D01*
X103370987Y-84591585D01*
X103152000Y-84545000D01*
X102852000Y-84545000D01*
X102598000Y-84545000D01*
X102298000Y-84545000D01*
X102079013Y-84591585D01*
X101873322Y-84679997D01*
X101688831Y-84806839D01*
X101532631Y-84967236D01*
X101410724Y-85155024D01*
X101330881Y-85378126D01*
X100710000Y-85378126D01*
X100710000Y-82842950D01*
X100925875Y-83058825D01*
X101201853Y-83243228D01*
X101508504Y-83370246D01*
X101834042Y-83435000D01*
X102165958Y-83435000D01*
X102491496Y-83370246D01*
X102798147Y-83243228D01*
X103074125Y-83058825D01*
X103308825Y-82824125D01*
X103493228Y-82548147D01*
X103620246Y-82241496D01*
X103685000Y-81915958D01*
X103685000Y-81584042D01*
X103620246Y-81258504D01*
X103493228Y-80951853D01*
X103331627Y-80710000D01*
X120614876Y-80710000D01*
X120530820Y-80735498D01*
%TA.AperFunction,Conductor*%
D28*
G36*
X120530820Y-80735498D02*
G01*
X120420506Y-80794463D01*
X120323815Y-80873815D01*
X120244463Y-80970506D01*
X120185498Y-81080820D01*
X120149188Y-81200518D01*
X120136928Y-81325000D01*
X120140000Y-81514250D01*
X120298750Y-81673000D01*
X121098000Y-81673000D01*
X121098000Y-81653000D01*
X121352000Y-81653000D01*
X121352000Y-81673000D01*
X121372000Y-81673000D01*
X121372000Y-81927000D01*
X121352000Y-81927000D01*
X121352000Y-81947000D01*
X121098000Y-81947000D01*
X121098000Y-81927000D01*
X120298750Y-81927000D01*
X120140000Y-82085750D01*
X120136928Y-82275000D01*
X120149188Y-82399482D01*
X120185498Y-82519180D01*
X120244463Y-82629494D01*
X120323815Y-82726185D01*
X120420506Y-82805537D01*
X120530820Y-82864502D01*
X120650518Y-82900812D01*
X120775000Y-82913072D01*
X120939250Y-82910000D01*
X121097998Y-82751252D01*
X121097998Y-82843866D01*
X121012171Y-82889742D01*
X120892749Y-82987749D01*
X120794742Y-83107171D01*
X120721916Y-83243418D01*
X120677071Y-83391255D01*
X120661928Y-83545000D01*
X120661928Y-83845000D01*
X120677071Y-83998745D01*
X120721916Y-84146582D01*
X120794742Y-84282829D01*
X120833454Y-84330000D01*
X120794742Y-84377171D01*
X120721916Y-84513418D01*
X120677071Y-84661255D01*
X120661928Y-84815000D01*
X120661928Y-85115000D01*
X120677071Y-85268745D01*
X120721916Y-85416582D01*
X120794742Y-85552829D01*
X120833454Y-85600000D01*
X120794742Y-85647171D01*
X120721916Y-85783418D01*
X120677071Y-85931255D01*
X120661928Y-86085000D01*
X120661928Y-86385000D01*
X120677071Y-86538745D01*
X120721916Y-86686582D01*
X120794742Y-86822829D01*
X120833454Y-86870000D01*
X120794742Y-86917171D01*
X120721916Y-87053418D01*
X120677071Y-87201255D01*
X120661928Y-87355000D01*
X120661928Y-87655000D01*
X120674551Y-87783160D01*
X119171336Y-89286375D01*
X119135657Y-89315656D01*
X119018815Y-89458028D01*
X118990005Y-89511928D01*
X117900000Y-89511928D01*
X117775518Y-89524188D01*
X117655820Y-89560498D01*
X117545506Y-89619463D01*
X117448815Y-89698815D01*
X117369463Y-89795506D01*
X117310498Y-89905820D01*
X117274188Y-90025518D01*
X117261928Y-90150000D01*
X117261928Y-92150000D01*
X117274188Y-92274482D01*
X117310498Y-92394180D01*
X117369463Y-92504494D01*
X117448815Y-92601185D01*
X117545506Y-92680537D01*
X117655820Y-92739502D01*
X117775518Y-92775812D01*
X117900000Y-92788072D01*
X118065001Y-92788072D01*
X118065000Y-94115000D01*
X114333431Y-94115000D01*
X114287499Y-94110476D01*
X114104207Y-94128529D01*
X114050743Y-94144747D01*
X113927960Y-94181993D01*
X113765528Y-94268814D01*
X113623156Y-94385656D01*
X113593874Y-94421336D01*
X113478282Y-94536928D01*
X112574998Y-94536928D01*
X112401744Y-94553992D01*
X112235148Y-94604528D01*
X112081613Y-94686595D01*
X111947038Y-94797038D01*
X111836595Y-94931613D01*
X111754528Y-95085148D01*
X111703992Y-95251744D01*
X111686928Y-95424998D01*
X111686928Y-96250002D01*
X111703992Y-96423256D01*
X111754528Y-96589852D01*
X111836595Y-96743387D01*
X111947038Y-96877962D01*
X112081613Y-96988405D01*
X112235148Y-97070472D01*
X112401744Y-97121008D01*
X112574998Y-97138072D01*
X114425002Y-97138072D01*
X114598256Y-97121008D01*
X114764852Y-97070472D01*
X114918387Y-96988405D01*
X115052962Y-96877962D01*
X115163405Y-96743387D01*
X115245472Y-96589852D01*
X115296008Y-96423256D01*
X115313072Y-96250002D01*
X115313072Y-95985000D01*
X116315649Y-95985000D01*
X116298815Y-95998815D01*
X116219463Y-96095506D01*
X116160498Y-96205820D01*
X116124188Y-96325518D01*
X116111928Y-96450000D01*
X116115000Y-97164250D01*
X116273750Y-97323000D01*
X117373000Y-97323000D01*
X117373000Y-97303000D01*
X117627000Y-97303000D01*
X117627000Y-97323000D01*
X117647000Y-97323000D01*
X117647000Y-97577000D01*
X117627000Y-97577000D01*
X117627000Y-98926250D01*
X117785750Y-99085000D01*
X118250000Y-99088072D01*
X118374482Y-99075812D01*
X118494180Y-99039502D01*
X118604494Y-98980537D01*
X118650000Y-98943191D01*
X118695506Y-98980537D01*
X118805820Y-99039502D01*
X118925518Y-99075812D01*
X119050000Y-99088072D01*
X120550000Y-99088072D01*
X120674482Y-99075812D01*
X120794180Y-99039502D01*
X120904494Y-98980537D01*
X120950000Y-98943191D01*
X120995506Y-98980537D01*
X121105820Y-99039502D01*
X121225518Y-99075812D01*
X121350000Y-99088072D01*
X122850000Y-99088072D01*
X122974482Y-99075812D01*
X123094180Y-99039502D01*
X123204494Y-98980537D01*
X123301185Y-98901185D01*
X123380537Y-98804494D01*
X123439502Y-98694180D01*
X123475812Y-98574482D01*
X123488072Y-98450000D01*
X123488072Y-97384217D01*
X124099790Y-96772500D01*
X124460487Y-96772500D01*
X124547038Y-96877962D01*
X124681613Y-96988405D01*
X124835148Y-97070472D01*
X125001744Y-97121008D01*
X125115000Y-97132163D01*
X125115000Y-97247014D01*
X125152853Y-97437314D01*
X125227104Y-97616572D01*
X125334901Y-97777901D01*
X125472099Y-97915099D01*
X125633428Y-98022896D01*
X125812686Y-98097147D01*
X126002986Y-98135000D01*
X126197014Y-98135000D01*
X126387314Y-98097147D01*
X126566572Y-98022896D01*
X126727901Y-97915099D01*
X126865099Y-97777901D01*
X126972896Y-97616572D01*
X127047147Y-97437314D01*
X127085000Y-97247014D01*
X127085000Y-97132163D01*
X127198256Y-97121008D01*
X127364852Y-97070472D01*
X127518387Y-96988405D01*
X127652962Y-96877962D01*
X127763405Y-96743387D01*
X127845472Y-96589852D01*
X127896008Y-96423256D01*
X127913072Y-96250002D01*
X127913072Y-95424998D01*
X127896008Y-95251744D01*
X127845472Y-95085148D01*
X127763405Y-94931613D01*
X127652962Y-94797038D01*
X127518387Y-94686595D01*
X127364852Y-94604528D01*
X127198256Y-94553992D01*
X127025002Y-94536928D01*
X125174998Y-94536928D01*
X125001744Y-94553992D01*
X124835148Y-94604528D01*
X124681613Y-94686595D01*
X124547038Y-94797038D01*
X124460487Y-94902500D01*
X123758431Y-94902500D01*
X123712499Y-94897976D01*
X123529207Y-94916029D01*
X123488001Y-94928529D01*
X123352960Y-94969493D01*
X123190528Y-95056314D01*
X123048156Y-95173156D01*
X123018876Y-95208834D01*
X122415782Y-95811928D01*
X121350000Y-95811928D01*
X121225518Y-95824188D01*
X121105820Y-95860498D01*
X120995506Y-95919463D01*
X120950000Y-95956809D01*
X120904494Y-95919463D01*
X120794180Y-95860498D01*
X120738907Y-95843731D01*
X120721471Y-95666708D01*
X120714052Y-95642250D01*
X120668007Y-95490460D01*
X120581186Y-95328028D01*
X120464344Y-95185656D01*
X120428660Y-95156371D01*
X119935000Y-94662711D01*
X119935000Y-93425000D01*
X124286928Y-93425000D01*
X124299188Y-93549482D01*
X124335498Y-93669180D01*
X124394463Y-93779494D01*
X124473815Y-93876185D01*
X124570506Y-93955537D01*
X124680820Y-94014502D01*
X124800518Y-94050812D01*
X124925000Y-94063072D01*
X125814250Y-94060000D01*
X125973000Y-93901250D01*
X125973000Y-92889500D01*
X126227000Y-92889500D01*
X126227000Y-93901250D01*
X126385750Y-94060000D01*
X127275000Y-94063072D01*
X127399482Y-94050812D01*
X127519180Y-94014502D01*
X127629494Y-93955537D01*
X127726185Y-93876185D01*
X127805537Y-93779494D01*
X127864502Y-93669180D01*
X127900812Y-93549482D01*
X127913072Y-93425000D01*
X127910000Y-93048250D01*
X127751250Y-92889500D01*
X126227000Y-92889500D01*
X125973000Y-92889500D01*
X124448750Y-92889500D01*
X124290000Y-93048250D01*
X124286928Y-93425000D01*
X119935000Y-93425000D01*
X119935000Y-92788072D01*
X121700000Y-92788072D01*
X121824482Y-92775812D01*
X121944180Y-92739502D01*
X122054494Y-92680537D01*
X122151185Y-92601185D01*
X122230537Y-92504494D01*
X122289502Y-92394180D01*
X122325812Y-92274482D01*
X122338072Y-92150000D01*
X122338072Y-91935000D01*
X124311479Y-91935000D01*
X124299188Y-91975518D01*
X124286928Y-92100000D01*
X124290000Y-92476750D01*
X124448750Y-92635500D01*
X125973000Y-92635500D01*
X125973000Y-92615500D01*
X126227000Y-92615500D01*
X126227000Y-92635500D01*
X127751250Y-92635500D01*
X127910000Y-92476750D01*
X127913072Y-92100000D01*
X127900812Y-91975518D01*
X127888521Y-91935000D01*
X131512711Y-91935000D01*
X134006370Y-94428659D01*
X134035656Y-94464344D01*
X134178028Y-94581186D01*
X134340460Y-94668007D01*
X134474532Y-94708677D01*
X134516708Y-94721471D01*
X134700000Y-94739524D01*
X134745932Y-94735000D01*
X138165000Y-94735000D01*
X138165000Y-94747014D01*
X138202853Y-94937314D01*
X138277104Y-95116572D01*
X138384901Y-95277901D01*
X138390000Y-95283000D01*
X138390000Y-96068954D01*
X138295506Y-96119463D01*
X138198815Y-96198815D01*
X138119463Y-96295506D01*
X138060498Y-96405820D01*
X138024188Y-96525518D01*
X138011928Y-96650000D01*
X138011928Y-99250000D01*
X138015868Y-99290000D01*
X103331627Y-99290000D01*
X103493228Y-99048147D01*
X103620246Y-98741496D01*
X103678228Y-98450000D01*
X116111928Y-98450000D01*
X116124188Y-98574482D01*
X116160498Y-98694180D01*
X116219463Y-98804494D01*
X116298815Y-98901185D01*
X116395506Y-98980537D01*
X116505820Y-99039502D01*
X116625518Y-99075812D01*
X116750000Y-99088072D01*
X117214250Y-99085000D01*
X117373000Y-98926250D01*
X117373000Y-97577000D01*
X116273750Y-97577000D01*
X116115000Y-97735750D01*
X116111928Y-98450000D01*
X103678228Y-98450000D01*
X103685000Y-98415958D01*
X103685000Y-98084042D01*
X103620246Y-97758504D01*
X103493228Y-97451853D01*
X103308825Y-97175875D01*
X103074125Y-96941175D01*
X102798147Y-96756772D01*
X102491496Y-96629754D01*
X102165958Y-96565000D01*
X101834042Y-96565000D01*
X101508504Y-96629754D01*
X101201853Y-96756772D01*
X100925875Y-96941175D01*
X100710000Y-97157050D01*
X100710000Y-94621874D01*
X101330881Y-94621874D01*
X101410724Y-94844976D01*
X101532631Y-95032764D01*
X101688831Y-95193161D01*
X101873322Y-95320003D01*
X102079013Y-95408415D01*
X102298000Y-95455000D01*
X102598000Y-95455000D01*
X102598000Y-94447000D01*
X101457046Y-94447000D01*
X101330881Y-94621874D01*
X100710000Y-94621874D01*
X100710000Y-94018126D01*
X101330881Y-94018126D01*
X101457046Y-94193000D01*
X102598000Y-94193000D01*
X102598000Y-93185000D01*
X102852000Y-93185000D01*
X102852000Y-94193000D01*
X102872000Y-94193000D01*
X102872000Y-94447000D01*
X102852000Y-94447000D01*
X102852000Y-95455000D01*
X103152000Y-95455000D01*
X103370987Y-95408415D01*
X103576678Y-95320003D01*
X103740000Y-95207715D01*
X103740000Y-95587677D01*
X103736324Y-95625000D01*
X103740000Y-95662322D01*
X103740000Y-95662332D01*
X103750997Y-95773985D01*
X103791574Y-95907753D01*
X103794454Y-95917246D01*
X103865026Y-96049276D01*
X103885471Y-96074188D01*
X103959999Y-96165001D01*
X103989003Y-96188804D01*
X105136928Y-97336730D01*
X105136928Y-97575000D01*
X105153031Y-97738500D01*
X105200722Y-97895716D01*
X105278169Y-98040608D01*
X105382394Y-98167606D01*
X105509392Y-98271831D01*
X105654284Y-98349278D01*
X105811500Y-98396969D01*
X105975000Y-98413072D01*
X106375000Y-98413072D01*
X106538500Y-98396969D01*
X106695716Y-98349278D01*
X106840608Y-98271831D01*
X106942590Y-98188137D01*
X106973815Y-98226185D01*
X107070506Y-98305537D01*
X107180820Y-98364502D01*
X107300518Y-98400812D01*
X107425000Y-98413072D01*
X107539250Y-98410000D01*
X107698000Y-98251250D01*
X107698000Y-97427000D01*
X107952000Y-97427000D01*
X107952000Y-98251250D01*
X108110750Y-98410000D01*
X108225000Y-98413072D01*
X108349482Y-98400812D01*
X108469180Y-98364502D01*
X108579494Y-98305537D01*
X108676185Y-98226185D01*
X108755537Y-98129494D01*
X108814502Y-98019180D01*
X108850812Y-97899482D01*
X108863072Y-97775000D01*
X108860000Y-97585750D01*
X108701250Y-97427000D01*
X107952000Y-97427000D01*
X107698000Y-97427000D01*
X107678000Y-97427000D01*
X107678000Y-97173000D01*
X107698000Y-97173000D01*
X107698000Y-96348750D01*
X107952000Y-96348750D01*
X107952000Y-97173000D01*
X108701250Y-97173000D01*
X108860000Y-97014250D01*
X108863072Y-96825000D01*
X108850812Y-96700518D01*
X108814502Y-96580820D01*
X108755537Y-96470506D01*
X108676185Y-96373815D01*
X108579494Y-96294463D01*
X108469180Y-96235498D01*
X108349482Y-96199188D01*
X108225000Y-96186928D01*
X108110750Y-96190000D01*
X107952000Y-96348750D01*
X107698000Y-96348750D01*
X107539250Y-96190000D01*
X107425000Y-96186928D01*
X107300518Y-96199188D01*
X107180820Y-96235498D01*
X107070506Y-96294463D01*
X106973815Y-96373815D01*
X106942590Y-96411863D01*
X106840608Y-96328169D01*
X106695716Y-96250722D01*
X106538500Y-96203031D01*
X106375000Y-96186928D01*
X106136730Y-96186928D01*
X105260000Y-95310199D01*
X105260000Y-94447002D01*
X105387045Y-94447002D01*
X105260881Y-94621874D01*
X105340724Y-94844976D01*
X105462631Y-95032764D01*
X105618831Y-95193161D01*
X105803322Y-95320003D01*
X106009013Y-95408415D01*
X106228000Y-95455000D01*
X106778000Y-95455000D01*
X106778000Y-94447000D01*
X107032000Y-94447000D01*
X107032000Y-95455000D01*
X107582000Y-95455000D01*
X107800987Y-95408415D01*
X108006678Y-95320003D01*
X108191169Y-95193161D01*
X108347369Y-95032764D01*
X108469276Y-94844976D01*
X108549119Y-94621874D01*
X108422954Y-94447000D01*
X107032000Y-94447000D01*
X106778000Y-94447000D01*
X106758000Y-94447000D01*
X106758000Y-94193000D01*
X106778000Y-94193000D01*
X106778000Y-94173000D01*
X107032000Y-94173000D01*
X107032000Y-94193000D01*
X108422954Y-94193000D01*
X108549119Y-94018126D01*
X108516190Y-93926113D01*
X108569149Y-93863873D01*
X108630066Y-93754625D01*
X108668499Y-93635592D01*
X108680000Y-93531750D01*
X108625252Y-93477002D01*
X108680000Y-93477002D01*
X108680000Y-93385000D01*
X109183361Y-93385000D01*
X109212686Y-93397147D01*
X109402986Y-93435000D01*
X109597014Y-93435000D01*
X109647287Y-93425000D01*
X111686928Y-93425000D01*
X111699188Y-93549482D01*
X111735498Y-93669180D01*
X111794463Y-93779494D01*
X111873815Y-93876185D01*
X111970506Y-93955537D01*
X112080820Y-94014502D01*
X112200518Y-94050812D01*
X112325000Y-94063072D01*
X113214250Y-94060000D01*
X113373000Y-93901250D01*
X113373000Y-92889500D01*
X113627000Y-92889500D01*
X113627000Y-93901250D01*
X113785750Y-94060000D01*
X114675000Y-94063072D01*
X114799482Y-94050812D01*
X114919180Y-94014502D01*
X115029494Y-93955537D01*
X115126185Y-93876185D01*
X115205537Y-93779494D01*
X115264502Y-93669180D01*
X115300812Y-93549482D01*
X115313072Y-93425000D01*
X115310000Y-93048250D01*
X115151250Y-92889500D01*
X113627000Y-92889500D01*
X113373000Y-92889500D01*
X111848750Y-92889500D01*
X111690000Y-93048250D01*
X111686928Y-93425000D01*
X109647287Y-93425000D01*
X109787314Y-93397147D01*
X109966572Y-93322896D01*
X110127901Y-93215099D01*
X110265099Y-93077901D01*
X110372896Y-92916572D01*
X110447147Y-92737314D01*
X110485000Y-92547014D01*
X110485000Y-92352986D01*
X110447147Y-92162686D01*
X110421182Y-92100000D01*
X111686928Y-92100000D01*
X111690000Y-92476750D01*
X111848750Y-92635500D01*
X113373000Y-92635500D01*
X113373000Y-91623750D01*
X113627000Y-91623750D01*
X113627000Y-92635500D01*
X115151250Y-92635500D01*
X115310000Y-92476750D01*
X115313072Y-92100000D01*
X115300812Y-91975518D01*
X115264502Y-91855820D01*
X115205537Y-91745506D01*
X115126185Y-91648815D01*
X115029494Y-91569463D01*
X114919180Y-91510498D01*
X114799482Y-91474188D01*
X114675000Y-91461928D01*
X113785750Y-91465000D01*
X113627000Y-91623750D01*
X113373000Y-91623750D01*
X113214250Y-91465000D01*
X112325000Y-91461928D01*
X112200518Y-91474188D01*
X112080820Y-91510498D01*
X111970506Y-91569463D01*
X111873815Y-91648815D01*
X111794463Y-91745506D01*
X111735498Y-91855820D01*
X111699188Y-91975518D01*
X111686928Y-92100000D01*
X110421182Y-92100000D01*
X110372896Y-91983428D01*
X110265099Y-91822099D01*
X110127901Y-91684901D01*
X109966572Y-91577104D01*
X109787314Y-91502853D01*
X109597014Y-91465000D01*
X109402986Y-91465000D01*
X109212686Y-91502853D01*
X109183361Y-91515000D01*
X108959094Y-91515000D01*
X108959085Y-91515001D01*
X108674701Y-91515001D01*
X108673223Y-91500000D01*
X108683072Y-91400000D01*
X108683072Y-91377755D01*
X108790001Y-91290001D01*
X108813803Y-91260998D01*
X109011002Y-91063800D01*
X109040001Y-91040001D01*
X109134974Y-90924276D01*
X109205546Y-90792247D01*
X109249003Y-90648986D01*
X109260000Y-90537333D01*
X109260000Y-90537324D01*
X109262691Y-90510000D01*
X110544649Y-90510000D01*
X110581971Y-90513676D01*
X110619293Y-90510000D01*
X110619304Y-90510000D01*
X110730957Y-90499003D01*
X110874218Y-90455546D01*
X111006247Y-90384974D01*
X111121972Y-90290001D01*
X111145775Y-90260997D01*
X114871772Y-86535000D01*
X115711928Y-86535000D01*
X115724188Y-86659482D01*
X115760498Y-86779180D01*
X115819463Y-86889494D01*
X115843730Y-86919064D01*
X115771916Y-87053418D01*
X115727071Y-87201255D01*
X115711928Y-87355000D01*
X115711928Y-87655000D01*
X115727071Y-87808745D01*
X115771916Y-87956582D01*
X115844742Y-88092829D01*
X115942749Y-88212251D01*
X116062171Y-88310258D01*
X116198418Y-88383084D01*
X116346255Y-88427929D01*
X116500000Y-88443072D01*
X118150000Y-88443072D01*
X118303745Y-88427929D01*
X118451582Y-88383084D01*
X118587829Y-88310258D01*
X118707251Y-88212251D01*
X118805258Y-88092829D01*
X118878084Y-87956582D01*
X118922929Y-87808745D01*
X118938072Y-87655000D01*
X118938072Y-87355000D01*
X118922929Y-87201255D01*
X118878084Y-87053418D01*
X118806270Y-86919064D01*
X118830537Y-86889494D01*
X118889502Y-86779180D01*
X118925812Y-86659482D01*
X118938072Y-86535000D01*
X118935000Y-86520750D01*
X118776250Y-86362000D01*
X117452000Y-86362000D01*
X117452000Y-86382000D01*
X117198000Y-86382000D01*
X117198000Y-86362000D01*
X115873750Y-86362000D01*
X115715000Y-86520750D01*
X115711928Y-86535000D01*
X114871772Y-86535000D01*
X115387230Y-86019543D01*
X115516357Y-86105823D01*
X115695615Y-86180074D01*
X115885915Y-86217927D01*
X116079943Y-86217927D01*
X116270243Y-86180074D01*
X116444245Y-86108000D01*
X117198000Y-86108000D01*
X117198000Y-86088000D01*
X117452000Y-86088000D01*
X117452000Y-86108000D01*
X118776250Y-86108000D01*
X118935000Y-85949250D01*
X118938072Y-85935000D01*
X118925812Y-85810518D01*
X118889502Y-85690820D01*
X118830537Y-85580506D01*
X118806270Y-85550936D01*
X118878084Y-85416582D01*
X118922929Y-85268745D01*
X118938072Y-85115000D01*
X118938072Y-84815000D01*
X118922929Y-84661255D01*
X118878084Y-84513418D01*
X118805258Y-84377171D01*
X118766546Y-84330000D01*
X118805258Y-84282829D01*
X118878084Y-84146582D01*
X118922929Y-83998745D01*
X118938072Y-83845000D01*
X118938072Y-83545000D01*
X118922929Y-83391255D01*
X118878084Y-83243418D01*
X118805258Y-83107171D01*
X118707251Y-82987749D01*
X118587829Y-82889742D01*
X118451582Y-82816916D01*
X118303745Y-82772071D01*
X118150000Y-82756928D01*
X116500000Y-82756928D01*
X116346255Y-82772071D01*
X116198418Y-82816916D01*
X116062171Y-82889742D01*
X115942749Y-82987749D01*
X115844742Y-83107171D01*
X115771916Y-83243418D01*
X115727071Y-83391255D01*
X115711928Y-83545000D01*
X115711928Y-83545241D01*
X114774524Y-84482645D01*
X114616572Y-84377104D01*
X114437314Y-84302853D01*
X114247014Y-84265000D01*
X114052986Y-84265000D01*
X113862686Y-84302853D01*
X113683428Y-84377104D01*
X113522099Y-84484901D01*
X113384901Y-84622099D01*
X113277104Y-84783428D01*
X113202853Y-84962686D01*
X113165000Y-85152986D01*
X113165000Y-85347014D01*
X113192074Y-85483124D01*
X110135199Y-88540000D01*
X109804568Y-88540000D01*
X109966572Y-88472896D01*
X110127901Y-88365099D01*
X110265099Y-88227901D01*
X110372896Y-88066572D01*
X110447147Y-87887314D01*
X110485000Y-87697014D01*
X110485000Y-87502986D01*
X110447147Y-87312686D01*
X110372896Y-87133428D01*
X110265099Y-86972099D01*
X110127901Y-86834901D01*
X109966572Y-86727104D01*
X109787314Y-86652853D01*
X109597014Y-86615000D01*
X109495923Y-86615000D01*
X109450001Y-86610477D01*
X109404079Y-86615000D01*
X109402986Y-86615000D01*
X109402981Y-86615001D01*
X108680000Y-86615001D01*
X108680000Y-86522998D01*
X108625252Y-86522998D01*
X108680000Y-86468250D01*
X108668499Y-86364408D01*
X108630066Y-86245375D01*
X108569149Y-86136127D01*
X108516190Y-86073887D01*
X108549119Y-85981874D01*
X108422954Y-85807000D01*
X107032000Y-85807000D01*
X107032000Y-85827000D01*
X106778000Y-85827000D01*
X106778000Y-85807000D01*
X105387046Y-85807000D01*
X105260881Y-85981874D01*
X105340724Y-86204976D01*
X105462631Y-86392764D01*
X105618831Y-86553161D01*
X105621335Y-86554883D01*
X105554259Y-86655269D01*
X105481892Y-86829978D01*
X105445000Y-87015448D01*
X105445000Y-87204552D01*
X105481892Y-87390022D01*
X105554259Y-87564731D01*
X105659319Y-87721964D01*
X105793036Y-87855681D01*
X105950269Y-87960741D01*
X106020906Y-87990000D01*
X105187323Y-87990000D01*
X105150000Y-87986324D01*
X105112677Y-87990000D01*
X105112667Y-87990000D01*
X105001014Y-88000997D01*
X104857753Y-88044454D01*
X104725724Y-88115026D01*
X104609999Y-88209999D01*
X104586200Y-88238998D01*
X103989002Y-88836197D01*
X103959999Y-88859999D01*
X103915847Y-88913799D01*
X103865026Y-88975724D01*
X103814921Y-89069463D01*
X103794454Y-89107754D01*
X103750997Y-89251015D01*
X103740000Y-89362668D01*
X103740000Y-89362678D01*
X103736324Y-89400000D01*
X103740000Y-89437323D01*
X103740001Y-92462667D01*
X103736324Y-92500000D01*
X103740001Y-92537332D01*
X103740001Y-93432285D01*
X103576678Y-93319997D01*
X103370987Y-93231585D01*
X103152000Y-93185000D01*
X102852000Y-93185000D01*
X102598000Y-93185000D01*
X102298000Y-93185000D01*
X102079013Y-93231585D01*
X101873322Y-93319997D01*
X101688831Y-93446839D01*
X101532631Y-93607236D01*
X101410724Y-93795024D01*
X101330881Y-94018126D01*
X100710000Y-94018126D01*
X100710000Y-85981874D01*
X101330881Y-85981874D01*
X101410724Y-86204976D01*
X101532631Y-86392764D01*
X101688831Y-86553161D01*
X101873322Y-86680003D01*
X102079013Y-86768415D01*
X102298000Y-86815000D01*
X102598000Y-86815000D01*
X102598000Y-85807000D01*
X102852000Y-85807000D01*
X102852000Y-86815000D01*
X103152000Y-86815000D01*
X103370987Y-86768415D01*
X103576678Y-86680003D01*
X103761169Y-86553161D01*
X103917369Y-86392764D01*
X104039276Y-86204976D01*
X104119119Y-85981874D01*
X103992954Y-85807000D01*
X102852000Y-85807000D01*
X102598000Y-85807000D01*
X101457046Y-85807000D01*
X101330881Y-85981874D01*
X100710000Y-85981874D01*
X100710000Y-85378126D01*
X101330881Y-85378126D01*
X101457046Y-85553000D01*
X102598000Y-85553000D01*
X102598000Y-84545000D01*
X102852000Y-84545000D01*
X102852000Y-85553000D01*
X103992954Y-85553000D01*
X104119119Y-85378126D01*
X105260881Y-85378126D01*
X105387046Y-85553000D01*
X106778000Y-85553000D01*
X106778000Y-84545000D01*
X107032000Y-84545000D01*
X107032000Y-85553000D01*
X108422954Y-85553000D01*
X108549119Y-85378126D01*
X108469276Y-85155024D01*
X108347369Y-84967236D01*
X108191169Y-84806839D01*
X108006678Y-84679997D01*
X107800987Y-84591585D01*
X107582000Y-84545000D01*
X107032000Y-84545000D01*
X106778000Y-84545000D01*
X106228000Y-84545000D01*
X106009013Y-84591585D01*
X105803322Y-84679997D01*
X105618831Y-84806839D01*
X105462631Y-84967236D01*
X105340724Y-85155024D01*
X105260881Y-85378126D01*
X104119119Y-85378126D01*
X104039276Y-85155024D01*
X103917369Y-84967236D01*
X103761169Y-84806839D01*
X103576678Y-84679997D01*
X103370987Y-84591585D01*
X103152000Y-84545000D01*
X102852000Y-84545000D01*
X102598000Y-84545000D01*
X102298000Y-84545000D01*
X102079013Y-84591585D01*
X101873322Y-84679997D01*
X101688831Y-84806839D01*
X101532631Y-84967236D01*
X101410724Y-85155024D01*
X101330881Y-85378126D01*
X100710000Y-85378126D01*
X100710000Y-82842950D01*
X100925875Y-83058825D01*
X101201853Y-83243228D01*
X101508504Y-83370246D01*
X101834042Y-83435000D01*
X102165958Y-83435000D01*
X102491496Y-83370246D01*
X102798147Y-83243228D01*
X103074125Y-83058825D01*
X103308825Y-82824125D01*
X103493228Y-82548147D01*
X103620246Y-82241496D01*
X103685000Y-81915958D01*
X103685000Y-81584042D01*
X103620246Y-81258504D01*
X103493228Y-80951853D01*
X103331627Y-80710000D01*
X120614876Y-80710000D01*
X120530820Y-80735498D01*
G37*
%TD.AperFunction*%
D27*
X142295506Y-83780537D02*
X142405820Y-83839502D01*
X142525518Y-83875812D01*
X142650000Y-83888072D01*
X143263271Y-83888072D01*
X148236201Y-88861003D01*
X148259999Y-88890001D01*
X148288997Y-88913799D01*
X148375723Y-88984974D01*
X148497377Y-89050000D01*
X148507753Y-89055546D01*
X148651014Y-89099003D01*
X148762667Y-89110000D01*
X148762677Y-89110000D01*
X148800000Y-89113676D01*
X148837323Y-89110000D01*
X149652013Y-89110000D01*
X146672013Y-92090000D01*
X145836790Y-92090000D01*
X145854494Y-92080537D01*
X145951185Y-92001185D01*
X146030537Y-91904494D01*
X146089502Y-91794180D01*
X146125812Y-91674482D01*
X146138072Y-91550000D01*
X146135000Y-90235750D01*
X145976250Y-90077000D01*
X144027000Y-90077000D01*
X144027000Y-90097000D01*
X143773000Y-90097000D01*
X143773000Y-90077000D01*
X141823750Y-90077000D01*
X141665000Y-90235750D01*
X141662299Y-91391067D01*
X141566572Y-91327104D01*
X141387314Y-91252853D01*
X141197014Y-91215000D01*
X141189802Y-91215000D01*
X138513804Y-88539003D01*
X138490001Y-88509999D01*
X138374276Y-88415026D01*
X138252623Y-88350000D01*
X141661928Y-88350000D01*
X141665000Y-89664250D01*
X141823750Y-89823000D01*
X143773000Y-89823000D01*
X143773000Y-87873750D01*
X144027000Y-87873750D01*
X144027000Y-89823000D01*
X145976250Y-89823000D01*
X146135000Y-89664250D01*
X146138072Y-88350000D01*
X146125812Y-88225518D01*
X146089502Y-88105820D01*
X146030537Y-87995506D01*
X145951185Y-87898815D01*
X145854494Y-87819463D01*
X145744180Y-87760498D01*
X145624482Y-87724188D01*
X145500000Y-87711928D01*
X144185750Y-87715000D01*
X144027000Y-87873750D01*
X143773000Y-87873750D01*
X143614250Y-87715000D01*
X142300000Y-87711928D01*
X142175518Y-87724188D01*
X142055820Y-87760498D01*
X141945506Y-87819463D01*
X141848815Y-87898815D01*
X141769463Y-87995506D01*
X141710498Y-88105820D01*
X141674188Y-88225518D01*
X141661928Y-88350000D01*
X138252623Y-88350000D01*
X138242247Y-88344454D01*
X138098986Y-88300997D01*
X137987333Y-88290000D01*
X137987322Y-88290000D01*
X137950000Y-88286324D01*
X137912678Y-88290000D01*
X127980916Y-88290000D01*
X127892606Y-88182394D01*
X127765608Y-88078169D01*
X127620716Y-88000722D01*
X127463500Y-87953031D01*
X127300000Y-87936928D01*
X126900000Y-87936928D01*
X126736500Y-87953031D01*
X126579284Y-88000722D01*
X126434392Y-88078169D01*
X126307394Y-88182394D01*
X126275000Y-88221866D01*
X126242606Y-88182394D01*
X126115608Y-88078169D01*
X125970716Y-88000722D01*
X125813500Y-87953031D01*
X125660224Y-87937935D01*
X124598630Y-86876341D01*
X124569344Y-86840656D01*
X124426972Y-86723814D01*
X124264540Y-86636993D01*
X124088292Y-86583529D01*
X123950932Y-86570000D01*
X123905000Y-86565476D01*
X123863583Y-86569555D01*
X123866481Y-86560000D01*
X137762678Y-86560000D01*
X137800000Y-86563676D01*
X137837322Y-86560000D01*
X137837333Y-86560000D01*
X137948986Y-86549003D01*
X138092247Y-86505546D01*
X138224276Y-86434974D01*
X138340001Y-86340001D01*
X138363804Y-86310997D01*
X140786730Y-83888072D01*
X141750000Y-83888072D01*
X141874482Y-83875812D01*
X141994180Y-83839502D01*
X142104494Y-83780537D01*
X142200000Y-83702158D01*
X142295506Y-83780537D01*
%TA.AperFunction,Conductor*%
D28*
G36*
X142295506Y-83780537D02*
G01*
X142405820Y-83839502D01*
X142525518Y-83875812D01*
X142650000Y-83888072D01*
X143263271Y-83888072D01*
X148236201Y-88861003D01*
X148259999Y-88890001D01*
X148288997Y-88913799D01*
X148375723Y-88984974D01*
X148497377Y-89050000D01*
X148507753Y-89055546D01*
X148651014Y-89099003D01*
X148762667Y-89110000D01*
X148762677Y-89110000D01*
X148800000Y-89113676D01*
X148837323Y-89110000D01*
X149652013Y-89110000D01*
X146672013Y-92090000D01*
X145836790Y-92090000D01*
X145854494Y-92080537D01*
X145951185Y-92001185D01*
X146030537Y-91904494D01*
X146089502Y-91794180D01*
X146125812Y-91674482D01*
X146138072Y-91550000D01*
X146135000Y-90235750D01*
X145976250Y-90077000D01*
X144027000Y-90077000D01*
X144027000Y-90097000D01*
X143773000Y-90097000D01*
X143773000Y-90077000D01*
X141823750Y-90077000D01*
X141665000Y-90235750D01*
X141662299Y-91391067D01*
X141566572Y-91327104D01*
X141387314Y-91252853D01*
X141197014Y-91215000D01*
X141189802Y-91215000D01*
X138513804Y-88539003D01*
X138490001Y-88509999D01*
X138374276Y-88415026D01*
X138252623Y-88350000D01*
X141661928Y-88350000D01*
X141665000Y-89664250D01*
X141823750Y-89823000D01*
X143773000Y-89823000D01*
X143773000Y-87873750D01*
X144027000Y-87873750D01*
X144027000Y-89823000D01*
X145976250Y-89823000D01*
X146135000Y-89664250D01*
X146138072Y-88350000D01*
X146125812Y-88225518D01*
X146089502Y-88105820D01*
X146030537Y-87995506D01*
X145951185Y-87898815D01*
X145854494Y-87819463D01*
X145744180Y-87760498D01*
X145624482Y-87724188D01*
X145500000Y-87711928D01*
X144185750Y-87715000D01*
X144027000Y-87873750D01*
X143773000Y-87873750D01*
X143614250Y-87715000D01*
X142300000Y-87711928D01*
X142175518Y-87724188D01*
X142055820Y-87760498D01*
X141945506Y-87819463D01*
X141848815Y-87898815D01*
X141769463Y-87995506D01*
X141710498Y-88105820D01*
X141674188Y-88225518D01*
X141661928Y-88350000D01*
X138252623Y-88350000D01*
X138242247Y-88344454D01*
X138098986Y-88300997D01*
X137987333Y-88290000D01*
X137987322Y-88290000D01*
X137950000Y-88286324D01*
X137912678Y-88290000D01*
X127980916Y-88290000D01*
X127892606Y-88182394D01*
X127765608Y-88078169D01*
X127620716Y-88000722D01*
X127463500Y-87953031D01*
X127300000Y-87936928D01*
X126900000Y-87936928D01*
X126736500Y-87953031D01*
X126579284Y-88000722D01*
X126434392Y-88078169D01*
X126307394Y-88182394D01*
X126275000Y-88221866D01*
X126242606Y-88182394D01*
X126115608Y-88078169D01*
X125970716Y-88000722D01*
X125813500Y-87953031D01*
X125660224Y-87937935D01*
X124598630Y-86876341D01*
X124569344Y-86840656D01*
X124426972Y-86723814D01*
X124264540Y-86636993D01*
X124088292Y-86583529D01*
X123950932Y-86570000D01*
X123905000Y-86565476D01*
X123863583Y-86569555D01*
X123866481Y-86560000D01*
X137762678Y-86560000D01*
X137800000Y-86563676D01*
X137837322Y-86560000D01*
X137837333Y-86560000D01*
X137948986Y-86549003D01*
X138092247Y-86505546D01*
X138224276Y-86434974D01*
X138340001Y-86340001D01*
X138363804Y-86310997D01*
X140786730Y-83888072D01*
X141750000Y-83888072D01*
X141874482Y-83875812D01*
X141994180Y-83839502D01*
X142104494Y-83780537D01*
X142200000Y-83702158D01*
X142295506Y-83780537D01*
G37*
%TD.AperFunction*%
D27*
X165793748Y-85565858D02*
X165779605Y-85580000D01*
X165793748Y-85594143D01*
X165614143Y-85773748D01*
X165600000Y-85759605D01*
X165585858Y-85773748D01*
X165406253Y-85594143D01*
X165420395Y-85580000D01*
X165406253Y-85565858D01*
X165585858Y-85386253D01*
X165600000Y-85400395D01*
X165614143Y-85386253D01*
X165793748Y-85565858D01*
%TA.AperFunction,Conductor*%
D28*
G36*
X165793748Y-85565858D02*
G01*
X165779605Y-85580000D01*
X165793748Y-85594143D01*
X165614143Y-85773748D01*
X165600000Y-85759605D01*
X165585858Y-85773748D01*
X165406253Y-85594143D01*
X165420395Y-85580000D01*
X165406253Y-85565858D01*
X165585858Y-85386253D01*
X165600000Y-85400395D01*
X165614143Y-85386253D01*
X165793748Y-85565858D01*
G37*
%TD.AperFunction*%
D27*
X156778169Y-80809392D02*
X156700722Y-80954284D01*
X156653031Y-81111500D01*
X156636928Y-81275000D01*
X156636928Y-81513270D01*
X153720346Y-84429853D01*
X153566572Y-84327104D01*
X153387314Y-84252853D01*
X153197014Y-84215000D01*
X153002986Y-84215000D01*
X152812686Y-84252853D01*
X152633428Y-84327104D01*
X152539298Y-84390000D01*
X152146034Y-84390000D01*
X152147147Y-84387314D01*
X152185000Y-84197014D01*
X152185000Y-84002986D01*
X152147147Y-83812686D01*
X152126388Y-83762569D01*
X152200000Y-83702158D01*
X152295506Y-83780537D01*
X152405820Y-83839502D01*
X152525518Y-83875812D01*
X152650000Y-83888072D01*
X152914250Y-83885000D01*
X153073000Y-83726250D01*
X153073000Y-82077000D01*
X153327000Y-82077000D01*
X153327000Y-83726250D01*
X153485750Y-83885000D01*
X153750000Y-83888072D01*
X153874482Y-83875812D01*
X153994180Y-83839502D01*
X154104494Y-83780537D01*
X154201185Y-83701185D01*
X154280537Y-83604494D01*
X154339502Y-83494180D01*
X154375812Y-83374482D01*
X154388072Y-83250000D01*
X154385000Y-82235750D01*
X154226250Y-82077000D01*
X153327000Y-82077000D01*
X153073000Y-82077000D01*
X153053000Y-82077000D01*
X153053000Y-81823000D01*
X153073000Y-81823000D01*
X153073000Y-81803000D01*
X153327000Y-81803000D01*
X153327000Y-81823000D01*
X154226250Y-81823000D01*
X154385000Y-81664250D01*
X154387890Y-80710000D01*
X156859738Y-80710000D01*
X156778169Y-80809392D01*
%TA.AperFunction,Conductor*%
D28*
G36*
X156778169Y-80809392D02*
G01*
X156700722Y-80954284D01*
X156653031Y-81111500D01*
X156636928Y-81275000D01*
X156636928Y-81513270D01*
X153720346Y-84429853D01*
X153566572Y-84327104D01*
X153387314Y-84252853D01*
X153197014Y-84215000D01*
X153002986Y-84215000D01*
X152812686Y-84252853D01*
X152633428Y-84327104D01*
X152539298Y-84390000D01*
X152146034Y-84390000D01*
X152147147Y-84387314D01*
X152185000Y-84197014D01*
X152185000Y-84002986D01*
X152147147Y-83812686D01*
X152126388Y-83762569D01*
X152200000Y-83702158D01*
X152295506Y-83780537D01*
X152405820Y-83839502D01*
X152525518Y-83875812D01*
X152650000Y-83888072D01*
X152914250Y-83885000D01*
X153073000Y-83726250D01*
X153073000Y-82077000D01*
X153327000Y-82077000D01*
X153327000Y-83726250D01*
X153485750Y-83885000D01*
X153750000Y-83888072D01*
X153874482Y-83875812D01*
X153994180Y-83839502D01*
X154104494Y-83780537D01*
X154201185Y-83701185D01*
X154280537Y-83604494D01*
X154339502Y-83494180D01*
X154375812Y-83374482D01*
X154388072Y-83250000D01*
X154385000Y-82235750D01*
X154226250Y-82077000D01*
X153327000Y-82077000D01*
X153073000Y-82077000D01*
X153053000Y-82077000D01*
X153053000Y-81823000D01*
X153073000Y-81823000D01*
X153073000Y-81803000D01*
X153327000Y-81803000D01*
X153327000Y-81823000D01*
X154226250Y-81823000D01*
X154385000Y-81664250D01*
X154387890Y-80710000D01*
X156859738Y-80710000D01*
X156778169Y-80809392D01*
G37*
%TD.AperFunction*%
D27*
X171178169Y-80759392D02*
X171167009Y-80780271D01*
X171120253Y-80794454D01*
X170988224Y-80865026D01*
X170872499Y-80959999D01*
X170848701Y-80988997D01*
X168537360Y-83300339D01*
X168535000Y-83135750D01*
X168376250Y-82977000D01*
X167252000Y-82977000D01*
X167252000Y-82997000D01*
X166998000Y-82997000D01*
X166998000Y-82977000D01*
X165873750Y-82977000D01*
X165715000Y-83135750D01*
X165711928Y-83350000D01*
X165724188Y-83474482D01*
X165728895Y-83490000D01*
X165506912Y-83490000D01*
X165510000Y-83474476D01*
X165510000Y-83275524D01*
X165471186Y-83080394D01*
X165395050Y-82896586D01*
X165284518Y-82731163D01*
X165143837Y-82590482D01*
X164978414Y-82479950D01*
X164794606Y-82403814D01*
X164599476Y-82365000D01*
X164400524Y-82365000D01*
X164205394Y-82403814D01*
X164021586Y-82479950D01*
X163856163Y-82590482D01*
X163715482Y-82731163D01*
X163604950Y-82896586D01*
X163528814Y-83080394D01*
X163490000Y-83275524D01*
X163490000Y-83474476D01*
X163493088Y-83490000D01*
X163271105Y-83490000D01*
X163275812Y-83474482D01*
X163288072Y-83350000D01*
X163285000Y-83135750D01*
X163126250Y-82977000D01*
X162002000Y-82977000D01*
X162002000Y-82997000D01*
X161748000Y-82997000D01*
X161748000Y-82977000D01*
X160623750Y-82977000D01*
X160465000Y-83135750D01*
X160461928Y-83350000D01*
X160474188Y-83474482D01*
X160478895Y-83490000D01*
X156809802Y-83490000D01*
X157636730Y-82663072D01*
X157875000Y-82663072D01*
X158038500Y-82646969D01*
X158195716Y-82599278D01*
X158340608Y-82521831D01*
X158467606Y-82417606D01*
X158500000Y-82378134D01*
X158532394Y-82417606D01*
X158659392Y-82521831D01*
X158804284Y-82599278D01*
X158961500Y-82646969D01*
X159125000Y-82663072D01*
X159525000Y-82663072D01*
X159688500Y-82646969D01*
X159845716Y-82599278D01*
X159990608Y-82521831D01*
X160117606Y-82417606D01*
X160205916Y-82310000D01*
X160465868Y-82310000D01*
X160461928Y-82350000D01*
X160465000Y-82564250D01*
X160623750Y-82723000D01*
X161748000Y-82723000D01*
X161748000Y-82703000D01*
X162002000Y-82703000D01*
X162002000Y-82723000D01*
X163126250Y-82723000D01*
X163285000Y-82564250D01*
X163288072Y-82350000D01*
X163284132Y-82310000D01*
X165715868Y-82310000D01*
X165711928Y-82350000D01*
X165715000Y-82564250D01*
X165873750Y-82723000D01*
X166998000Y-82723000D01*
X166998000Y-82703000D01*
X167252000Y-82703000D01*
X167252000Y-82723000D01*
X168376250Y-82723000D01*
X168535000Y-82564250D01*
X168538072Y-82350000D01*
X168525812Y-82225518D01*
X168489502Y-82105820D01*
X168432939Y-82000000D01*
X168489502Y-81894180D01*
X168525812Y-81774482D01*
X168538072Y-81650000D01*
X168538072Y-80710000D01*
X171218704Y-80710000D01*
X171178169Y-80759392D01*
%TA.AperFunction,Conductor*%
D28*
G36*
X171178169Y-80759392D02*
G01*
X171167009Y-80780271D01*
X171120253Y-80794454D01*
X170988224Y-80865026D01*
X170872499Y-80959999D01*
X170848701Y-80988997D01*
X168537360Y-83300339D01*
X168535000Y-83135750D01*
X168376250Y-82977000D01*
X167252000Y-82977000D01*
X167252000Y-82997000D01*
X166998000Y-82997000D01*
X166998000Y-82977000D01*
X165873750Y-82977000D01*
X165715000Y-83135750D01*
X165711928Y-83350000D01*
X165724188Y-83474482D01*
X165728895Y-83490000D01*
X165506912Y-83490000D01*
X165510000Y-83474476D01*
X165510000Y-83275524D01*
X165471186Y-83080394D01*
X165395050Y-82896586D01*
X165284518Y-82731163D01*
X165143837Y-82590482D01*
X164978414Y-82479950D01*
X164794606Y-82403814D01*
X164599476Y-82365000D01*
X164400524Y-82365000D01*
X164205394Y-82403814D01*
X164021586Y-82479950D01*
X163856163Y-82590482D01*
X163715482Y-82731163D01*
X163604950Y-82896586D01*
X163528814Y-83080394D01*
X163490000Y-83275524D01*
X163490000Y-83474476D01*
X163493088Y-83490000D01*
X163271105Y-83490000D01*
X163275812Y-83474482D01*
X163288072Y-83350000D01*
X163285000Y-83135750D01*
X163126250Y-82977000D01*
X162002000Y-82977000D01*
X162002000Y-82997000D01*
X161748000Y-82997000D01*
X161748000Y-82977000D01*
X160623750Y-82977000D01*
X160465000Y-83135750D01*
X160461928Y-83350000D01*
X160474188Y-83474482D01*
X160478895Y-83490000D01*
X156809802Y-83490000D01*
X157636730Y-82663072D01*
X157875000Y-82663072D01*
X158038500Y-82646969D01*
X158195716Y-82599278D01*
X158340608Y-82521831D01*
X158467606Y-82417606D01*
X158500000Y-82378134D01*
X158532394Y-82417606D01*
X158659392Y-82521831D01*
X158804284Y-82599278D01*
X158961500Y-82646969D01*
X159125000Y-82663072D01*
X159525000Y-82663072D01*
X159688500Y-82646969D01*
X159845716Y-82599278D01*
X159990608Y-82521831D01*
X160117606Y-82417606D01*
X160205916Y-82310000D01*
X160465868Y-82310000D01*
X160461928Y-82350000D01*
X160465000Y-82564250D01*
X160623750Y-82723000D01*
X161748000Y-82723000D01*
X161748000Y-82703000D01*
X162002000Y-82703000D01*
X162002000Y-82723000D01*
X163126250Y-82723000D01*
X163285000Y-82564250D01*
X163288072Y-82350000D01*
X163284132Y-82310000D01*
X165715868Y-82310000D01*
X165711928Y-82350000D01*
X165715000Y-82564250D01*
X165873750Y-82723000D01*
X166998000Y-82723000D01*
X166998000Y-82703000D01*
X167252000Y-82703000D01*
X167252000Y-82723000D01*
X168376250Y-82723000D01*
X168535000Y-82564250D01*
X168538072Y-82350000D01*
X168525812Y-82225518D01*
X168489502Y-82105820D01*
X168432939Y-82000000D01*
X168489502Y-81894180D01*
X168525812Y-81774482D01*
X168538072Y-81650000D01*
X168538072Y-80710000D01*
X171218704Y-80710000D01*
X171178169Y-80759392D01*
G37*
%TD.AperFunction*%
%TD*%
D29*
X172500000Y-85000000D03*
X174500000Y-85000000D03*
X173500000Y-85000000D03*
X167150000Y-85550000D03*
X115550000Y-86600000D03*
X108950000Y-97300000D03*
X112600000Y-91500000D03*
X154400000Y-81050000D03*
X183400000Y-98300000D03*
X186250000Y-98300000D03*
X176300000Y-98700000D03*
X128250000Y-92750000D03*
X115700000Y-98100000D03*
X120000000Y-81800000D03*
X143100000Y-90700000D03*
X144800000Y-90700000D03*
X144800000Y-89150000D03*
X143100000Y-89150000D03*
X191000000Y-88000000D03*
X191000000Y-89000000D03*
X191000000Y-90000000D03*
X191000000Y-91000000D03*
X131500000Y-87500000D03*
X132500000Y-87500000D03*
X133500000Y-87500000D03*
X134500000Y-87500000D03*
X122500000Y-94000000D03*
X114500000Y-89500000D03*
X115500000Y-89500000D03*
X133000000Y-95500000D03*
X134000000Y-95500000D03*
X135000000Y-95500000D03*
X178500000Y-97000000D03*
X178500000Y-98000000D03*
X168750000Y-82500000D03*
X183250000Y-82450000D03*
X160000000Y-83000000D03*
X174500000Y-83000000D03*
X126100000Y-97150000D03*
X109500000Y-92450000D03*
X109500000Y-87600000D03*
X154600000Y-93700000D03*
X156600000Y-93100000D03*
X115982929Y-85232927D03*
X114150000Y-85250000D03*
X149300000Y-85150000D03*
X153100000Y-85200000D03*
X154310349Y-86410349D03*
X150450000Y-92899998D03*
X147250000Y-95300004D03*
X151250000Y-87450000D03*
X154100000Y-90200000D03*
X153300000Y-91200000D03*
X150500000Y-88350000D03*
X152300000Y-95100000D03*
X145350000Y-96050000D03*
X154900000Y-98950000D03*
X152149998Y-98950000D03*
X151200000Y-84100000D03*
X156850000Y-96150000D03*
X141200000Y-95950000D03*
X153900000Y-95525010D03*
X141100000Y-92200000D03*
X143100000Y-94700000D03*
X139150000Y-94650000D03*
X139149996Y-92850000D03*
X148700000Y-94600000D03*
X148700000Y-92900000D03*
X159100000Y-88700000D03*
X159200000Y-90100000D03*
X165600000Y-93200000D03*
X165600000Y-90660000D03*
X165600000Y-88120000D03*
X165600000Y-85580000D03*
X164500000Y-80625000D03*
X164500000Y-83375000D03*
X179000000Y-80625000D03*
X179000000Y-83375000D03*
X187700000Y-82310000D03*
X187700000Y-84850000D03*
X187700000Y-87390000D03*
X187700000Y-89930000D03*
X187700000Y-92470000D03*
X187700000Y-95010000D03*
X187700000Y-97550000D03*
D30*
X106905000Y-85680000D03*
X106905000Y-94320000D03*
D31*
X102725000Y-85680000D03*
X102725000Y-94320000D03*
D29*
X106405000Y-92890000D03*
X106405000Y-87110000D03*
X191000000Y-98250000D03*
X191000000Y-81750000D03*
X102000000Y-98250000D03*
X102000000Y-81750000D03*
X175000000Y-97500000D03*
X172460000Y-97500000D03*
X169920000Y-97500000D03*
X167380000Y-97500000D03*
X164840000Y-97500000D03*
M02*
