%TF.GenerationSoftware,KiCad,Pcbnew,(5.1.10)-1*%
%TF.CreationDate,2021-05-06T00:31:15+08:00*%
%TF.ProjectId,wifivfd,77696669-7666-4642-9e6b-696361645f70,rev?*%
%TF.SameCoordinates,Original*%
%TF.FileFunction,Legend,Bot*%
%TF.FilePolarity,Positive*%
%FSLAX46Y46*%
G04 Gerber Fmt 4.6, Leading zero omitted, Abs format (unit mm)*
G04 Created by KiCad (PCBNEW (5.1.10)-1) date 2021-05-06 00:31:15*
%MOMM*%
%LPD*%
G01*
G04 APERTURE LIST*
%ADD10C,0.150000*%
%ADD11C,0.200000*%
%ADD12C,0.120000*%
%ADD13C,0.010000*%
G04 APERTURE END LIST*
D10*
X133300000Y-96900000D02*
X132728571Y-96900000D01*
X133414285Y-97242857D02*
X133014285Y-96042857D01*
X132614285Y-97242857D01*
X132214285Y-97242857D02*
X132214285Y-96042857D01*
X131528571Y-97242857D02*
X132042857Y-96557142D01*
X131528571Y-96042857D02*
X132214285Y-96728571D01*
X131014285Y-96042857D02*
X131014285Y-97014285D01*
X130957142Y-97128571D01*
X130900000Y-97185714D01*
X130785714Y-97242857D01*
X130557142Y-97242857D01*
X130442857Y-97185714D01*
X130385714Y-97128571D01*
X130328571Y-97014285D01*
X130328571Y-96042857D01*
X129757142Y-97242857D02*
X129757142Y-96042857D01*
X129071428Y-97242857D02*
X129585714Y-96557142D01*
X129071428Y-96042857D02*
X129757142Y-96728571D01*
X128557142Y-97242857D02*
X128557142Y-96042857D01*
X127985714Y-97242857D02*
X127985714Y-96042857D01*
X127300000Y-97242857D01*
X127300000Y-96042857D01*
X125128571Y-97128571D02*
X125185714Y-97185714D01*
X125357142Y-97242857D01*
X125471428Y-97242857D01*
X125642857Y-97185714D01*
X125757142Y-97071428D01*
X125814285Y-96957142D01*
X125871428Y-96728571D01*
X125871428Y-96557142D01*
X125814285Y-96328571D01*
X125757142Y-96214285D01*
X125642857Y-96100000D01*
X125471428Y-96042857D01*
X125357142Y-96042857D01*
X125185714Y-96100000D01*
X125128571Y-96157142D01*
X124385714Y-96042857D02*
X124157142Y-96042857D01*
X124042857Y-96100000D01*
X123928571Y-96214285D01*
X123871428Y-96442857D01*
X123871428Y-96842857D01*
X123928571Y-97071428D01*
X124042857Y-97185714D01*
X124157142Y-97242857D01*
X124385714Y-97242857D01*
X124500000Y-97185714D01*
X124614285Y-97071428D01*
X124671428Y-96842857D01*
X124671428Y-96442857D01*
X124614285Y-96214285D01*
X124500000Y-96100000D01*
X124385714Y-96042857D01*
X123357142Y-97242857D02*
X123357142Y-96042857D01*
X122671428Y-97242857D01*
X122671428Y-96042857D01*
X122157142Y-97185714D02*
X121985714Y-97242857D01*
X121700000Y-97242857D01*
X121585714Y-97185714D01*
X121528571Y-97128571D01*
X121471428Y-97014285D01*
X121471428Y-96900000D01*
X121528571Y-96785714D01*
X121585714Y-96728571D01*
X121700000Y-96671428D01*
X121928571Y-96614285D01*
X122042857Y-96557142D01*
X122100000Y-96500000D01*
X122157142Y-96385714D01*
X122157142Y-96271428D01*
X122100000Y-96157142D01*
X122042857Y-96100000D01*
X121928571Y-96042857D01*
X121642857Y-96042857D01*
X121471428Y-96100000D01*
X121128571Y-96042857D02*
X120442857Y-96042857D01*
X120785714Y-97242857D02*
X120785714Y-96042857D01*
X119357142Y-97242857D02*
X119757142Y-96671428D01*
X120042857Y-97242857D02*
X120042857Y-96042857D01*
X119585714Y-96042857D01*
X119471428Y-96100000D01*
X119414285Y-96157142D01*
X119357142Y-96271428D01*
X119357142Y-96442857D01*
X119414285Y-96557142D01*
X119471428Y-96614285D01*
X119585714Y-96671428D01*
X120042857Y-96671428D01*
X118842857Y-96042857D02*
X118842857Y-97014285D01*
X118785714Y-97128571D01*
X118728571Y-97185714D01*
X118614285Y-97242857D01*
X118385714Y-97242857D01*
X118271428Y-97185714D01*
X118214285Y-97128571D01*
X118157142Y-97014285D01*
X118157142Y-96042857D01*
X116900000Y-97128571D02*
X116957142Y-97185714D01*
X117128571Y-97242857D01*
X117242857Y-97242857D01*
X117414285Y-97185714D01*
X117528571Y-97071428D01*
X117585714Y-96957142D01*
X117642857Y-96728571D01*
X117642857Y-96557142D01*
X117585714Y-96328571D01*
X117528571Y-96214285D01*
X117414285Y-96100000D01*
X117242857Y-96042857D01*
X117128571Y-96042857D01*
X116957142Y-96100000D01*
X116900000Y-96157142D01*
X116557142Y-96042857D02*
X115871428Y-96042857D01*
X116214285Y-97242857D02*
X116214285Y-96042857D01*
X115471428Y-97242857D02*
X115471428Y-96042857D01*
X114671428Y-96042857D02*
X114442857Y-96042857D01*
X114328571Y-96100000D01*
X114214285Y-96214285D01*
X114157142Y-96442857D01*
X114157142Y-96842857D01*
X114214285Y-97071428D01*
X114328571Y-97185714D01*
X114442857Y-97242857D01*
X114671428Y-97242857D01*
X114785714Y-97185714D01*
X114900000Y-97071428D01*
X114957142Y-96842857D01*
X114957142Y-96442857D01*
X114900000Y-96214285D01*
X114785714Y-96100000D01*
X114671428Y-96042857D01*
X113642857Y-97242857D02*
X113642857Y-96042857D01*
X112957142Y-97242857D01*
X112957142Y-96042857D01*
D11*
X137342857Y-85078571D02*
X136985714Y-86078571D01*
X136628571Y-85078571D01*
X135271428Y-86078571D02*
X136128571Y-86078571D01*
X135700000Y-86078571D02*
X135700000Y-84578571D01*
X135842857Y-84792857D01*
X135985714Y-84935714D01*
X136128571Y-85007142D01*
X134628571Y-85935714D02*
X134557142Y-86007142D01*
X134628571Y-86078571D01*
X134700000Y-86007142D01*
X134628571Y-85935714D01*
X134628571Y-86078571D01*
X133985714Y-84721428D02*
X133914285Y-84650000D01*
X133771428Y-84578571D01*
X133414285Y-84578571D01*
X133271428Y-84650000D01*
X133200000Y-84721428D01*
X133128571Y-84864285D01*
X133128571Y-85007142D01*
X133200000Y-85221428D01*
X134057142Y-86078571D01*
X133128571Y-86078571D01*
D12*
X184480000Y-83260000D02*
X184480000Y-95520000D01*
X168480000Y-83260000D02*
X184480000Y-83260000D01*
X168480000Y-95520000D02*
X184480000Y-95520000D01*
D11*
X137500000Y-82178571D02*
X137142857Y-83678571D01*
X136857142Y-82607142D01*
X136571428Y-83678571D01*
X136214285Y-82178571D01*
X135642857Y-83678571D02*
X135642857Y-82678571D01*
X135642857Y-82178571D02*
X135714285Y-82250000D01*
X135642857Y-82321428D01*
X135571428Y-82250000D01*
X135642857Y-82178571D01*
X135642857Y-82321428D01*
X134428571Y-82892857D02*
X134928571Y-82892857D01*
X134928571Y-83678571D02*
X134928571Y-82178571D01*
X134214285Y-82178571D01*
X133642857Y-83678571D02*
X133642857Y-82678571D01*
X133642857Y-82178571D02*
X133714285Y-82250000D01*
X133642857Y-82321428D01*
X133571428Y-82250000D01*
X133642857Y-82178571D01*
X133642857Y-82321428D01*
X132000000Y-82178571D02*
X131500000Y-83678571D01*
X131000000Y-82178571D01*
X130000000Y-82892857D02*
X130500000Y-82892857D01*
X130500000Y-83678571D02*
X130500000Y-82178571D01*
X129785714Y-82178571D01*
X129214285Y-83678571D02*
X129214285Y-82178571D01*
X128857142Y-82178571D01*
X128642857Y-82250000D01*
X128500000Y-82392857D01*
X128428571Y-82535714D01*
X128357142Y-82821428D01*
X128357142Y-83035714D01*
X128428571Y-83321428D01*
X128500000Y-83464285D01*
X128642857Y-83607142D01*
X128857142Y-83678571D01*
X129214285Y-83678571D01*
X125500000Y-82107142D02*
X126785714Y-84035714D01*
X123857142Y-83678571D02*
X123857142Y-82178571D01*
X123857142Y-82750000D02*
X123714285Y-82678571D01*
X123428571Y-82678571D01*
X123285714Y-82750000D01*
X123214285Y-82821428D01*
X123142857Y-82964285D01*
X123142857Y-83392857D01*
X123214285Y-83535714D01*
X123285714Y-83607142D01*
X123428571Y-83678571D01*
X123714285Y-83678571D01*
X123857142Y-83607142D01*
X122642857Y-82678571D02*
X122285714Y-83678571D01*
X121928571Y-82678571D02*
X122285714Y-83678571D01*
X122428571Y-84035714D01*
X122500000Y-84107142D01*
X122642857Y-84178571D01*
X119285714Y-82964285D02*
X119357142Y-82892857D01*
X119500000Y-82821428D01*
X119642857Y-82821428D01*
X119785714Y-82892857D01*
X119857142Y-82964285D01*
X119928571Y-83107142D01*
X119928571Y-83250000D01*
X119857142Y-83392857D01*
X119785714Y-83464285D01*
X119642857Y-83535714D01*
X119500000Y-83535714D01*
X119357142Y-83464285D01*
X119285714Y-83392857D01*
X119285714Y-82821428D02*
X119285714Y-83392857D01*
X119214285Y-83464285D01*
X119142857Y-83464285D01*
X119000000Y-83392857D01*
X118928571Y-83250000D01*
X118928571Y-82892857D01*
X119071428Y-82678571D01*
X119285714Y-82535714D01*
X119571428Y-82464285D01*
X119857142Y-82535714D01*
X120071428Y-82678571D01*
X120214285Y-82892857D01*
X120285714Y-83178571D01*
X120214285Y-83464285D01*
X120071428Y-83678571D01*
X119857142Y-83821428D01*
X119571428Y-83892857D01*
X119285714Y-83821428D01*
X119071428Y-83678571D01*
X117642857Y-83607142D02*
X117785714Y-83678571D01*
X118071428Y-83678571D01*
X118214285Y-83607142D01*
X118285714Y-83535714D01*
X118357142Y-83392857D01*
X118357142Y-82964285D01*
X118285714Y-82821428D01*
X118214285Y-82750000D01*
X118071428Y-82678571D01*
X117785714Y-82678571D01*
X117642857Y-82750000D01*
X117000000Y-83678571D02*
X117000000Y-82678571D01*
X117000000Y-82178571D02*
X117071428Y-82250000D01*
X117000000Y-82321428D01*
X116928571Y-82250000D01*
X117000000Y-82178571D01*
X117000000Y-82321428D01*
X116285714Y-83678571D02*
X116285714Y-82678571D01*
X116285714Y-82178571D02*
X116357142Y-82250000D01*
X116285714Y-82321428D01*
X116214285Y-82250000D01*
X116285714Y-82178571D01*
X116285714Y-82321428D01*
X115642857Y-83607142D02*
X115500000Y-83678571D01*
X115214285Y-83678571D01*
X115071428Y-83607142D01*
X115000000Y-83464285D01*
X115000000Y-83392857D01*
X115071428Y-83250000D01*
X115214285Y-83178571D01*
X115428571Y-83178571D01*
X115571428Y-83107142D01*
X115642857Y-82964285D01*
X115642857Y-82892857D01*
X115571428Y-82750000D01*
X115428571Y-82678571D01*
X115214285Y-82678571D01*
X115071428Y-82750000D01*
X113714285Y-83678571D02*
X113714285Y-82892857D01*
X113785714Y-82750000D01*
X113928571Y-82678571D01*
X114214285Y-82678571D01*
X114357142Y-82750000D01*
X113714285Y-83607142D02*
X113857142Y-83678571D01*
X114214285Y-83678571D01*
X114357142Y-83607142D01*
X114428571Y-83464285D01*
X114428571Y-83321428D01*
X114357142Y-83178571D01*
X114214285Y-83107142D01*
X113857142Y-83107142D01*
X113714285Y-83035714D01*
X113000000Y-83678571D02*
X113000000Y-82678571D01*
X113000000Y-82178571D02*
X113071428Y-82250000D01*
X113000000Y-82321428D01*
X112928571Y-82250000D01*
X113000000Y-82178571D01*
X113000000Y-82321428D01*
X111642857Y-83607142D02*
X111785714Y-83678571D01*
X112071428Y-83678571D01*
X112214285Y-83607142D01*
X112285714Y-83535714D01*
X112357142Y-83392857D01*
X112357142Y-82964285D01*
X112285714Y-82821428D01*
X112214285Y-82750000D01*
X112071428Y-82678571D01*
X111785714Y-82678571D01*
X111642857Y-82750000D01*
X111000000Y-83678571D02*
X111000000Y-82178571D01*
X110357142Y-83678571D02*
X110357142Y-82892857D01*
X110428571Y-82750000D01*
X110571428Y-82678571D01*
X110785714Y-82678571D01*
X110928571Y-82750000D01*
X111000000Y-82821428D01*
X109000000Y-83678571D02*
X109000000Y-82892857D01*
X109071428Y-82750000D01*
X109214285Y-82678571D01*
X109500000Y-82678571D01*
X109642857Y-82750000D01*
X109000000Y-83607142D02*
X109142857Y-83678571D01*
X109500000Y-83678571D01*
X109642857Y-83607142D01*
X109714285Y-83464285D01*
X109714285Y-83321428D01*
X109642857Y-83178571D01*
X109500000Y-83107142D01*
X109142857Y-83107142D01*
X109000000Y-83035714D01*
X108285714Y-82678571D02*
X108285714Y-83678571D01*
X108285714Y-82821428D02*
X108214285Y-82750000D01*
X108071428Y-82678571D01*
X107857142Y-82678571D01*
X107714285Y-82750000D01*
X107642857Y-82892857D01*
X107642857Y-83678571D01*
D13*
%TO.C,G\u002A\u002A\u002A*%
G36*
X121972698Y-86154963D02*
G01*
X121268354Y-86155392D01*
X120592399Y-86156039D01*
X119956319Y-86156904D01*
X119371597Y-86157987D01*
X119340032Y-86158055D01*
X115643563Y-86166125D01*
X116452479Y-86983687D01*
X117261394Y-87801250D01*
X123046135Y-87798545D01*
X128830875Y-87795840D01*
X129630437Y-86980982D01*
X130429999Y-86166125D01*
X126733250Y-86158055D01*
X126151766Y-86156960D01*
X125518275Y-86156083D01*
X124844263Y-86155423D01*
X124141214Y-86154981D01*
X123420613Y-86154757D01*
X122693946Y-86154751D01*
X121972698Y-86154963D01*
G37*
X121972698Y-86154963D02*
X121268354Y-86155392D01*
X120592399Y-86156039D01*
X119956319Y-86156904D01*
X119371597Y-86157987D01*
X119340032Y-86158055D01*
X115643563Y-86166125D01*
X116452479Y-86983687D01*
X117261394Y-87801250D01*
X123046135Y-87798545D01*
X128830875Y-87795840D01*
X129630437Y-86980982D01*
X130429999Y-86166125D01*
X126733250Y-86158055D01*
X126151766Y-86156960D01*
X125518275Y-86156083D01*
X124844263Y-86155423D01*
X124141214Y-86154981D01*
X123420613Y-86154757D01*
X122693946Y-86154751D01*
X121972698Y-86154963D01*
G36*
X122496750Y-90752869D02*
G01*
X122491988Y-91785309D01*
X122490741Y-92036185D01*
X122489421Y-92267317D01*
X122488086Y-92470892D01*
X122486794Y-92639094D01*
X122485602Y-92764109D01*
X122484569Y-92838123D01*
X122484050Y-92854791D01*
X122494033Y-92895907D01*
X122536207Y-92889939D01*
X122612379Y-92835816D01*
X122724357Y-92732468D01*
X122773592Y-92683199D01*
X122873652Y-92582193D01*
X122960244Y-92496019D01*
X123021654Y-92436270D01*
X123042305Y-92417274D01*
X123081418Y-92379869D01*
X123152274Y-92308303D01*
X123243048Y-92214609D01*
X123299718Y-92155336D01*
X123394382Y-92058908D01*
X123474556Y-91982890D01*
X123529344Y-91937316D01*
X123545781Y-91928750D01*
X123554115Y-91897616D01*
X123561271Y-91806666D01*
X123567150Y-91659573D01*
X123571652Y-91460010D01*
X123574679Y-91211651D01*
X123576132Y-90918170D01*
X123576250Y-90797573D01*
X123576250Y-89666397D01*
X122496750Y-90752869D01*
G37*
X122496750Y-90752869D02*
X122491988Y-91785309D01*
X122490741Y-92036185D01*
X122489421Y-92267317D01*
X122488086Y-92470892D01*
X122486794Y-92639094D01*
X122485602Y-92764109D01*
X122484569Y-92838123D01*
X122484050Y-92854791D01*
X122494033Y-92895907D01*
X122536207Y-92889939D01*
X122612379Y-92835816D01*
X122724357Y-92732468D01*
X122773592Y-92683199D01*
X122873652Y-92582193D01*
X122960244Y-92496019D01*
X123021654Y-92436270D01*
X123042305Y-92417274D01*
X123081418Y-92379869D01*
X123152274Y-92308303D01*
X123243048Y-92214609D01*
X123299718Y-92155336D01*
X123394382Y-92058908D01*
X123474556Y-91982890D01*
X123529344Y-91937316D01*
X123545781Y-91928750D01*
X123554115Y-91897616D01*
X123561271Y-91806666D01*
X123567150Y-91659573D01*
X123571652Y-91460010D01*
X123574679Y-91211651D01*
X123576132Y-90918170D01*
X123576250Y-90797573D01*
X123576250Y-89666397D01*
X122496750Y-90752869D01*
G36*
X126084500Y-90611125D02*
G01*
X126084795Y-91005291D01*
X126085648Y-91380579D01*
X126087014Y-91732221D01*
X126088848Y-92055450D01*
X126091104Y-92345499D01*
X126093737Y-92597599D01*
X126096703Y-92806985D01*
X126099954Y-92968888D01*
X126103447Y-93078541D01*
X126107136Y-93131177D01*
X126108502Y-93135250D01*
X126135848Y-93113531D01*
X126202380Y-93051894D01*
X126302680Y-92955619D01*
X126431331Y-92829982D01*
X126582914Y-92680262D01*
X126752011Y-92511739D01*
X126870502Y-92392854D01*
X127608500Y-91650458D01*
X127608500Y-88087000D01*
X126084500Y-88087000D01*
X126084500Y-90611125D01*
G37*
X126084500Y-90611125D02*
X126084795Y-91005291D01*
X126085648Y-91380579D01*
X126087014Y-91732221D01*
X126088848Y-92055450D01*
X126091104Y-92345499D01*
X126093737Y-92597599D01*
X126096703Y-92806985D01*
X126099954Y-92968888D01*
X126103447Y-93078541D01*
X126107136Y-93131177D01*
X126108502Y-93135250D01*
X126135848Y-93113531D01*
X126202380Y-93051894D01*
X126302680Y-92955619D01*
X126431331Y-92829982D01*
X126582914Y-92680262D01*
X126752011Y-92511739D01*
X126870502Y-92392854D01*
X127608500Y-91650458D01*
X127608500Y-88087000D01*
X126084500Y-88087000D01*
X126084500Y-90611125D01*
G36*
X118464500Y-89847058D02*
G01*
X118465070Y-90237838D01*
X118466739Y-90590015D01*
X118469445Y-90899987D01*
X118473127Y-91164155D01*
X118477725Y-91378918D01*
X118483177Y-91540676D01*
X118489423Y-91645829D01*
X118495774Y-91689371D01*
X118534257Y-91756575D01*
X118572074Y-91788905D01*
X118613345Y-91817810D01*
X118683094Y-91878857D01*
X118769203Y-91960018D01*
X118859551Y-92049263D01*
X118942019Y-92134561D01*
X119004488Y-92203883D01*
X119034837Y-92245198D01*
X119036000Y-92249402D01*
X119061495Y-92279523D01*
X119091563Y-92294855D01*
X119136282Y-92326657D01*
X119210394Y-92394549D01*
X119301510Y-92486807D01*
X119353500Y-92542718D01*
X119477498Y-92674975D01*
X119618944Y-92819859D01*
X119750953Y-92949932D01*
X119774188Y-92972069D01*
X119988500Y-93174691D01*
X119988500Y-88087000D01*
X118464500Y-88087000D01*
X118464500Y-89847058D01*
G37*
X118464500Y-89847058D02*
X118465070Y-90237838D01*
X118466739Y-90590015D01*
X118469445Y-90899987D01*
X118473127Y-91164155D01*
X118477725Y-91378918D01*
X118483177Y-91540676D01*
X118489423Y-91645829D01*
X118495774Y-91689371D01*
X118534257Y-91756575D01*
X118572074Y-91788905D01*
X118613345Y-91817810D01*
X118683094Y-91878857D01*
X118769203Y-91960018D01*
X118859551Y-92049263D01*
X118942019Y-92134561D01*
X119004488Y-92203883D01*
X119034837Y-92245198D01*
X119036000Y-92249402D01*
X119061495Y-92279523D01*
X119091563Y-92294855D01*
X119136282Y-92326657D01*
X119210394Y-92394549D01*
X119301510Y-92486807D01*
X119353500Y-92542718D01*
X119477498Y-92674975D01*
X119618944Y-92819859D01*
X119750953Y-92949932D01*
X119774188Y-92972069D01*
X119988500Y-93174691D01*
X119988500Y-88087000D01*
X118464500Y-88087000D01*
X118464500Y-89847058D01*
G36*
X120504268Y-90899184D02*
G01*
X120496161Y-93727244D01*
X122084269Y-95317054D01*
X122076197Y-91694089D01*
X122068125Y-88071125D01*
X120512375Y-88071125D01*
X120504268Y-90899184D01*
G37*
X120504268Y-90899184D02*
X120496161Y-93727244D01*
X122084269Y-95317054D01*
X122076197Y-91694089D01*
X122068125Y-88071125D01*
X120512375Y-88071125D01*
X120504268Y-90899184D01*
G36*
X124351329Y-88060755D02*
G01*
X124204006Y-88063416D01*
X124101792Y-88068800D01*
X124038565Y-88077148D01*
X124008207Y-88088704D01*
X124003856Y-88094381D01*
X124001910Y-88130837D01*
X124000177Y-88226734D01*
X123998666Y-88378014D01*
X123997384Y-88580617D01*
X123996340Y-88830484D01*
X123995541Y-89123558D01*
X123994996Y-89455779D01*
X123994712Y-89823089D01*
X123994697Y-90221428D01*
X123994961Y-90646739D01*
X123995509Y-91094961D01*
X123996352Y-91562038D01*
X123996702Y-91722375D01*
X124004875Y-95310125D01*
X124719250Y-94589555D01*
X124898004Y-94408959D01*
X125065959Y-94238720D01*
X125216908Y-94085173D01*
X125344643Y-93954652D01*
X125442957Y-93853490D01*
X125505643Y-93788023D01*
X125521110Y-93771299D01*
X125608595Y-93673612D01*
X125600485Y-90872368D01*
X125592375Y-88071125D01*
X124805780Y-88062631D01*
X124549880Y-88060574D01*
X124351329Y-88060755D01*
G37*
X124351329Y-88060755D02*
X124204006Y-88063416D01*
X124101792Y-88068800D01*
X124038565Y-88077148D01*
X124008207Y-88088704D01*
X124003856Y-88094381D01*
X124001910Y-88130837D01*
X124000177Y-88226734D01*
X123998666Y-88378014D01*
X123997384Y-88580617D01*
X123996340Y-88830484D01*
X123995541Y-89123558D01*
X123994996Y-89455779D01*
X123994712Y-89823089D01*
X123994697Y-90221428D01*
X123994961Y-90646739D01*
X123995509Y-91094961D01*
X123996352Y-91562038D01*
X123996702Y-91722375D01*
X124004875Y-95310125D01*
X124719250Y-94589555D01*
X124898004Y-94408959D01*
X125065959Y-94238720D01*
X125216908Y-94085173D01*
X125344643Y-93954652D01*
X125442957Y-93853490D01*
X125505643Y-93788023D01*
X125521110Y-93771299D01*
X125608595Y-93673612D01*
X125600485Y-90872368D01*
X125592375Y-88071125D01*
X124805780Y-88062631D01*
X124549880Y-88060574D01*
X124351329Y-88060755D01*
D12*
%TO.C,DHT11*%
X162730000Y-95520000D02*
X168470000Y-95520000D01*
X168480000Y-95520000D02*
X168480000Y-83260000D01*
X168480000Y-83260000D02*
X162720000Y-83260000D01*
X162720000Y-83260000D02*
X162720000Y-95510000D01*
X162440000Y-95800000D02*
X162440000Y-93800000D01*
X162440000Y-95800000D02*
X164050000Y-95800000D01*
D10*
X176852380Y-87280952D02*
X175852380Y-87280952D01*
X175852380Y-87519047D01*
X175900000Y-87661904D01*
X175995238Y-87757142D01*
X176090476Y-87804761D01*
X176280952Y-87852380D01*
X176423809Y-87852380D01*
X176614285Y-87804761D01*
X176709523Y-87757142D01*
X176804761Y-87661904D01*
X176852380Y-87519047D01*
X176852380Y-87280952D01*
X176852380Y-88280952D02*
X175852380Y-88280952D01*
X176328571Y-88280952D02*
X176328571Y-88852380D01*
X176852380Y-88852380D02*
X175852380Y-88852380D01*
X175852380Y-89185714D02*
X175852380Y-89757142D01*
X176852380Y-89471428D02*
X175852380Y-89471428D01*
X176852380Y-90614285D02*
X176852380Y-90042857D01*
X176852380Y-90328571D02*
X175852380Y-90328571D01*
X175995238Y-90233333D01*
X176090476Y-90138095D01*
X176138095Y-90042857D01*
X176852380Y-91566666D02*
X176852380Y-90995238D01*
X176852380Y-91280952D02*
X175852380Y-91280952D01*
X175995238Y-91185714D01*
X176090476Y-91090476D01*
X176138095Y-90995238D01*
%TD*%
M02*
