M48
; DRILL file {KiCad (5.1.10)-1} date 05/06/21 00:31:15
; FORMAT={-:-/ absolute / metric / decimal}
; #@! TF.CreationDate,2021-05-06T00:31:15+08:00
; #@! TF.GenerationSoftware,Kicad,Pcbnew,(5.1.10)-1
; #@! TF.FileFunction,Plated,1,2,PTH
FMAT,2
METRIC
T1C0.400
T2C0.600
T3C0.800
T4C1.000
%
G90
G05
T1
X108.95Y-97.3
X109.5Y-87.6
X109.5Y-92.45
X112.6Y-91.5
X114.15Y-85.25
X114.5Y-89.5
X115.5Y-89.5
X115.55Y-86.6
X115.7Y-98.1
X115.983Y-85.233
X120.0Y-81.8
X122.5Y-94.0
X126.1Y-97.15
X128.25Y-92.75
X131.5Y-87.5
X132.5Y-87.5
X133.0Y-95.5
X133.5Y-87.5
X134.0Y-95.5
X134.5Y-87.5
X135.0Y-95.5
X139.15Y-92.85
X139.15Y-94.65
X141.1Y-92.2
X141.2Y-95.95
X143.1Y-89.15
X143.1Y-90.7
X143.1Y-94.7
X144.8Y-89.15
X144.8Y-90.7
X145.35Y-96.05
X147.25Y-95.3
X148.7Y-92.9
X148.7Y-94.6
X149.3Y-85.15
X150.45Y-92.9
X150.5Y-88.35
X151.2Y-84.1
X151.25Y-87.45
X152.15Y-98.95
X152.3Y-95.1
X153.1Y-85.2
X153.3Y-91.2
X153.9Y-95.525
X154.1Y-90.2
X154.31Y-86.41
X154.4Y-81.05
X154.6Y-93.7
X154.9Y-98.95
X156.6Y-93.1
X156.85Y-96.15
X159.1Y-88.7
X159.2Y-90.1
X160.0Y-83.0
X167.15Y-85.55
X168.75Y-82.5
X172.5Y-85.0
X173.5Y-85.0
X174.5Y-83.0
X174.5Y-85.0
X176.3Y-98.7
X178.5Y-97.0
X178.5Y-98.0
X183.25Y-82.45
X183.4Y-98.3
X186.25Y-98.3
X191.0Y-88.0
X191.0Y-89.0
X191.0Y-90.0
X191.0Y-91.0
T3
X165.6Y-85.58
X165.6Y-88.12
X165.6Y-90.66
X165.6Y-93.2
T4
X164.84Y-97.5
X167.38Y-97.5
X169.92Y-97.5
X172.46Y-97.5
X175.0Y-97.5
X187.7Y-82.31
X187.7Y-84.85
X187.7Y-87.39
X187.7Y-89.93
X187.7Y-92.47
X187.7Y-95.01
X187.7Y-97.55
T2
X103.025Y-85.68
X102.825Y-85.68
X102.625Y-85.68
X102.425Y-85.68
X103.025Y-94.32
X102.825Y-94.32
X102.625Y-94.32
X102.425Y-94.32
X107.455Y-85.68
X107.255Y-85.68
X107.055Y-85.68
X106.855Y-85.68
X106.655Y-85.68
X106.355Y-85.68
X107.455Y-94.32
X107.255Y-94.32
X107.055Y-94.32
X106.855Y-94.32
X106.655Y-94.32
X106.355Y-94.32
T0
M30
