%TF.GenerationSoftware,KiCad,Pcbnew,(5.1.10)-1*%
%TF.CreationDate,2021-05-06T00:31:15+08:00*%
%TF.ProjectId,wifivfd,77696669-7666-4642-9e6b-696361645f70,rev?*%
%TF.SameCoordinates,Original*%
%TF.FileFunction,Soldermask,Bot*%
%TF.FilePolarity,Negative*%
%FSLAX46Y46*%
G04 Gerber Fmt 4.6, Leading zero omitted, Abs format (unit mm)*
G04 Created by KiCad (PCBNEW (5.1.10)-1) date 2021-05-06 00:31:15*
%MOMM*%
%LPD*%
G01*
G04 APERTURE LIST*
%ADD10C,1.600000*%
%ADD11C,0.850000*%
%ADD12O,1.800000X1.800000*%
%ADD13O,2.200000X1.100000*%
%ADD14O,1.700000X1.100000*%
%ADD15C,0.750000*%
%ADD16C,2.200000*%
G04 APERTURE END LIST*
%TO.C,DHT11*%
G36*
G01*
X164800000Y-93950000D02*
X164800000Y-92450000D01*
G75*
G02*
X164850000Y-92400000I50000J0D01*
G01*
X166350000Y-92400000D01*
G75*
G02*
X166400000Y-92450000I0J-50000D01*
G01*
X166400000Y-93950000D01*
G75*
G02*
X166350000Y-94000000I-50000J0D01*
G01*
X164850000Y-94000000D01*
G75*
G02*
X164800000Y-93950000I0J50000D01*
G01*
G37*
D10*
X165600000Y-90660000D03*
X165600000Y-88120000D03*
X165600000Y-85580000D03*
%TD*%
D11*
%TO.C,Flash*%
X164500000Y-80625000D03*
X164500000Y-83375000D03*
%TD*%
%TO.C,RST*%
X179000000Y-80625000D03*
X179000000Y-83375000D03*
%TD*%
D12*
%TO.C,VFD*%
X187700000Y-82310000D03*
X187700000Y-84850000D03*
X187700000Y-87390000D03*
X187700000Y-89930000D03*
X187700000Y-92470000D03*
X187700000Y-95010000D03*
G36*
G01*
X188600000Y-96700000D02*
X188600000Y-98400000D01*
G75*
G02*
X188550000Y-98450000I-50000J0D01*
G01*
X186850000Y-98450000D01*
G75*
G02*
X186800000Y-98400000I0J50000D01*
G01*
X186800000Y-96700000D01*
G75*
G02*
X186850000Y-96650000I50000J0D01*
G01*
X188550000Y-96650000D01*
G75*
G02*
X188600000Y-96700000I0J-50000D01*
G01*
G37*
%TD*%
D13*
%TO.C,Type-C*%
X106905000Y-85680000D03*
X106905000Y-94320000D03*
D14*
X102725000Y-85680000D03*
X102725000Y-94320000D03*
D15*
X106405000Y-92890000D03*
X106405000Y-87110000D03*
%TD*%
D16*
%TO.C,REF\u002A\u002A*%
X191000000Y-98250000D03*
%TD*%
%TO.C,REF\u002A\u002A*%
X191000000Y-81750000D03*
%TD*%
%TO.C,REF\u002A\u002A*%
X102000000Y-98250000D03*
%TD*%
%TO.C,REF\u002A\u002A*%
X102000000Y-81750000D03*
%TD*%
%TO.C,I/O*%
G36*
G01*
X174150000Y-96600000D02*
X175850000Y-96600000D01*
G75*
G02*
X175900000Y-96650000I0J-50000D01*
G01*
X175900000Y-98350000D01*
G75*
G02*
X175850000Y-98400000I-50000J0D01*
G01*
X174150000Y-98400000D01*
G75*
G02*
X174100000Y-98350000I0J50000D01*
G01*
X174100000Y-96650000D01*
G75*
G02*
X174150000Y-96600000I50000J0D01*
G01*
G37*
D12*
X172460000Y-97500000D03*
X169920000Y-97500000D03*
X167380000Y-97500000D03*
X164840000Y-97500000D03*
%TD*%
M02*
