%TF.GenerationSoftware,KiCad,Pcbnew,(5.1.10)-1*%
%TF.CreationDate,2021-05-06T00:31:15+08:00*%
%TF.ProjectId,wifivfd,77696669-7666-4642-9e6b-696361645f70,rev?*%
%TF.SameCoordinates,Original*%
%TF.FileFunction,Paste,Top*%
%TF.FilePolarity,Positive*%
%FSLAX46Y46*%
G04 Gerber Fmt 4.6, Leading zero omitted, Abs format (unit mm)*
G04 Created by KiCad (PCBNEW (5.1.10)-1) date 2021-05-06 00:31:15*
%MOMM*%
%LPD*%
G01*
G04 APERTURE LIST*
%ADD10C,0.010000*%
%ADD11R,1.550000X1.000000*%
%ADD12R,1.100000X2.600000*%
%ADD13R,1.150000X0.300000*%
%ADD14R,3.800000X2.000000*%
%ADD15R,1.500000X2.000000*%
G04 APERTURE END LIST*
D10*
%TO.C,U1*%
G36*
X142859000Y-90966000D02*
G01*
X142859000Y-88966000D01*
X144859000Y-88966000D01*
X144859000Y-90966000D01*
X142859000Y-90966000D01*
G37*
X142859000Y-90966000D02*
X142859000Y-88966000D01*
X144859000Y-88966000D01*
X144859000Y-90966000D01*
X142859000Y-90966000D01*
%TD*%
D11*
%TO.C,Flash*%
X167125000Y-81150000D03*
X161875000Y-81150000D03*
X161875000Y-82850000D03*
X167125000Y-82850000D03*
%TD*%
%TO.C,RST*%
X181625000Y-81150000D03*
X176375000Y-81150000D03*
X176375000Y-82850000D03*
X181625000Y-82850000D03*
%TD*%
D12*
%TO.C,U1*%
X139200000Y-97950000D03*
X141200000Y-97950000D03*
X143200000Y-97950000D03*
X145200000Y-97950000D03*
X147200000Y-97950000D03*
X149200000Y-97950000D03*
X151200000Y-97950000D03*
X153200000Y-97950000D03*
X153200000Y-81950000D03*
X151200000Y-81950000D03*
X149200000Y-81950000D03*
X147200000Y-81950000D03*
X145200000Y-81950000D03*
X143200000Y-81950000D03*
X141200000Y-81950000D03*
X139200000Y-81950000D03*
%TD*%
D13*
%TO.C,Type-C*%
X107470000Y-93050000D03*
X107470000Y-92250000D03*
X107470000Y-91750000D03*
X107470000Y-91250000D03*
X107470000Y-90750000D03*
X107470000Y-90250000D03*
X107470000Y-89750000D03*
X107470000Y-89250000D03*
X107470000Y-88750000D03*
X107470000Y-88250000D03*
X107470000Y-87450000D03*
X107470000Y-86650000D03*
X107470000Y-86950000D03*
X107470000Y-87750000D03*
X107470000Y-92550000D03*
X107470000Y-93350000D03*
%TD*%
%TO.C,U4*%
G36*
G01*
X116350000Y-83845000D02*
X116350000Y-83545000D01*
G75*
G02*
X116500000Y-83395000I150000J0D01*
G01*
X118150000Y-83395000D01*
G75*
G02*
X118300000Y-83545000I0J-150000D01*
G01*
X118300000Y-83845000D01*
G75*
G02*
X118150000Y-83995000I-150000J0D01*
G01*
X116500000Y-83995000D01*
G75*
G02*
X116350000Y-83845000I0J150000D01*
G01*
G37*
G36*
G01*
X116350000Y-85115000D02*
X116350000Y-84815000D01*
G75*
G02*
X116500000Y-84665000I150000J0D01*
G01*
X118150000Y-84665000D01*
G75*
G02*
X118300000Y-84815000I0J-150000D01*
G01*
X118300000Y-85115000D01*
G75*
G02*
X118150000Y-85265000I-150000J0D01*
G01*
X116500000Y-85265000D01*
G75*
G02*
X116350000Y-85115000I0J150000D01*
G01*
G37*
G36*
G01*
X116350000Y-86385000D02*
X116350000Y-86085000D01*
G75*
G02*
X116500000Y-85935000I150000J0D01*
G01*
X118150000Y-85935000D01*
G75*
G02*
X118300000Y-86085000I0J-150000D01*
G01*
X118300000Y-86385000D01*
G75*
G02*
X118150000Y-86535000I-150000J0D01*
G01*
X116500000Y-86535000D01*
G75*
G02*
X116350000Y-86385000I0J150000D01*
G01*
G37*
G36*
G01*
X116350000Y-87655000D02*
X116350000Y-87355000D01*
G75*
G02*
X116500000Y-87205000I150000J0D01*
G01*
X118150000Y-87205000D01*
G75*
G02*
X118300000Y-87355000I0J-150000D01*
G01*
X118300000Y-87655000D01*
G75*
G02*
X118150000Y-87805000I-150000J0D01*
G01*
X116500000Y-87805000D01*
G75*
G02*
X116350000Y-87655000I0J150000D01*
G01*
G37*
G36*
G01*
X121300000Y-87655000D02*
X121300000Y-87355000D01*
G75*
G02*
X121450000Y-87205000I150000J0D01*
G01*
X123100000Y-87205000D01*
G75*
G02*
X123250000Y-87355000I0J-150000D01*
G01*
X123250000Y-87655000D01*
G75*
G02*
X123100000Y-87805000I-150000J0D01*
G01*
X121450000Y-87805000D01*
G75*
G02*
X121300000Y-87655000I0J150000D01*
G01*
G37*
G36*
G01*
X121300000Y-86385000D02*
X121300000Y-86085000D01*
G75*
G02*
X121450000Y-85935000I150000J0D01*
G01*
X123100000Y-85935000D01*
G75*
G02*
X123250000Y-86085000I0J-150000D01*
G01*
X123250000Y-86385000D01*
G75*
G02*
X123100000Y-86535000I-150000J0D01*
G01*
X121450000Y-86535000D01*
G75*
G02*
X121300000Y-86385000I0J150000D01*
G01*
G37*
G36*
G01*
X121300000Y-85115000D02*
X121300000Y-84815000D01*
G75*
G02*
X121450000Y-84665000I150000J0D01*
G01*
X123100000Y-84665000D01*
G75*
G02*
X123250000Y-84815000I0J-150000D01*
G01*
X123250000Y-85115000D01*
G75*
G02*
X123100000Y-85265000I-150000J0D01*
G01*
X121450000Y-85265000D01*
G75*
G02*
X121300000Y-85115000I0J150000D01*
G01*
G37*
G36*
G01*
X121300000Y-83845000D02*
X121300000Y-83545000D01*
G75*
G02*
X121450000Y-83395000I150000J0D01*
G01*
X123100000Y-83395000D01*
G75*
G02*
X123250000Y-83545000I0J-150000D01*
G01*
X123250000Y-83845000D01*
G75*
G02*
X123100000Y-83995000I-150000J0D01*
G01*
X121450000Y-83995000D01*
G75*
G02*
X121300000Y-83845000I0J150000D01*
G01*
G37*
%TD*%
D14*
%TO.C,U2*%
X119800000Y-91150000D03*
D15*
X119800000Y-97450000D03*
X122100000Y-97450000D03*
X117500000Y-97450000D03*
%TD*%
%TO.C,R5*%
G36*
G01*
X160425000Y-90675000D02*
X160975000Y-90675000D01*
G75*
G02*
X161175000Y-90875000I0J-200000D01*
G01*
X161175000Y-91275000D01*
G75*
G02*
X160975000Y-91475000I-200000J0D01*
G01*
X160425000Y-91475000D01*
G75*
G02*
X160225000Y-91275000I0J200000D01*
G01*
X160225000Y-90875000D01*
G75*
G02*
X160425000Y-90675000I200000J0D01*
G01*
G37*
G36*
G01*
X160425000Y-92325000D02*
X160975000Y-92325000D01*
G75*
G02*
X161175000Y-92525000I0J-200000D01*
G01*
X161175000Y-92925000D01*
G75*
G02*
X160975000Y-93125000I-200000J0D01*
G01*
X160425000Y-93125000D01*
G75*
G02*
X160225000Y-92925000I0J200000D01*
G01*
X160225000Y-92525000D01*
G75*
G02*
X160425000Y-92325000I200000J0D01*
G01*
G37*
%TD*%
%TO.C,R4*%
G36*
G01*
X157275000Y-81825000D02*
X157275000Y-81275000D01*
G75*
G02*
X157475000Y-81075000I200000J0D01*
G01*
X157875000Y-81075000D01*
G75*
G02*
X158075000Y-81275000I0J-200000D01*
G01*
X158075000Y-81825000D01*
G75*
G02*
X157875000Y-82025000I-200000J0D01*
G01*
X157475000Y-82025000D01*
G75*
G02*
X157275000Y-81825000I0J200000D01*
G01*
G37*
G36*
G01*
X158925000Y-81825000D02*
X158925000Y-81275000D01*
G75*
G02*
X159125000Y-81075000I200000J0D01*
G01*
X159525000Y-81075000D01*
G75*
G02*
X159725000Y-81275000I0J-200000D01*
G01*
X159725000Y-81825000D01*
G75*
G02*
X159525000Y-82025000I-200000J0D01*
G01*
X159125000Y-82025000D01*
G75*
G02*
X158925000Y-81825000I0J200000D01*
G01*
G37*
%TD*%
%TO.C,R3*%
G36*
G01*
X171675000Y-81775000D02*
X171675000Y-81225000D01*
G75*
G02*
X171875000Y-81025000I200000J0D01*
G01*
X172275000Y-81025000D01*
G75*
G02*
X172475000Y-81225000I0J-200000D01*
G01*
X172475000Y-81775000D01*
G75*
G02*
X172275000Y-81975000I-200000J0D01*
G01*
X171875000Y-81975000D01*
G75*
G02*
X171675000Y-81775000I0J200000D01*
G01*
G37*
G36*
G01*
X173325000Y-81775000D02*
X173325000Y-81225000D01*
G75*
G02*
X173525000Y-81025000I200000J0D01*
G01*
X173925000Y-81025000D01*
G75*
G02*
X174125000Y-81225000I0J-200000D01*
G01*
X174125000Y-81775000D01*
G75*
G02*
X173925000Y-81975000I-200000J0D01*
G01*
X173525000Y-81975000D01*
G75*
G02*
X173325000Y-81775000I0J200000D01*
G01*
G37*
%TD*%
%TO.C,R2*%
G36*
G01*
X108225000Y-97025000D02*
X108225000Y-97575000D01*
G75*
G02*
X108025000Y-97775000I-200000J0D01*
G01*
X107625000Y-97775000D01*
G75*
G02*
X107425000Y-97575000I0J200000D01*
G01*
X107425000Y-97025000D01*
G75*
G02*
X107625000Y-96825000I200000J0D01*
G01*
X108025000Y-96825000D01*
G75*
G02*
X108225000Y-97025000I0J-200000D01*
G01*
G37*
G36*
G01*
X106575000Y-97025000D02*
X106575000Y-97575000D01*
G75*
G02*
X106375000Y-97775000I-200000J0D01*
G01*
X105975000Y-97775000D01*
G75*
G02*
X105775000Y-97575000I0J200000D01*
G01*
X105775000Y-97025000D01*
G75*
G02*
X105975000Y-96825000I200000J0D01*
G01*
X106375000Y-96825000D01*
G75*
G02*
X106575000Y-97025000I0J-200000D01*
G01*
G37*
%TD*%
%TO.C,R1*%
G36*
G01*
X127500000Y-88775000D02*
X127500000Y-89325000D01*
G75*
G02*
X127300000Y-89525000I-200000J0D01*
G01*
X126900000Y-89525000D01*
G75*
G02*
X126700000Y-89325000I0J200000D01*
G01*
X126700000Y-88775000D01*
G75*
G02*
X126900000Y-88575000I200000J0D01*
G01*
X127300000Y-88575000D01*
G75*
G02*
X127500000Y-88775000I0J-200000D01*
G01*
G37*
G36*
G01*
X125850000Y-88775000D02*
X125850000Y-89325000D01*
G75*
G02*
X125650000Y-89525000I-200000J0D01*
G01*
X125250000Y-89525000D01*
G75*
G02*
X125050000Y-89325000I0J200000D01*
G01*
X125050000Y-88775000D01*
G75*
G02*
X125250000Y-88575000I200000J0D01*
G01*
X125650000Y-88575000D01*
G75*
G02*
X125850000Y-88775000I0J-200000D01*
G01*
G37*
%TD*%
%TO.C,C4*%
G36*
G01*
X123225000Y-81550000D02*
X123225000Y-82050000D01*
G75*
G02*
X123000000Y-82275000I-225000J0D01*
G01*
X122550000Y-82275000D01*
G75*
G02*
X122325000Y-82050000I0J225000D01*
G01*
X122325000Y-81550000D01*
G75*
G02*
X122550000Y-81325000I225000J0D01*
G01*
X123000000Y-81325000D01*
G75*
G02*
X123225000Y-81550000I0J-225000D01*
G01*
G37*
G36*
G01*
X121675000Y-81550000D02*
X121675000Y-82050000D01*
G75*
G02*
X121450000Y-82275000I-225000J0D01*
G01*
X121000000Y-82275000D01*
G75*
G02*
X120775000Y-82050000I0J225000D01*
G01*
X120775000Y-81550000D01*
G75*
G02*
X121000000Y-81325000I225000J0D01*
G01*
X121450000Y-81325000D01*
G75*
G02*
X121675000Y-81550000I0J-225000D01*
G01*
G37*
%TD*%
%TO.C,C3*%
G36*
G01*
X180374998Y-94362500D02*
X182225002Y-94362500D01*
G75*
G02*
X182475000Y-94612498I0J-249998D01*
G01*
X182475000Y-95437502D01*
G75*
G02*
X182225002Y-95687500I-249998J0D01*
G01*
X180374998Y-95687500D01*
G75*
G02*
X180125000Y-95437502I0J249998D01*
G01*
X180125000Y-94612498D01*
G75*
G02*
X180374998Y-94362500I249998J0D01*
G01*
G37*
G36*
G01*
X180374998Y-97437500D02*
X182225002Y-97437500D01*
G75*
G02*
X182475000Y-97687498I0J-249998D01*
G01*
X182475000Y-98512502D01*
G75*
G02*
X182225002Y-98762500I-249998J0D01*
G01*
X180374998Y-98762500D01*
G75*
G02*
X180125000Y-98512502I0J249998D01*
G01*
X180125000Y-97687498D01*
G75*
G02*
X180374998Y-97437500I249998J0D01*
G01*
G37*
%TD*%
%TO.C,C2*%
G36*
G01*
X114425002Y-96500000D02*
X112574998Y-96500000D01*
G75*
G02*
X112325000Y-96250002I0J249998D01*
G01*
X112325000Y-95424998D01*
G75*
G02*
X112574998Y-95175000I249998J0D01*
G01*
X114425002Y-95175000D01*
G75*
G02*
X114675000Y-95424998I0J-249998D01*
G01*
X114675000Y-96250002D01*
G75*
G02*
X114425002Y-96500000I-249998J0D01*
G01*
G37*
G36*
G01*
X114425002Y-93425000D02*
X112574998Y-93425000D01*
G75*
G02*
X112325000Y-93175002I0J249998D01*
G01*
X112325000Y-92349998D01*
G75*
G02*
X112574998Y-92100000I249998J0D01*
G01*
X114425002Y-92100000D01*
G75*
G02*
X114675000Y-92349998I0J-249998D01*
G01*
X114675000Y-93175002D01*
G75*
G02*
X114425002Y-93425000I-249998J0D01*
G01*
G37*
%TD*%
%TO.C,C1*%
G36*
G01*
X127025002Y-96500000D02*
X125174998Y-96500000D01*
G75*
G02*
X124925000Y-96250002I0J249998D01*
G01*
X124925000Y-95424998D01*
G75*
G02*
X125174998Y-95175000I249998J0D01*
G01*
X127025002Y-95175000D01*
G75*
G02*
X127275000Y-95424998I0J-249998D01*
G01*
X127275000Y-96250002D01*
G75*
G02*
X127025002Y-96500000I-249998J0D01*
G01*
G37*
G36*
G01*
X127025002Y-93425000D02*
X125174998Y-93425000D01*
G75*
G02*
X124925000Y-93175002I0J249998D01*
G01*
X124925000Y-92349998D01*
G75*
G02*
X125174998Y-92100000I249998J0D01*
G01*
X127025002Y-92100000D01*
G75*
G02*
X127275000Y-92349998I0J-249998D01*
G01*
X127275000Y-93175002D01*
G75*
G02*
X127025002Y-93425000I-249998J0D01*
G01*
G37*
%TD*%
M02*
